<?xml version="1.0" encoding="UTF-8"?><svg xmlns="http://www.w3.org/2000/svg" viewBox="0 0 144.68 60"><defs><style>.d{fill:#fff;}</style></defs><g id="a"/><g id="b"><g id="c"><g><path class="d" d="M16.75,15.23c-1.29-.73-2.78-.94-4.9-1.15-1.84-.17-3.37-.31-4.24-.52-.97-.24-1.25-.8-1.25-1.53,0-1.18,1.04-1.98,3.41-1.98,2.61,0,3.44,.94,3.48,2.75h4.66c0-4-2.57-6.16-8.21-6.16C4.92,6.64,1.1,8.7,1.1,12.42c0,1.43,.66,2.68,1.64,3.37,1.04,.73,2.96,1.11,5.43,1.32,1.7,.14,3.1,.28,4,.49,.9,.21,1.22,.7,1.22,1.32,0,1.25-.97,2.05-3.72,2.05-3.03,0-3.83-1.04-3.83-2.65H1.1c0,3.48,2.54,6.05,8.59,6.05s8.97-2.12,8.97-5.74c0-1.5-.8-2.78-1.91-3.41Z"/><path class="d" d="M29.93,24.38c4.9,0,8.17-2.3,8.28-6.23h-4.66c-.14,1.67-1.46,2.4-3.51,2.4-2.37,0-3.79-1.22-4.03-4.03h12.21v-1.5c0-5.63-3.37-8.38-8.17-8.38-5.81,0-9.36,3.37-9.36,9.04s3.55,8.7,9.25,8.7Zm.1-13.91c2.19,0,3.51,1.01,3.51,2.96v.28h-7.41c.42-2.26,1.67-3.24,3.9-3.24Z"/><path class="d" d="M45.83,16.69c0-3.82,1.56-5.67,3.83-5.67,1.67,0,2.68,1.01,2.68,3.51,0,.52-.04,1.39-.1,2.23h4.8c.07-.9,.17-2.43,.17-3.41,0-4.45-2.05-6.71-5.57-6.71s-5.22,1.91-5.95,5.18h-.07l.21-4.91h-5.29V24.1h5.29v-7.41Z"/><path class="d" d="M64.82,15.93c0-3.27,1.67-4.91,4.45-4.91,2.37,0,3.72,1.08,3.72,3.51v9.57h5.29V13.36c0-4.45-2.68-6.71-6.82-6.71-3.9,0-5.91,1.56-6.78,4.83h-.07c.1-1.29,.21-3.24,.21-3.9V0h-5.29V24.1h5.29V15.93Z"/><path class="d" d="M87.12,14.3c-4.56,0-6.57,2.05-6.57,4.87,0,3.48,2.78,5.22,6.78,5.22,3.13,0,5.08-1.32,5.6-3.76h.04c0,1.04-.14,2.61-.24,3.48h5.29V13.67c0-4.59-3.2-7.02-8.66-7.02s-8.28,2.05-8.28,5.53c0,.35,.04,.73,.07,1.01h4.87c-.04-.35-.04-.63-.04-.73,0-1.39,1.15-2.23,3.13-2.23,2.43,0,3.62,.83,3.62,2.92v1.15h-5.6Zm5.6,3.2c0,2.09-1.6,3.3-4.35,3.3-1.91,0-3.06-.7-3.06-2.02,0-.97,.87-1.64,2.3-1.64h5.11v.35Z"/><path class="d" d="M113.93,14.54v9.57h5.29V13.36c0-4.45-2.68-6.71-6.82-6.71-3.9,0-5.91,1.56-6.78,4.83h-.07l.21-4.56h-5.29V52.73h5.29V15.93c0-3.27,1.67-4.91,4.45-4.91,2.33,0,3.72,1.08,3.72,3.51Z"/><path class="d" d="M8.8,35.15c-5.22,0-8.28,2.05-8.28,5.53,0,.35,.04,.73,.07,1.01H5.46c-.04-.35-.04-.63-.04-.73,0-1.39,1.15-2.23,3.13-2.23,2.43,0,3.62,.83,3.62,2.92v1.15H6.57c-4.56,0-6.57,2.05-6.57,4.87,0,3.48,2.78,5.22,6.78,5.22,3.13,0,5.08-1.32,5.6-3.76h.04c0,1.04-.14,2.61-.24,3.48h5.29v-10.44c0-4.59-3.2-7.02-8.66-7.02Zm3.37,10.85c0,2.09-1.6,3.3-4.35,3.3-1.91,0-3.06-.7-3.06-2.02,0-.97,.87-1.64,2.3-1.64h5.11v.35Z"/><polygon class="d" points="39.1 35.51 32.66 35.51 25.32 43.79 25.29 43.79 25.29 28.59 20 28.59 20 52.7 25.29 52.7 25.29 49.18 28.07 46.37 32.56 52.7 39.51 52.7 31.86 42.99 39.1 35.51"/><path class="d" d="M55.83,43.74c-1.29-.73-2.78-.94-4.9-1.15-1.84-.17-3.37-.31-4.24-.52-.97-.24-1.25-.8-1.25-1.53,0-1.18,1.04-1.98,3.41-1.98,2.61,0,3.44,.94,3.48,2.75h4.66c0-4-2.57-6.16-8.21-6.16-4.76,0-8.59,2.05-8.59,5.77,0,1.43,.66,2.68,1.64,3.37,1.04,.73,2.96,1.11,5.43,1.32,1.7,.14,3.1,.28,4,.49,.9,.21,1.22,.7,1.22,1.32,0,1.25-.97,2.05-3.72,2.05-3.03,0-3.83-1.04-3.83-2.65h-4.73c0,3.48,2.54,6.05,8.59,6.05s8.97-2.12,8.97-5.74c0-1.5-.8-2.78-1.91-3.41Z"/><rect class="d" x="63.08" y="29.41" width="4.73" height="4.21"/><path class="d" d="M68.99,35.15c-5.67,0-9.36,3.3-9.36,8.9s3.69,8.83,9.36,8.83,9.36-3.27,9.36-8.83-3.69-8.9-9.36-8.9Zm0,13.7c-2.57,0-4.07-1.77-4.07-4.8s1.5-4.87,4.07-4.87,4.07,1.81,4.07,4.87-1.5,4.8-4.07,4.8Z"/><rect class="d" x="70.17" y="29.41" width="4.73" height="4.21"/><path class="d" d="M89.4,47.34h-.07l-4.42-11.83h-6.05l7.13,17.18h1.15c-.87,2.36-1.67,3.2-3.41,3.2-.87,0-1.67-.14-2.19-.28v3.93c.45,.17,1.56,.45,3.3,.45,3.55,0,5.67-1.95,7.41-6.89l6.23-17.6h-5.08l-4,11.83Z"/><path class="d" d="M117.52,35.24c-5.81,0-9.36,3.37-9.36,9.04s3.55,8.7,9.25,8.7c4.9,0,8.17-2.3,8.28-6.23h-4.66c-.14,1.67-1.46,2.4-3.51,2.4-2.37,0-3.79-1.22-4.03-4.03h12.21v-1.5c0-5.63-3.37-8.38-8.17-8.38Zm3.51,7.06h-7.41c.42-2.26,1.67-3.24,3.9-3.24s3.51,1.01,3.51,2.96v.28Z"/><path class="d" d="M139.12,35.24c-3.37,0-5.22,1.91-5.95,5.18h-.07l.21-4.91h-5.29v17.18h5.29v-7.41c0-3.82,1.56-5.67,3.83-5.67,1.67,0,2.68,1.01,2.68,3.51,0,.52-.04,1.39-.1,2.23h4.8c.07-.9,.17-2.43,.17-3.41,0-4.45-2.05-6.71-5.57-6.71Z"/></g></g></g></svg>