<?xml version="1.0" encoding="UTF-8"?><svg xmlns="http://www.w3.org/2000/svg" viewBox="0 0 84.4 35"><defs><style>.d{fill:#fff;}</style></defs><g id="a"/><g id="b"><g id="c"><g><path class="d" d="M9.77,8.89c-.75-.43-1.62-.55-2.86-.67-1.08-.1-1.97-.18-2.48-.31-.57-.14-.73-.47-.73-.89,0-.69,.61-1.16,1.99-1.16,1.52,0,2.01,.55,2.03,1.6h2.72c0-2.33-1.5-3.59-4.79-3.59C2.87,3.88,.64,5.07,.64,7.24c0,.83,.39,1.56,.95,1.97,.61,.43,1.72,.65,3.17,.77,.99,.08,1.81,.16,2.33,.28,.53,.12,.71,.41,.71,.77,0,.73-.57,1.2-2.17,1.2-1.77,0-2.23-.61-2.23-1.54H.64c0,2.03,1.48,3.53,5.01,3.53s5.24-1.24,5.24-3.35c0-.87-.47-1.62-1.12-1.99Z"/><path class="d" d="M17.46,14.22c2.86,0,4.77-1.34,4.83-3.63h-2.72c-.08,.97-.85,1.4-2.05,1.4-1.38,0-2.21-.71-2.35-2.35h7.12v-.87c0-3.29-1.97-4.89-4.77-4.89-3.39,0-5.46,1.97-5.46,5.27s2.07,5.07,5.4,5.07Zm.06-8.12c1.28,0,2.05,.59,2.05,1.73v.16h-4.32c.24-1.32,.97-1.89,2.27-1.89Z"/><path class="d" d="M26.73,9.74c0-2.23,.91-3.31,2.23-3.31,.97,0,1.56,.59,1.56,2.05,0,.31-.02,.81-.06,1.3h2.8c.04-.53,.1-1.42,.1-1.99,0-2.6-1.2-3.92-3.25-3.92s-3.04,1.11-3.47,3.02h-.04l.12-2.86h-3.08V14.06h3.08v-4.32Z"/><path class="d" d="M37.81,9.29c0-1.91,.97-2.86,2.6-2.86,1.38,0,2.17,.63,2.17,2.05v5.58h3.08V7.79c0-2.6-1.56-3.92-3.98-3.92-2.27,0-3.45,.91-3.96,2.82h-.04c.06-.75,.12-1.89,.12-2.27V0h-3.08V14.06h3.08v-4.77Z"/><path class="d" d="M50.82,8.34c-2.66,0-3.83,1.2-3.83,2.84,0,2.03,1.62,3.04,3.96,3.04,1.83,0,2.96-.77,3.27-2.19h.02c0,.61-.08,1.52-.14,2.03h3.08V7.97c0-2.68-1.87-4.1-5.05-4.1s-4.83,1.2-4.83,3.23c0,.2,.02,.43,.04,.59h2.84c-.02-.2-.02-.36-.02-.43,0-.81,.67-1.3,1.83-1.3,1.42,0,2.11,.49,2.11,1.7v.67h-3.27Zm3.27,1.87c0,1.22-.93,1.93-2.54,1.93-1.12,0-1.79-.41-1.79-1.18,0-.57,.51-.95,1.34-.95h2.98v.2Z"/><path class="d" d="M66.46,8.48v5.58h3.08V7.79c0-2.6-1.56-3.92-3.98-3.92-2.27,0-3.45,.91-3.96,2.82h-.04l.12-2.66h-3.08V30.76h3.08V9.29c0-1.91,.97-2.86,2.6-2.86,1.36,0,2.17,.63,2.17,2.05Z"/><path class="d" d="M5.13,20.5c-3.04,0-4.83,1.2-4.83,3.23,0,.2,.02,.43,.04,.59H3.19c-.02-.2-.02-.36-.02-.43,0-.81,.67-1.3,1.83-1.3,1.42,0,2.11,.49,2.11,1.7v.67H3.83c-2.66,0-3.83,1.2-3.83,2.84,0,2.03,1.62,3.04,3.96,3.04,1.83,0,2.96-.77,3.27-2.19h.02c0,.61-.08,1.52-.14,2.03h3.08v-6.09c0-2.68-1.87-4.1-5.05-4.1Zm1.97,6.33c0,1.22-.93,1.93-2.54,1.93-1.12,0-1.79-.41-1.79-1.18,0-.57,.51-.95,1.34-.95h2.98v.2Z"/><polygon class="d" points="22.81 20.72 19.05 20.72 14.77 25.55 14.75 25.55 14.75 16.68 11.67 16.68 11.67 30.74 14.75 30.74 14.75 28.69 16.37 27.05 18.99 30.74 23.05 30.74 18.59 25.08 22.81 20.72"/><path class="d" d="M32.57,25.51c-.75-.43-1.62-.55-2.86-.67-1.08-.1-1.97-.18-2.48-.31-.57-.14-.73-.47-.73-.89,0-.69,.61-1.16,1.99-1.16,1.52,0,2.01,.55,2.03,1.6h2.72c0-2.33-1.5-3.59-4.79-3.59-2.78,0-5.01,1.2-5.01,3.37,0,.83,.39,1.56,.95,1.97,.61,.43,1.72,.65,3.17,.77,.99,.08,1.81,.16,2.33,.28,.53,.12,.71,.41,.71,.77,0,.73-.57,1.2-2.17,1.2-1.77,0-2.23-.61-2.23-1.54h-2.76c0,2.03,1.48,3.53,5.01,3.53s5.24-1.24,5.24-3.35c0-.87-.47-1.62-1.12-1.99Z"/><rect class="d" x="36.8" y="17.16" width="2.76" height="2.46"/><path class="d" d="M40.25,20.5c-3.31,0-5.46,1.93-5.46,5.19s2.15,5.15,5.46,5.15,5.46-1.91,5.46-5.15-2.15-5.19-5.46-5.19Zm0,7.99c-1.5,0-2.37-1.03-2.37-2.8s.87-2.84,2.37-2.84,2.37,1.06,2.37,2.84-.87,2.8-2.37,2.8Z"/><rect class="d" x="40.94" y="17.16" width="2.76" height="2.46"/><path class="d" d="M52.15,27.62h-.04l-2.58-6.9h-3.53l4.16,10.02h.67c-.51,1.38-.97,1.87-1.99,1.87-.51,0-.97-.08-1.28-.16v2.29c.26,.1,.91,.26,1.93,.26,2.07,0,3.31-1.14,4.32-4.02l3.63-10.27h-2.96l-2.33,6.9Z"/><path class="d" d="M68.55,20.55c-3.39,0-5.46,1.97-5.46,5.27s2.07,5.07,5.4,5.07c2.86,0,4.77-1.34,4.83-3.63h-2.72c-.08,.97-.85,1.4-2.05,1.4-1.38,0-2.21-.71-2.35-2.35h7.12v-.87c0-3.29-1.97-4.89-4.77-4.89Zm2.05,4.12h-4.32c.24-1.32,.97-1.89,2.27-1.89s2.05,.59,2.05,1.73v.16Z"/><path class="d" d="M81.15,20.55c-1.97,0-3.04,1.11-3.47,3.02h-.04l.12-2.86h-3.08v10.02h3.08v-4.32c0-2.23,.91-3.31,2.23-3.31,.97,0,1.56,.59,1.56,2.05,0,.31-.02,.81-.06,1.3h2.8c.04-.53,.1-1.42,.1-1.99,0-2.6-1.2-3.92-3.25-3.92Z"/></g></g></g></svg>