<?xml version="1.0" encoding="UTF-8"?>
<svg id="Layer_2" data-name="Layer 2" xmlns="http://www.w3.org/2000/svg" xmlns:xlink="http://www.w3.org/1999/xlink" viewBox="0 0 155.79 100.68">
  <defs>
    <style>
      .cls-1 {
        fill: none;
      }

      .cls-2 {
        clip-path: url(#clippath);
      }

      .cls-3 {
        fill: #c12626;
      }

      .cls-4 {
        clip-path: url(#clippath-1);
      }

      .cls-5 {
        clip-path: url(#clippath-4);
      }

      .cls-6 {
        clip-path: url(#clippath-3);
      }

      .cls-7 {
        clip-path: url(#clippath-2);
      }

      .cls-8 {
        clip-path: url(#clippath-5);
      }

      .cls-9 {
        opacity: .9;
      }

      .cls-10 {
        opacity: .85;
      }

      .cls-11 {
        opacity: .8;
      }

      .cls-12 {
        opacity: .75;
      }
    </style>
    <clipPath id="clippath">
      <rect class="cls-1" x="5.82" y="28.17" width="142.83" height="40.75"/>
    </clipPath>
    <clipPath id="clippath-1">
      <rect class="cls-1" x="11.58" y="24.88" width="123.92" height="46.87"/>
    </clipPath>
    <clipPath id="clippath-2">
      <rect class="cls-1" x="6.3" y="21.22" width="43.27" height="54.19"/>
    </clipPath>
    <clipPath id="clippath-3">
      <rect class="cls-1" x="42.99" y="16.11" width="43.02" height="62.63"/>
    </clipPath>
    <clipPath id="clippath-4">
      <rect class="cls-1" x="80.92" y="4.7" width="51.34" height="85.43"/>
    </clipPath>
    <clipPath id="clippath-5">
      <rect class="cls-1" x="90.7" y="12.42" width="57.95" height="77.71"/>
    </clipPath>
  </defs>
  <g id="Layer_1-2" data-name="Layer 1">
    <g>
      <g>
        <path d="m9.55,15.3c.1,3.62-.08,7.16-.27,10.71-.95,3.34-1.82,6.67-2.57,9.97-1.47,6.66-5.52,29.28,7.69,21.76,4.21-2.32,8.09-5.61,11.02-9.37,2.32-1.97,4.83-4.67,3.67-8.05.73.54,1.3,1.37,1.64,2.32.94,2.93-.04,6.09-1.33,8.76-2.33,2.98-4.97,5.51-7.94,7.73-3.23,2.27-6.27,4.39-10.4,5.04-17.9,1.26-9.36-29.73-6.66-39.47,1.62-3.16,3.23-6.31,5.14-9.39h0Z"/>
        <path d="m7.88,42.33c.34-1.41.83-2.56,1.32-3.72.89-.47,1.74-1.02,2.62-1.52,2.6-1.54,7.82-4.63,10.41-6.17,0,0,2.58-1.53,2.58-1.53,1.16.16,2.27.59,3.37.02.64,1.38-.2,3.04-.78,4.25,0,0-2.63,1.56-2.63,1.56-2.6,1.54-7.82,4.63-10.41,6.17-.86.52-1.75,1.01-2.59,1.56-1.25-.13-2.49-.25-3.89-.63h0Z"/>
        <path d="m10.76,29.36c-3.84.25-7.2-2.07-5.27-6.31,3.45-5.49,14.73-11.28,21.12-11.98,1.08,0,2.33-.01,3.32.54,1.79,1.47,2.67,4.47.7,5.91-.11-.78-.63-1.29-1.3-1.5-.56-.17-1.14-.13-1.42.17-.39-.2-1.44-.18-2.68.19-2.62.75-5.23,1.82-7.65,3.15-2.64,1.52-5.66,3.41-7.6,5.69-.05.12-.01.03.02.15-.69,1,.28,2.79.74,3.99h0Z"/>
        <path d="m27.26,44.07c-.09,1.64.15,3.23.69,4.66l-.86-.69c.26-.12.56-.79.79-1.74.79-2.76,1.59-5.81,2.23-8.58,3.44-7.78,3.85-16.14,8.9-23.47,2.02-2.93,5.75-2.11,7.07.81.77,1.3,1.47,6.39,1.84,7.9,1.09,5.64,2.15,11.93,3.06,17.64.12,1.09.59,3.49.68,4.55.65,4.44-2.09,8.37-6.9,7.26-1.84-.39-4.17-1.21-5.96-1.73-3.83-1.21-7.62-2.55-11.36-4.02l-6.61-2.6s6.78-2.12,6.78-2.12c5.09-1.5,9.95-3.61,14.84-5.62,5.17-1.54,10.23-3.4,15.29-5.38-2.04,1.83-4.19,3.55-6.4,5.19-2.21,1.65-4.51,3.17-6.86,4.65-4.92,2.44-10.16,4.23-15.38,5.93,0,0,.17-4.71.17-4.71,3.63,1.43,7.32,2.73,11.04,3.9.91.28,3.31,1.02,4.2,1.27.69.2,1.41.42,1.96.4.12-.02.07-.01.07-.01.09-.15.16-.46.18-.84.05-.71-.11-1.69-.22-2.43-1.03-6.66-2.23-13.81-3.49-20.41-.12-.4-1.14-6.35-1.38-6.57-.08-.21-.25-.29.02-.1.31.23,1.12.23,1.44-.08-2.06,2.78-3.39,6.85-4.5,10.86-1.67,5.78-3.31,11.75-6.72,16.8-.88,1.4-1.55,2.68-2.67,3.98-.43.46-1.19.99-2.05.93l-.83-.06c-.14-1.93.16-3.93.95-5.6h0Z"/>
        <path d="m40.58,23.55c1.03-1.84,2.18-3.49,3.37-5.08,1.6-.94,3.16-1.95,4.74-2.93l9.45-5.89c3.11-1.94,11.17-6.96,14.18-8.84,1.97-.33,3.93-.69,6.03-.81-1.05,1.84-2.24,3.45-3.41,5.07-2.97,1.85-11.07,6.9-14.16,8.82,0,0-9.44,5.88-9.44,5.88-1.57.99-3.16,1.94-4.71,2.96-1.95.38-3.95.69-6.07.81h0Z"/>
        <path d="m65,9.61c.48,2.37.64,4.74.71,7.06-.66,2.11-1.26,4.22-1.86,6.3-2.42,8.2-3.84,16.37-1.82,24.75.44,2.05,1,4.1,1.63,6.16-.1,2.28-.1,4.59-.35,6.99-1.65-1.76-3.05-3.61-4.43-5.53-.65-2.14-1.25-4.33-1.73-6.57-2.21-8.94-.7-18.56,1.9-27.16.59-2.14,1.27-4.24,1.82-6.34,1.29-1.89,2.63-3.76,4.14-5.65h0Z"/>
        <path d="m21.53,70.97c4.31-3.74,7.8-8.35,9.96-13.53,0,0,5.9-14.44,5.9-14.44l-1.59,16.13c-.07,1.66-.48,3.23-.8,4.84-.82,4.83-1.23,9.73-1.19,14.62.03,4.83.46,9.79,1.34,14.52.2.85.47,1.84,1.02,2.14,0,0-3.03,1.32-3.03,1.32,2.06-4.37,2.47-9.5,2.46-14.76,0-5.27-.4-10.77.3-16.47l4.97.12c.85,11.34,2.3,22.63,4.34,33.82l-4.8,1.33c-1.01-2.63-1.91-5.67-.54-8.68,1.2-2.78,4.59-3.75,7.08-4.45,4.29-1.22,8.28-3.47,11.58-6.59-2.33,4.15-5.89,7.68-10.1,10.04-1.57.86-3.33,1.9-4,3.25-.57.75-.16,2.63.65,4.67l-4.8,1.33c-2.07-11.36-3.54-22.83-4.41-34.34,0,0,4.97.12,4.97.12-.63,5.04-.26,10.35-.26,15.85.09,6.39-.75,13.08-3.87,18.87,0,0-2.1-.68-2.1-.68-4.56-1.62-4.55-7.12-5.18-11.04-.82-6.87-.87-13.83-.1-20.7.49-3.41.7-6.93,1.89-10.19,0,0,4.31,1.69,4.31,1.69-3.59,4.92-8.45,8.91-14.02,11.2h0Z"/>
        <path d="m54.99,67.73c1,1.37,1.69,2.72,2.4,4.06-.08,1.32-.07,2.64-.09,3.94-.02,4.55.17,9.03.96,13.49.05.32.13.6.26.8,0,.03-.08-.17-.53-.31-.49-.15-.95,0-1.22.2-.25.2-.2.23-.13.09.14-.16.1-.56.32-.71,1.15-.78,2.21-1.75,3.44-2.87.75,1.5,1.06,3.1,1.18,4.78,0,.39-.34.67-.5,1.11-1.22,2.69-4.8,3.21-6.56.7-1.12-1.51-1.21-3.22-1.49-4.96-.58-4.08-.73-8.24-.71-12.32,0-1.36.06-2.7.04-4.05.78-1.32,1.56-2.63,2.64-3.93h0Z"/>
        <path d="m63.47,70.64c1.17,4.9,2.67,9.56,4.73,13.89.27.54.43,1.1.58,1.68.62,2.1,1.62,5.11,3.49,6.22.23.12.35.13.49.11.87-.18,1.31-1.01,1.92-2.18,1.44-2.82,1.8-6.11,1.24-9.25-.76-4.22-3.21-8.18-6.74-10.33l-2.73-1.66c1.3-1.29,12.31-12.28,13.89-13.85,0,0,.92,4.12.92,4.12-1.3-.45-2.82-.55-4.54-.41-3.21.26-7.05,1.13-10.47.47-.85-.14-1.66-.34-2.52-1.07-1.95-1.67-1.21-4.57.3-6.03.39-.46.74-.71,1.11-1.11,2.13-2.04,4.42-3.93,6.8-5.66,4.75-2.48,10.02-4.21,15.25-4.93-4.56,2.62-8.59,5.58-12.33,9.1-2.57,1.74-4.96,3.77-7.14,5.98-.46.55-.09.29-.21-.27-.06-.33-.24-.62-.45-.8-.44-.32-.34-.14.09-.11,5.13.73,10.62-1.82,15.81.15,0,0,3.77,1.28,3.77,1.28-1.78,1.77-12.46,12.42-14.48,14.44,0,0-.47-3.91-.47-3.91,7.4,4.61,10.82,13.82,8.85,22.11-.52,2.14-1.34,4.12-2.62,5.95-3.31,4.72-8.94,3.35-11.54-1.11-.79-1.19-1.34-2.52-1.82-3.84-.39-1.23-1.02-2.39-1.2-3.67-.75-5.15-.83-10.33.05-15.3h0Z"/>
        <path d="m89.4,30.3c1.29,1.48,2.36,3,3.34,4.54.24,1.66.56,3.31.83,4.97.85,4.96,2.57,14.92,3.42,19.87,0,0,.86,4.97.86,4.97l-.71,2.73c-.11.8-.9,2.55-2.19,1.91-.3-.12-.53-.5-.4-.73.35.35.76-.19.54-.32-.93-.58-1.47-1.83-2.16-2.74,0,0-.86-4.97-.86-4.97-.85-4.95-2.57-14.92-3.42-19.87-.3-1.65-.55-3.32-.88-4.96.42-1.78.91-3.57,1.63-5.4h0Z"/>
        <path d="m82.86,49.64c-2.22-4.65-3.79-9.74-3.98-15.29.58-5.45,2.67-10.98,6.64-15.14,6.93-7.19,15.03-7.48,18.47,2.9,3.12,9,2.23,19.32-2.23,27.7-2.66,5.28-6.22,10.02-7.68,14.95-.02-.06-.09-.14-.08-.13,1.39.72,3.47,1.2,5.08,1.59,1.15.31,2.35.33,3.51.62,4.63,1.37,9.6,1.88,14.75,1.66-4.69,2.17-9.98,3.24-15.4,3.3-2.67-.32-5.29-.95-7.85-1.77-4.9-1.3-6.06-4.58-4.04-8.94,2.08-5.04,5.07-9.26,7.25-13.56,3.32-6.27,4.35-13.53,2.88-20.45-.66-2.7-2.11-9.12-5.84-7.95-4.1,1.5-7.12,5.11-8.82,9.1-.89,2.08-1.4,4.3-1.62,6.62-1.23,4.55-1.26,9.63-1.04,14.78h0Z"/>
        <path d="m109.68,24.4c1.32,2.22,2.51,4.47,3.55,6.79.1.79.16,1.59.31,2.38.83,5.24,1.78,10.56,2.82,15.75,1.46,7.3,3.14,14.62,5.01,21.83.06.26.2.5.26.76.09.64-.09,1.87-.09,2.51,0,0-3.25-.6-3.25-.6,1.31-.78,2.33-2.08,2.87-3.62.84,1.75.84,3.91.09,5.78,0,0-.9,2.2-.9,2.2l-2.35-2.8c-1.53-1.82-1.65-4.03-2.27-6.1-1.57-6.29-3.01-12.61-4.28-18.97-1.06-5.26-2.01-10.65-2.85-15.95-.1-.81-.28-1.6-.43-2.39.29-2.54.82-5.03,1.5-7.56h0Z"/>
        <path d="m124.17,27.67c-.22-1.36-.77-2.54-1.48-3.45l1.59.64c-1,1.06-1.25,2.68-1.44,4.18-1.41,3.6-2.31,7.43-2.83,11.27-.72,5.5-.68,11.37.44,16.78.77,3.7,3.08,5,6.49,3.26,3.11-1.66,5.75-4.42,7.36-7.56,2.02-2.45,3.84-4.97,5.09-8.27.74,3.03.6,6.35-.2,9.59-.13.85-.65,1.5-1.09,2.21-3.76,6.34-13.54,14.07-20.13,7-3.29-4.3-3.05-9.41-3.43-14.39-.18-6.97.93-13.96,3.17-20.57.39-1.72,1.71-3.04,3-4.25,1.05-1,2.64-1.38,4.02-1.68.33,1.77.25,3.77-.57,5.25h0Z"/>
        <path d="m136.37,20.67c-.78-1.59-2.81-7.26-3.47-8.97,0,0,4.89,6.72,4.89,6.72.63.89,1.23,1.77,1.75,2.71.07.19.04.39.04.58,1.03,8.08,1.95,16.31,2.61,24.42.12,1.04.18,3.07.38,4.09-.44,1.91-1.47,4.15-3.15,5.32-.18-2.05-1.29-3.31-1.95-4.97.07-.35-.05-1.35-.07-1.72-.54-6.92-1.23-13.85-2.06-20.74,0,0-.57-4.6-.57-4.6-.04-.96-.46-1.51-.11-2.32.24-.81.49-1.63.8-2.45,0,0,2.35-.03,2.35-.03-.43.65-.9,1.31-1.41,1.95h0Z"/>
        <path d="m134.15,47.34c3.69-1.37,6.99-3.3,9.4-5.8,9.01-7.63,7.73-18.93,5.95-29.6,0,0,4.97-.28,4.97-.28-.63,14.47-.39,28.98.86,43.41.28,1.19,0,2.42-.07,3.64l-.28,3.67c-.21,2.46-.39,4.92-.65,7.4-.75-1.99-1.68-5.02-2.32-7.09,0,0-1-3.59-1-3.59-.28-1.2-.78-2.39-.71-3.62-1.17-14.65-1.5-29.36-.83-44.05,0,0,4.97-.28,4.97-.28.59,3.79,1.21,7.7,1.33,11.75.3,7.18-1.56,15.2-6.93,20.46-3.83,3.52-9.97,4.41-14.68,3.96h0Z"/>
      </g>
      <g>
        <g id="Group_169" data-name="Group 169" class="cls-12">
          <g id="Group_168" data-name="Group 168">
            <g class="cls-2">
              <g id="Group_167" data-name="Group 167">
                <path id="Path_1486" data-name="Path 1486" class="cls-3" d="m6.03,28.18l.12,3.1-.33,4.74,1.05,10.98-.75,2.6.29,2.51-.38,3.8.29,4.13-.5,4.78.21,4.1h24.97l42.19-1.51,31.04.26,11.1-.66,33.32,1.03V28.18H6.03Z"/>
              </g>
            </g>
          </g>
        </g>
        <g id="Group_172" data-name="Group 172" class="cls-11">
          <g id="Group_171" data-name="Group 171">
            <g class="cls-4">
              <g id="Group_170" data-name="Group 170">
                <path id="Path_1487" data-name="Path 1487" class="cls-3" d="m133.3,24.88l-7.84,1.63-55.71,1.33-21.09,2.03-17.08-.05-19.97,1.54.76,5.55-.8,8.91,1.74,14.4-.38,7.8.43,3.73,122.13-5.37-2.19-41.5h0Z"/>
              </g>
            </g>
          </g>
        </g>
        <g id="Group_175" data-name="Group 175" class="cls-10">
          <g id="Group_174" data-name="Group 174">
            <g class="cls-7">
              <g id="Group_173" data-name="Group 173">
                <path id="Path_1488" data-name="Path 1488" class="cls-3" d="m47.51,21.22l-2.58.59-8.1-.59-8.69,1.03-8.17.15-6.83-.52-3.42.89-3.42-.3,2.09,52.93h.03l41.15-1.25-.96-3.24.51-22.37-1.9-16.25.44-6.01-.15-5.07Z"/>
              </g>
            </g>
          </g>
        </g>
        <g id="Group_178" data-name="Group 178" class="cls-11">
          <g id="Group_177" data-name="Group 177">
            <g class="cls-6">
              <g id="Group_176" data-name="Group 176">
                <path id="Path_1489" data-name="Path 1489" class="cls-3" d="m45.29,16.11l-2.3,61.08,3.62.35,2.97.6,6.47.2,7.31-.84,10.17,1.23,8.23-.71,2.49.73-.4-12.02.64-8.85,1.09-12.84.42-16.16v-11.22l-40.7-1.53h-.02Z"/>
              </g>
            </g>
          </g>
        </g>
        <g id="Group_181" data-name="Group 181" class="cls-10">
          <g id="Group_180" data-name="Group 180">
            <g class="cls-5">
              <g id="Group_179" data-name="Group 179">
                <path id="Path_1490" data-name="Path 1490" class="cls-3" d="m121.81,4.7l-2.13.3-4.39.21-6.96,1.9-8.05.09-5.33,1.99-8.94.18-5.08,1.17h0s9.79,68.57,9.79,68.57l39.21,11.02,2.33-8.29-.84-11.19-4.13-16.85-2.75-28.72-1.88-10.5-.84-9.89h0Z"/>
              </g>
            </g>
          </g>
        </g>
        <g id="Group_184" data-name="Group 184" class="cls-9">
          <g id="Group_183" data-name="Group 183">
            <g class="cls-8">
              <g id="Group_182" data-name="Group 182">
                <path id="Path_1491" data-name="Path 1491" class="cls-3" d="m90.7,79.12l3.59,1.67,5.95.3,6.34,3.06,5.32.42,7.77,3.85,9.06,1.71,5.47-12.47,2.47-12.74,4.16-13.64,5.21-16.89,2.61-10.95-39.23-11.01-18.72,66.69Z"/>
              </g>
            </g>
          </g>
        </g>
      </g>
    </g>
  </g>
</svg>