<svg xmlns="http://www.w3.org/2000/svg" xmlns:xlink="http://www.w3.org/1999/xlink" width="624" height="230" viewBox="0 0 624 230">
  <defs>
    <clipPath id="clip-ABD">
      <rect width="624" height="230"/>
    </clipPath>
  </defs>
  <g id="ABD" clip-path="url(#clip-ABD)">
    <rect width="624" height="230" fill="#f4f4f4"/>
    <path id="Union_1" data-name="Union 1" d="M.045,80.46C.04,80.3,0,80.16,0,80l.009-.148c0-.09-.013-.184-.013-.274C0,62.22,23.185,25.527,32.5,11.488c1.673-2.52,2.949-4.4,3.508-5.21L40.34,0l4.327,6.278c3.687,5.345,36.008,52.826,36.008,73.3l0,.022v.345c0,.135-.031.26-.036.39a40.3,40.3,0,0,1-80.59.126ZM40.34,114.727A35.035,35.035,0,0,0,71.525,95.612a19.182,19.182,0,0,1-5.964,2.09A18.033,18.033,0,0,1,45.06,86L40.34,73.349,35.615,86A17.844,17.844,0,0,1,18.438,98.029,19.194,19.194,0,0,1,9.177,95.67,35.048,35.048,0,0,0,40.34,114.727ZM6.769,70.981a31.588,31.588,0,0,0-1.5,8.6c0,.251.027.5.04.762.523,14.1,20.376,17.286,25.378,3.82L40.34,58.287,49.99,84.16c5,13.416,24.863,10.223,25.387-3.847,0-.247.031-.489.031-.735,0-19.416-35.069-70.3-35.069-70.3S13.481,48.234,6.769,70.981Zm137,22.505c0-10.936,6.917-17.447,17.525-17.447,10.559,0,17.476,6.511,17.476,17.447s-6.863,17.447-17.476,17.447S143.774,104.423,143.774,93.486Zm10.492,0c0,6.748,2.685,10.04,7.033,10.04s7.038-3.291,7.038-10.04-2.685-10.04-7.038-10.04S154.266,86.733,154.266,93.486Zm148.428,0c0-10.753,7.038-17.447,17.23-17.447,9.6,0,16.814,6.394,16.814,17.864v.717H313.016c.3,6.156,2.855,9.143,6.975,9.143,3.275,0,5.539-1.973,6.434-6.273h10.018c-1.544,8.425-7.629,13.443-16.577,13.443C309.616,110.929,302.694,104.3,302.694,93.482ZM313.37,89.3h12.939c-1.016-4.188-3.275-6.273-6.443-6.273C316.537,83.03,314.264,85.115,313.37,89.3ZM232.9,93.482c0-10.753,7.042-17.447,17.23-17.447,9.6,0,16.814,6.394,16.814,17.864v.717H243.218c.3,6.156,2.855,9.143,6.971,9.143,3.28,0,5.544-1.973,6.438-6.273h10.018c-1.544,8.425-7.633,13.443-16.577,13.443C239.813,110.929,232.9,104.3,232.9,93.482ZM243.572,89.3h12.939c-1.02-4.188-3.28-6.273-6.443-6.273C246.74,83.03,244.467,85.115,243.572,89.3Zm25.181,9.022h9.66c.716,3.879,3.28,5.852,6.913,5.852,3.758,0,5.369-1.309,5.369-3.049,0-2.744-4-3.52-8.586-4.479-6.022-1.256-13.06-2.928-13.06-10.1,0-6.094,5.606-10.452,14.613-10.452,9.235,0,15.382,4.358,16.689,11.829h-9.539c-.89-3.641-3.338-5.143-6.975-5.143-3.163,0-4.707,1.256-4.707,2.753,0,2.511,3.991,3.228,8.582,4.184,6.022,1.314,13.056,3.1,13.056,10.4,0,6.031-5.781,10.757-15.262,10.757C276.5,110.875,270.005,106.687,268.753,98.324ZM181,93.486c0-10.519,5.723-17.268,14.429-17.268a11.889,11.889,0,0,1,10.2,5.318V68.21h10.613v41.826H205.626v-4.6a11.889,11.889,0,0,1-10.2,5.318C186.664,110.754,181,104.181,181,93.486Zm10.5-.058c0,6.807,2.68,10.1,7.033,10.1,4.412,0,7.154-3.291,7.154-10.04s-2.743-10.04-7.154-10.04C194.176,83.447,191.5,86.733,191.5,93.428Zm147.886,16.613V68.21H350v41.831Zm-119.73,0V76.931H230.27v33.105Zm-89.122,0V76.931h10.617v33.105Zm-39.91,0V68.21h22.362c9.065,0,14.188,4.421,14.188,11.3a9.789,9.789,0,0,1-5.839,9.143,9.838,9.838,0,0,1,6.734,9.735c0,7.053-5.3,11.654-14.483,11.654Zm11.033-7.887H112.03c3.163,0,5.132-1.556,5.132-4.659,0-3.049-1.969-4.722-5.132-4.722H101.654Zm0-17.03h9.9c2.926,0,4.828-1.493,4.828-4.417s-1.9-4.484-4.828-4.484h-9.9Zm118-10.515V67.2H230.27V74.6Zm-89.122,0V67.2h10.617V74.6Zm19.857-11.237h10.376c.783,2.574,2.81,3.829,6.622,3.829,4.112,0,6.738-1.915,6.738-5.919v-4.6a12.015,12.015,0,0,1-10.2,5.143c-8.765,0-14.429-6.457-14.429-16.918,0-10.394,5.723-16.967,14.429-16.967a12.065,12.065,0,0,1,10.2,5.2V28.653h10.613V59.726c0,9.076-6.559,13.622-17.351,13.622C158.083,73.349,151.819,69.762,150.387,63.367ZM159.993,44.9c0,6.573,2.68,9.8,7.033,9.8,4.47,0,7.154-3.228,7.154-9.8,0-6.627-2.685-9.8-7.154-9.8C162.674,35.105,159.993,38.275,159.993,44.9Zm61.869.3c0-10.753,7.033-17.447,17.23-17.447,9.6,0,16.814,6.4,16.814,17.864v.717H232.176c.3,6.161,2.859,9.143,6.975,9.143,3.28,0,5.544-1.973,6.438-6.273h10.018c-1.548,8.425-7.633,13.443-16.577,13.443C228.776,62.65,221.863,56.018,221.863,45.2Zm10.671-4.179h12.939c-1.016-4.184-3.28-6.273-6.443-6.273C235.7,34.751,233.429,36.84,232.534,41.024ZM187.322,53.216c0-6.757,6.975-8.672,14.067-10.7,5.248-1.493,7.391-2.69,7.391-4.722,0-1.789-1.664-3.045-4.707-3.045a6.072,6.072,0,0,0-6.5,5.556h-9.664c1.078-7.408,7.575-12.492,16.577-12.492,9.481,0,14.729,4.367,14.729,12.434V61.753H208.78V58.413a13.722,13.722,0,0,1-10.2,3.946C191.729,62.359,187.322,58.709,187.322,53.216Zm16.452-5.5c-3.758,1.256-6.2,2.332-6.2,4.9,0,1.91,1.611,3.224,4.407,3.224a9.655,9.655,0,0,0,6.8-2.623V48.31l.063-2.749A20.453,20.453,0,0,1,203.774,47.714ZM136.258,61.758V19.927h10.617V61.758Zm-13.494,0L119.9,53.27H104.571l-2.8,8.484H90.621l15.5-41.826h13l15.445,41.826ZM107.019,45.8h10.434L112.267,29.85Z" transform="translate(137 55)" stroke="rgba(0,0,0,0)" stroke-miterlimit="10" stroke-width="1"/>
  </g>
</svg>
