<?xml version="1.0" encoding="UTF-8"?><svg xmlns="http://www.w3.org/2000/svg" viewBox="0 0 1742.63 626.27"><defs><style>.g{fill:#fff;}.h{fill:none;stroke:#fff;stroke-miterlimit:10;stroke-width:2px;}</style></defs><g id="a"/><g id="b"><g id="c"><g><path id="d" class="g" d="M1167.21,607.01h9.91c.57,7.16,6.91,10.56,14.52,10.56,8.4,0,14.52-4.24,14.52-10.66,0-5.84-5.4-8.15-12.4-10.02l-7.74-2.12c-10.52-2.86-17.04-8.22-17.04-17.37,0-11.33,10.07-18.88,23.21-18.88s22.57,7.63,22.86,18.17h-9.53c-.7-6.07-6.04-9.6-13.56-9.6-8.06,0-13.14,4.14-13.14,9.73-.03,6.29,6.78,8.7,11.89,10.02l6.4,1.67c8.31,2.05,18.83,6.65,18.83,18.48,0,11.14-8.86,19.26-24.23,19.26-14.68,.02-23.85-7.34-24.49-19.25Zm-114.02,0h9.91c.58,7.16,6.91,10.56,14.52,10.56,8.4,0,14.52-4.24,14.52-10.66,0-5.84-5.4-8.15-12.4-10.02l-7.74-2.12c-10.52-2.86-17.04-8.22-17.04-17.37,0-11.33,10.07-18.88,23.21-18.88s22.57,7.63,22.86,18.17h-9.53c-.7-6.07-6.04-9.6-13.55-9.6-8.06,0-13.14,4.14-13.14,9.73-.03,6.29,6.78,8.7,11.89,10.02l6.4,1.67c8.31,2.05,18.83,6.65,18.83,18.48,0,11.14-8.86,19.26-24.23,19.26-14.68,.02-23.86-7.34-24.5-19.25h0Zm-166.34-4.08v-43.5h9.88v43.34c0,9.21,7.35,14.38,16.11,14.38s16.14-5.17,16.14-14.38v-43.34h9.88v43.5c0,14.83-11.54,23.34-26.03,23.34s-25.99-8.51-25.99-23.34h0Zm-123.87-10.63c0-21.03,12.5-33.77,29.51-33.77s29.48,12.75,29.48,33.77-12.53,33.77-29.48,33.77c-17.01,0-29.51-12.78-29.51-33.78h0Zm9.82,0c0,16.02,8.4,24.71,19.7,24.71s19.69-8.7,19.69-24.71-8.44-24.71-19.69-24.71c-11.29-.01-19.7,8.69-19.7,24.71h0Zm455.84,32.88v-65.75h9.88v65.75h-9.88Zm-114.02,0v-65.75h41.05v8.54h-31.17v20.04h29.03v8.51h-29.03v20.13h31.56v8.53h-41.44Zm-84,0v-65.75h9.88v65.75h-9.88Zm-51.7,0v-65.75h9.88v57.21h29.67v8.54h-39.55Zm-143.76,0v-65.75h9.88v57.21h29.67v8.54h-39.55Zm-135.93,0v-65.75h21.87c19.28,0,30.81,12.33,30.81,32.78s-11.54,32.97-31.49,32.97h-21.19Zm9.88-8.67h10.78c14.93,0,22.32-8.73,22.32-24.31s-7.38-24.11-21.71-24.11h-11.38v48.42Zm-30.69,8.67l-5.98-17.4h-25.59l-6,17.4h-10.49l23.56-65.75h11.41l23.56,65.75h-10.48Zm-28.68-25.75h19.82l-9.66-28.06h-.51l-9.65,28.06Zm-38.79,25.75l-33.28-48.22h-.6v48.22h-9.88v-65.75h9.14l33.32,48.29h.6v-48.29h9.78v65.75h-9.08Zm-64.59,0l-5.98-17.4h-25.58l-6,17.4h-10.49l23.56-65.75h11.41l23.56,65.75h-10.49Zm-28.68-25.75h19.82l-9.66-28.06h-.51l-9.66,28.06Zm709.87-53.33c-.2-3.35,2.34-6.23,5.68-6.43,3.34-.2,6.21,2.35,6.41,5.7,.2,3.35-2.34,6.23-5.68,6.43-.12,0-.24,.01-.37,.01-3.23,.07-5.92-2.47-6.04-5.71Zm-198.02,0c-.2-3.35,2.34-6.23,5.68-6.43,3.34-.2,6.21,2.35,6.41,5.7s-2.34,6.23-5.68,6.43c-.12,0-.24,.01-.37,.01-3.23,.07-5.92-2.47-6.04-5.71h0Zm555.07-65.15v-57.96h15.81v57.57c0,10.83,8.65,17.12,19.61,17.12s19.65-6.29,19.65-17.12v-57.57h15.77v57.96c0,19.86-15.26,31.03-35.42,31.03-20.24,0-35.41-11.17-35.41-31.03Zm-891.29,3.82h15.56c.64,9.2,8.31,13.66,18.21,13.66s17.39-5.01,17.44-12.5c-.04-6.81-6.27-9.76-15.69-12.16l-9.93-2.57c-14.37-3.74-23.28-10.97-23.28-23.56-.04-15.5,13.73-25.85,32.06-25.85s31.16,10.49,31.46,25.3h-15.22c-.8-7.45-7.03-11.85-16.46-11.85-9.89,0-15.77,4.84-15.81,11.43-.08,7.32,7.67,10.36,14.84,12.07l8.18,2.05c13.13,3.12,25.62,10.06,25.66,25.26-.04,15.45-12.19,25.94-33.12,25.94-20.35,0-33.26-9.8-33.9-27.22h0Zm728.1-17.84c0-28.25,17.14-45.12,39.98-45.12,19.31,0,34.15,11.99,36.83,29.19h-16.1c-2.81-9.29-9.98-14.94-20.5-14.94-14.11,0-24.3,10.96-24.3,30.69s10.02,30.86,24.64,30.86c13.13,0,21.44-7.92,21.7-20.42h-20.13v-12.42h35.42v10.53c0,22.6-15.48,36.56-37.09,36.56-24.09,0-40.46-17.22-40.46-44.95h0Zm-94.22-.08c0-28.33,17.18-45.03,40.11-45.03s40.11,16.69,40.11,45.03-17.22,45.03-40.11,45.03-40.11-16.74-40.11-45.04h0Zm15.9,0c0,19.95,10.02,30.78,24.21,30.78s24.21-10.83,24.21-30.78-9.98-30.78-24.21-30.78c-14.19,0-24.21,10.82-24.21,30.77h0Zm172.36,43.83v-87.67h15.81v74.35h38.45v13.31h-54.26Zm-218.5,0l-41.14-59.71h-.72v59.71h-15.81v-87.67h14.15l41.09,59.76h.77v-59.76h15.73v87.67h-14.07Zm-91.87,0v-87.67h15.81v87.67h-15.81Zm-57.26,0v-74.35h-26.98v-13.31h69.66v13.31h-26.99v74.35h-15.69Zm-42.17,0l-7.25-21.62h-32.82l-7.2,21.62h-16.88l30.74-87.67h19.52l30.78,87.67h-16.88Zm-35.81-34.37h24.3l-11.8-35.31h-.68l-11.81,35.31Zm-83.26,34.37v-87.67h55.93v13.31h-40.11v23.8h36.28v13.31h-36.28v37.24h-15.82Zm-65.19,0v-87.67h15.81v87.67h-15.81Zm-35.21,0v-60.23h-.8l-24.13,59.97h-11.34l-24.14-60.1h-.8v60.35h-15.18v-87.67h19.35l25.92,63.52h1.02l25.91-63.52h19.35v87.67h-15.17Zm-110.59,0v-87.67h15.82v87.67h-15.82Zm-153.26,0v-87.67h56.78v13.31h-40.98v23.8h38.02v13.31h-38.02v23.93h41.31v13.31h-57.1Zm-32.45,0l-41.15-59.71h-.72v59.71h-15.81v-87.67h14.15l41.09,59.76h.77v-59.76h15.73v87.67h-14.06Zm-121.15,0l-41.13-59.71h-.72v59.71h-15.81v-87.67h14.15l41.09,59.76h.77v-59.76h15.73v87.67h-14.08Zm-91.87,0v-87.67h15.81v87.67h-15.81Zm-88.16,0v-87.67h30.18c26.01,0,41.78,16.44,41.78,43.75,0,27.39-15.77,43.92-42.38,43.92h-29.58Zm15.81-13.74h13c18.21,0,27.45-10.02,27.45-30.18s-9.25-30.01-26.98-30.01h-13.47v60.18Zm-50,13.74v-87.67h15.81v87.67h-15.81Zm-80.11,0v-87.67h33.41c18.93,0,28.31,9.67,28.31,22.73,0,10.66-6.73,16.65-15.26,18.66v.86c9.29,.47,18.67,8.26,18.67,21.53s-9.8,23.89-29.8,23.89h-35.33Zm15.81-13.27h17.01c11.47,0,16.24-4.88,16.24-11.85,0-7.84-6.05-13.83-15.81-13.83h-17.43v25.68Zm0-37.11h15.64c8.23,0,14.45-4.8,14.45-12.5,0-6.76-4.82-11.69-14.11-11.69h-15.99v24.19Zm-45.39,50.38l-7.25-21.62h-32.82l-7.2,21.62h-16.88l30.74-87.67h19.52l30.78,87.67h-16.87Zm-35.81-34.37h24.3l-11.8-35.31h-.69l-11.8,35.31Zm1332.21-75.89h11.47c0,4.11,2.3,7.92,8.4,7.92s8.4-3.72,8.44-7.92h11.55c0,10.01-7.72,16.78-20,16.78-12.19,0-19.91-6.76-19.87-16.78Zm-237.16,4.88c.3-4.95,4.53-8.73,9.47-8.43,4.52,.27,8.13,3.89,8.4,8.43-.33,4.95-4.6,8.7-9.53,8.37-4.47-.3-8.03-3.88-8.33-8.37Zm-283.69,0c.3-4.95,4.55-8.72,9.48-8.41,4.51,.28,8.1,3.89,8.38,8.41-.32,4.95-4.58,8.71-9.51,8.38-4.48-.29-8.05-3.88-8.35-8.38Zm-145.81,0c.3-4.95,4.53-8.73,9.47-8.43,4.52,.27,8.13,3.89,8.4,8.43-.33,4.95-4.6,8.7-9.53,8.37-4.47-.3-8.03-3.88-8.33-8.37Zm-398.71,0c.3-4.95,4.55-8.72,9.48-8.41,4.51,.28,8.1,3.89,8.38,8.41-.32,4.95-4.58,8.71-9.51,8.38-4.48-.29-8.05-3.88-8.35-8.38Zm-122.36,0c.3-4.95,4.53-8.73,9.47-8.43,4.52,.27,8.13,3.89,8.4,8.43-.33,4.95-4.6,8.7-9.53,8.37-4.47-.3-8.03-3.88-8.33-8.37Z"/><g><ellipse class="h" cx="1466.53" cy="50.49" rx="25.01" ry="25.11"/><path id="e" class="g" d="M1460.5,65.26c-7.9-3.35-11.59-12.49-8.26-20.42,1.39-3.32,3.89-6.05,7.06-7.72-5.49,3.93-6.77,11.58-2.86,17.09,2.32,3.27,6.1,5.2,10.1,5.14,6.74,.09,12.27-5.33,12.36-12.1,.05-4.02-1.86-7.81-5.12-10.14,2.46,1.31,4.53,3.25,5.99,5.63,4.49,7.34,2.2,16.93-5.1,21.44-4.27,2.63-9.54,3.03-14.16,1.08Zm6.03-23.91l-4.39,3.37,1.68-5.45-4.4-3.37h5.43l1.68-5.45,1.68,5.45h5.42l-4.39,3.37,1.68,5.45-4.39-3.37Z"/><polygon class="h" points="1 51.23 1 362.62 1741.63 362.62 1741.63 51.23 1641.6 51.23 1641.6 21.09 1537.56 21.09 1537.56 1 1397.51 1 1397.51 21.09 1291.47 21.09 1291.47 51.23 1191.43 51.23 1191.43 43.19 1251.45 43.19 1146.46 3.01 1098.75 3.01 991.36 43.19 1051.38 43.19 1051.38 125.56 691.25 125.56 691.25 43.19 751.27 43.19 646.27 3.01 598.57 3.01 491.18 43.19 551.2 43.19 551.2 51.23 451.16 51.23 451.16 21.09 347.13 21.09 347.13 1 207.07 1 207.07 21.09 101.04 21.09 101.04 51.23 1 51.23"/><polyline class="h" points="80.03 361.62 80.03 102.46 22.01 102.46 22.01 361.62"/><rect class="h" x="38.01" y="132.59" width="28.01" height="48.22"/><polyline class="h" points="66.02 156.7 52.02 156.7 52.02 132.59"/><polyline class="h" points="38.01 156.7 52.02 156.7 52.02 180.81"/><rect class="h" x="38.01" y="212.95" width="28.01" height="48.22"/><polyline class="h" points="66.02 237.06 52.02 237.06 52.02 212.95"/><polyline class="h" points="38.01 237.06 52.02 237.06 52.02 261.17"/><rect class="h" x="38.01" y="293.31" width="28.01" height="48.22"/><polyline class="h" points="66.02 317.42 52.02 317.42 52.02 293.31"/><polyline class="h" points="38.01 317.42 52.02 317.42 52.02 341.53"/><polyline class="h" points="192.07 361.62 192.07 106.47 230.08 106.47 230.08 361.62"/><polyline class="h" points="242.09 361.62 242.09 102.46 310.11 102.46 310.11 361.62"/><line class="h" x1="288.1" y1="362.62" x2="288.1" y2="107.36"/><line class="h" x1="264.1" y1="362.62" x2="264.1" y2="107.36"/><polyline class="h" points="242.09 138.62 264.1 138.62 288.1 138.62 310.11 138.62"/><polyline class="h" points="242.09 170.76 264.1 170.76 288.1 170.76 310.11 170.76"/><polyline class="h" points="242.09 202.91 264.1 202.91 288.1 202.91 310.11 202.91"/><polyline class="h" points="242.09 235.05 264.1 235.05 288.1 235.05 310.11 235.05"/><polyline class="h" points="242.09 267.19 264.1 267.19 288.1 267.19 310.11 267.19"/><polyline class="h" points="242.09 299.34 264.1 299.34 288.1 299.34 310.11 299.34"/><polyline class="h" points="242.09 331.48 264.1 331.48 288.1 331.48 310.11 331.48"/><polyline class="h" points="322.12 361.62 322.12 106.47 360.13 106.47 360.13 361.62"/><line class="h" x1="242.09" y1="106.47" x2="310.11" y2="106.47"/><polyline class="h" points="530.19 361.62 530.19 102.46 472.17 102.46 472.17 361.62"/><rect class="h" x="488.18" y="132.59" width="28.01" height="48.22"/><polyline class="h" points="516.19 156.7 502.18 156.7 502.18 132.59"/><polyline class="h" points="488.18 156.7 502.18 156.7 502.18 180.81"/><rect class="h" x="488.18" y="212.95" width="28.01" height="48.22"/><polyline class="h" points="516.19 237.06 502.18 237.06 502.18 212.95"/><polyline class="h" points="488.18 237.06 502.18 237.06 502.18 261.17"/><rect class="h" x="488.18" y="293.31" width="28.01" height="48.22"/><polyline class="h" points="516.19 317.42 502.18 317.42 502.18 293.31"/><polyline class="h" points="488.18 317.42 502.18 317.42 502.18 341.53"/><polygon class="h" points="562.2 229.02 562.2 253.13 562.2 277.24 590.21 277.24 590.21 229.02 562.2 229.02"/><polyline class="h" points="590.21 253.13 576.21 253.13 576.21 229.02"/><polyline class="h" points="576.21 277.24 576.21 253.13 562.2 253.13"/><rect class="h" x="562.2" y="148.66" width="28.01" height="48.22"/><polyline class="h" points="576.21 148.66 576.21 172.77 590.21 172.77"/><polyline class="h" points="576.21 196.88 576.21 172.77 562.2 172.77"/><rect class="h" x="612.22" y="148.66" width="28.01" height="48.22"/><polyline class="h" points="640.23 172.77 626.23 172.77 626.23 148.66"/><polyline class="h" points="612.22 172.77 626.23 172.77 626.23 196.88"/><rect class="h" x="662.24" y="148.66" width="28.01" height="48.22"/><polyline class="h" points="676.25 148.66 676.25 172.77 690.25 172.77"/><polyline class="h" points="662.24 172.77 676.25 172.77 676.25 196.88"/><rect class="h" x="712.26" y="148.66" width="28.01" height="48.22"/><polyline class="h" points="740.27 172.77 726.26 172.77 726.26 148.66"/><polyline class="h" points="712.26 172.77 726.26 172.77 726.26 196.88"/><rect class="h" x="612.22" y="229.02" width="28.01" height="48.22"/><polyline class="h" points="640.23 253.13 626.23 253.13 626.23 229.02"/><polyline class="h" points="612.22 253.13 626.23 253.13 626.23 277.24"/><rect class="h" x="662.24" y="229.02" width="28.01" height="48.22"/><polyline class="h" points="690.25 253.13 676.25 253.13 676.25 229.02"/><polyline class="h" points="662.24 253.13 676.25 253.13 676.25 277.24"/><rect class="h" x="712.26" y="229.02" width="28.01" height="48.22"/><polyline class="h" points="740.27 253.13 726.26 253.13 726.26 229.02"/><polyline class="h" points="712.26 253.13 726.26 253.13 726.26 277.24"/><rect class="h" x="562.2" y="299.34" width="28.01" height="28.13"/><rect class="h" x="662.24" y="299.34" width="28.01" height="28.13"/><rect class="h" x="712.26" y="299.34" width="28.01" height="28.13"/><polyline class="h" points="762.28 361.62 762.28 172.77 980.36 172.77 980.36 361.62"/><path class="h" d="M912.33,362.62v-120.54c0-16.09,12.99-29.13,29.01-29.13h0c16.02,0,29.01,13.04,29.01,29.13v120.54"/><path class="h" d="M842.31,362.62v-120.54c0-16.09,12.99-29.13,29.01-29.13h0c16.02,0,29.01,13.04,29.01,29.13v120.54"/><path class="h" d="M830.3,362.62v-120.54c0-16.09-12.99-29.13-29.01-29.13h0c-16.02,0-29.01,13.04-29.01,29.13v120.54"/><rect class="h" x="802.29" y="178.8" width="138.05" height="28.13"/><rect class="h" x="612.22" y="299.34" width="28.01" height="28.13"/><rect class="h" x="1002.36" y="299.34" width="28.01" height="28.13"/><rect class="h" x="1052.38" y="299.34" width="28.01" height="28.13"/><rect class="h" x="1102.4" y="299.34" width="28.01" height="28.13"/><rect class="h" x="1152.42" y="299.34" width="28.01" height="28.13"/><rect class="h" x="1002.36" y="229.02" width="28.01" height="48.22"/><polyline class="h" points="1030.37 253.13 1016.37 253.13 1016.37 229.02"/><polyline class="h" points="1002.36 253.13 1016.37 253.13 1016.37 277.24"/><rect class="h" x="1052.38" y="229.02" width="28.01" height="48.22"/><polyline class="h" points="1080.39 253.13 1066.39 253.13 1066.39 229.02"/><polyline class="h" points="1052.38 253.13 1066.39 253.13 1066.39 277.24"/><rect class="h" x="1102.4" y="229.02" width="28.01" height="48.22"/><polyline class="h" points="1130.41 253.13 1116.41 253.13 1116.41 229.02"/><polyline class="h" points="1102.4 253.13 1116.41 253.13 1116.41 277.24"/><rect class="h" x="1152.42" y="229.02" width="28.01" height="48.22"/><polyline class="h" points="1180.43 253.13 1166.42 253.13 1166.42 229.02"/><polyline class="h" points="1152.42 253.13 1166.42 253.13 1166.42 277.24"/><rect class="h" x="1002.36" y="148.66" width="28.01" height="48.22"/><polyline class="h" points="1030.37 172.77 1016.37 172.77 1016.37 148.66"/><polyline class="h" points="1002.36 172.77 1016.37 172.77 1016.37 196.88"/><rect class="h" x="1052.38" y="148.66" width="28.01" height="48.22"/><polyline class="h" points="1080.39 172.77 1066.39 172.77 1066.39 148.66"/><polyline class="h" points="1052.38 172.77 1066.39 172.77 1066.39 196.88"/><rect class="h" x="1102.4" y="148.66" width="28.01" height="48.22"/><polyline class="h" points="1130.41 172.77 1116.41 172.77 1116.41 148.66"/><polyline class="h" points="1102.4 172.77 1116.41 172.77 1116.41 196.88"/><rect class="h" x="1152.42" y="148.66" width="28.01" height="48.22"/><polyline class="h" points="1180.43 172.77 1166.42 172.77 1166.42 148.66"/><polyline class="h" points="1152.42 172.77 1166.42 172.77 1166.42 196.88"/><polyline class="h" points="1212.44 361.62 1212.44 102.46 1270.46 102.46 1270.46 361.62"/><rect class="h" x="1228.45" y="132.59" width="28.01" height="48.22"/><polyline class="h" points="1256.46 156.7 1242.45 156.7 1242.45 132.59"/><polyline class="h" points="1228.45 156.7 1242.45 156.7 1242.45 180.81"/><rect class="h" x="1228.45" y="212.95" width="28.01" height="48.22"/><polyline class="h" points="1256.46 237.06 1242.45 237.06 1242.45 212.95"/><polyline class="h" points="1228.45 237.06 1242.45 237.06 1242.45 261.17"/><rect class="h" x="1228.45" y="293.31" width="28.01" height="48.22"/><polyline class="h" points="1256.46 317.42 1242.45 317.42 1242.45 293.31"/><polyline class="h" points="1228.45 317.42 1242.45 317.42 1242.45 341.53"/><polyline class="h" points="1382.5 361.62 1382.5 106.47 1420.52 106.47 1420.52 361.62"/><polyline class="h" points="1432.52 361.62 1432.52 102.46 1500.54 102.46 1500.54 361.62"/><line class="h" x1="1454.53" y1="107.36" x2="1454.53" y2="362.62"/><line class="h" x1="1478.54" y1="362.62" x2="1478.54" y2="107.36"/><line class="h" x1="1432.52" y1="138.62" x2="1500.54" y2="138.62"/><line class="h" x1="1432.52" y1="170.76" x2="1500.54" y2="170.76"/><line class="h" x1="1432.52" y1="202.91" x2="1500.54" y2="202.91"/><line class="h" x1="1432.52" y1="235.05" x2="1500.54" y2="235.05"/><line class="h" x1="1432.52" y1="267.19" x2="1500.54" y2="267.19"/><line class="h" x1="1432.52" y1="299.34" x2="1500.54" y2="299.34"/><line class="h" x1="1432.52" y1="331.48" x2="1500.54" y2="331.48"/><line class="h" x1="1432.52" y1="106.47" x2="1500.54" y2="106.47"/><path class="h" d="M1512.55,361.62V106.47c.96-.12,38.01,0,38.01,0v255.14"/><polyline class="h" points="1662.6 361.62 1662.6 102.46 1720.62 102.46 1720.62 361.62"/><rect class="h" x="1678.61" y="293.31" width="28.01" height="48.22"/><polyline class="h" points="1706.62 317.42 1692.61 317.42 1692.61 293.31"/><polyline class="h" points="1678.61 317.42 1692.61 317.42 1692.61 341.53"/><rect class="h" x="1678.61" y="212.95" width="28.01" height="48.22"/><polyline class="h" points="1706.62 237.06 1692.61 237.06 1692.61 212.95"/><polyline class="h" points="1678.61 237.06 1692.61 237.06 1692.61 261.17"/><rect class="h" x="1678.61" y="132.59" width="28.01" height="48.22"/><polyline class="h" points="1706.62 156.7 1692.61 156.7 1692.61 132.59"/><polyline class="h" points="1678.61 156.7 1692.61 156.7 1692.61 180.81"/><ellipse class="h" cx="276.5" cy="51.15" rx="25.01" ry="25.11"/><path id="f" class="g" d="M270.46,65.93c-7.9-3.35-11.59-12.49-8.26-20.42,1.39-3.32,3.89-6.05,7.06-7.72-5.49,3.93-6.77,11.58-2.86,17.09,2.32,3.27,6.1,5.2,10.1,5.14,6.74,.09,12.27-5.33,12.36-12.1,.05-4.02-1.86-7.81-5.12-10.14,2.46,1.31,4.53,3.25,5.99,5.63,4.49,7.34,2.2,16.93-5.1,21.44-4.27,2.63-9.54,3.03-14.16,1.08Zm6.03-23.91l-4.39,3.37,1.68-5.45-4.4-3.37h5.43l1.68-5.45,1.68,5.45h5.42l-4.39,3.37,1.68,5.45-4.39-3.37Z"/></g></g></g></g></svg>