<svg xmlns="http://www.w3.org/2000/svg" xmlns:xlink="http://www.w3.org/1999/xlink" width="624" height="230" viewBox="0 0 624 230">
  <defs>
    <clipPath id="clip-path">
      <rect id="Rectangle_437" data-name="Rectangle 437" width="161.743" height="44.498" transform="translate(0 0)" fill="none"/>
    </clipPath>
    <clipPath id="clip-blogbeta">
      <rect width="624" height="230"/>
    </clipPath>
  </defs>
  <g id="blogbeta" clip-path="url(#clip-blogbeta)">
    <rect width="624" height="230" fill="#f4f4f4"/>
    <g id="Group_149" data-name="Group 149" transform="translate(231.14 92.75)">
      <g id="Group_148" data-name="Group 148" clip-path="url(#clip-path)">
        <path id="Path_1167" data-name="Path 1167" d="M.321,41.8a.336.336,0,0,1-.314-.405L9.366,3.053a.526.526,0,0,1,.495-.4H14a.316.316,0,0,1,.315.4L4.956,41.391a.527.527,0,0,1-.494.405Z"/>
        <path id="Path_1168" data-name="Path 1168" d="M29.662,35.946a8.319,8.319,0,0,1-6.7-2.925l.134,2.069a.4.4,0,0,1-.4.406h-6.03a.4.4,0,0,1-.406-.406l.135-15.343L16.251,4.4a.4.4,0,0,1,.406-.4h5.985a.4.4,0,0,1,.4.4L23,14.976a8.437,8.437,0,0,1,6.8-3.1c6.57,0,10.035,5.219,10.035,11.969,0,6.7-3.871,12.1-10.169,12.1m-1.891-4.59c3.42.09,5.176-2.565,5.176-7.245,0-5.085-1.8-7.694-5.041-7.65-3.284,0-5.039,2.43-5.084,7.2-.045,4.95,1.709,7.65,4.949,7.7"/>
        <path id="Path_1169" data-name="Path 1169" d="M42.036,35.5a.4.4,0,0,1-.4-.4l.18-15.344L41.631,4.4a.4.4,0,0,1,.4-.4h5.9a.4.4,0,0,1,.4.4l-.181,15.345.181,15.344a.4.4,0,0,1-.4.4Z"/>
        <path id="Path_1170" data-name="Path 1170" d="M62.06,36.081c-7.56,0-11.924-4.725-11.924-12.1S54.5,11.737,62.06,11.737s11.834,4.725,11.834,12.1S69.621,36.081,62.06,36.081m0-4.5c3.33,0,4.9-2.3,4.9-7.6,0-5.22-1.619-7.74-4.949-7.74-3.42.045-4.994,2.565-4.994,7.784s1.664,7.56,5.039,7.56"/>
        <path id="Path_1171" data-name="Path 1171" d="M86.99,44.5c-6.074.09-10.709-2.386-11.069-7.47a.4.4,0,0,1,.4-.405h5.805a.489.489,0,0,1,.494.405c.315,1.89,1.845,3.015,4.59,3.015,2.925,0,4.95-1.62,4.95-5.265V32.121a8.029,8.029,0,0,1-6.659,3.24c-6.885,0-10.485-5.085-10.485-11.609,0-6.481,3.869-11.745,10.169-11.745a8.394,8.394,0,0,1,6.7,2.835l-.135-2.116a.4.4,0,0,1,.406-.4h5.94a.4.4,0,0,1,.4.4l-.089,11.52.045,10.62c0,5.85-3.825,9.63-11.475,9.63m-.045-13.545c3.285,0,5.04-2.34,5.085-7.02.045-4.814-1.71-7.469-4.95-7.514-3.42-.09-5.174,2.43-5.174,7.064,0,4.995,1.8,7.515,5.039,7.47"/>
        <path id="Path_1172" data-name="Path 1172" d="M112.68,17.5h-7.647a.224.224,0,0,1-.226-.224l.125-8.524L104.807.226A.226.226,0,0,1,105.033,0h7.522c3.574,0,6.224,1.3,6.224,4.325a3.729,3.729,0,0,1-3,3.874c2.324.549,3.473,2.074,3.473,4,0,3.8-3.224,5.3-6.573,5.3m-4.1-10.447h4.024c1.474,0,2.375-.75,2.375-2.175a2.125,2.125,0,0,0-2.375-2.224h-3.924Zm.1,7.8h3.924c1.575,0,2.8-.6,2.8-2.649,0-1.85-1.275-2.5-2.8-2.5h-4.024Z" fill="#ea0000"/>
        <path id="Path_1173" data-name="Path 1173" d="M120.456,17.5a.224.224,0,0,1-.225-.225l.125-8.523L120.231.225A.224.224,0,0,1,120.456,0h11.8a.224.224,0,0,1,.225.225V2.6a.223.223,0,0,1-.225.224h-8.148l-.1,4.025h7.522a.224.224,0,0,1,.226.224V9.448a.225.225,0,0,1-.226.225h-7.522l.1,5h8.349a.223.223,0,0,1,.225.224v2.375a.224.224,0,0,1-.225.225Z" fill="#ea0000"/>
        <path id="Path_1174" data-name="Path 1174" d="M138.33,17.5a.225.225,0,0,1-.226-.225l.151-8.523-.1-5.924h-4.849a.223.223,0,0,1-.225-.224V.225A.224.224,0,0,1,133.306,0h13.546a.225.225,0,0,1,.226.225V2.6a.224.224,0,0,1-.226.224h-4.823l-.1,5.924.15,8.523a.224.224,0,0,1-.225.225Z" fill="#ea0000"/>
        <path id="Path_1175" data-name="Path 1175" d="M158.1,17.5a.35.35,0,0,1-.3-.225l-1.35-4.225H149.9l-1.3,4.225a.348.348,0,0,1-.3.225h-3.425a.153.153,0,0,1-.149-.225L150.655.225a.348.348,0,0,1,.3-.225h4.674a.353.353,0,0,1,.3.225l5.8,17.046a.155.155,0,0,1-.151.225Zm-2.6-7.474-2.4-7.473-2.276,7.473Z" fill="#ea0000"/>
      </g>
    </g>
  </g>
</svg>
