<svg xmlns="http://www.w3.org/2000/svg" xmlns:xlink="http://www.w3.org/1999/xlink" width="624" height="230" viewBox="0 0 624 230">
  <defs>
    <clipPath id="clip-path">
      <rect id="Rectangle_877" data-name="Rectangle 877" width="354.041" height="46.654" fill="none"/>
    </clipPath>
    <clipPath id="clip-blogbeta">
      <rect width="624" height="230"/>
    </clipPath>
  </defs>
  <g id="blogbeta" clip-path="url(#clip-blogbeta)">
    <rect width="624" height="230" fill="#f4f4f4"/>
    <g id="Group_262" data-name="Group 262" transform="translate(134.491 91.669)">
      <g id="Group_261" data-name="Group 261" transform="translate(0 0)" clip-path="url(#clip-path)">
        <path id="Path_1919" data-name="Path 1919" d="M15.8,46.33C5.953,46.33.713,41.408.01,32.206a.489.489,0,0,1,.511-.574H8.766a.573.573,0,0,1,.575.574c.256,4.857,2.428,7.67,6.71,7.606,3.9,0,6.582-2.812,6.711-7.541.128-5.113-2.621-7.222-9.267-7.222H12.153a.573.573,0,0,1-.575-.575V19.425a.574.574,0,0,1,.575-.576H13.5c5.879,0,8.5-2.492,8.5-6.071a5.634,5.634,0,0,0-5.624-5.944c-3.9,0-6.007,2.174-6.327,6.647a.68.68,0,0,1-.639.576H1.288a.49.49,0,0,1-.511-.576C1.352,4.981,7.1.316,16.882.316c8.692,0,14.572,4.537,14.635,11.5,0,5.368-3.131,8.243-7.35,9.65,5.433,1.406,8.5,5.049,8.5,10.481,0,9.2-7.8,14.38-16.872,14.38" transform="translate(0 0.004)"/>
        <path id="Path_1920" data-name="Path 1920" d="M43.937,45.682a.573.573,0,0,1-.575-.575l.128-17.895-.064-15.53A22.489,22.489,0,0,1,34.479,16.6a.393.393,0,0,1-.576-.383V9.957a.8.8,0,0,1,.576-.767,16.436,16.436,0,0,0,9.33-7.734A.923.923,0,0,1,44.64.945h8.053a.573.573,0,0,1,.575.576l-.192,22.368.192,21.218a.573.573,0,0,1-.575.575Z" transform="translate(0.487 0.013)"/>
        <path id="Path_1921" data-name="Path 1921" d="M78.379,26.764V45.106a.573.573,0,0,1-.575.575H70.135a.573.573,0,0,1-.575-.575l.256-21.792L69.56,1.52a.573.573,0,0,1,.575-.575H81.958a.947.947,0,0,1,.767.511L94.676,33.667,105.924,1.456a.947.947,0,0,1,.767-.511h11.056a.573.573,0,0,1,.575.575l-.256,21.794.256,21.792a.573.573,0,0,1-.575.575H109.12a.573.573,0,0,1-.575-.575V26.764l.32-10.545.064-2.044L98,45.171a.948.948,0,0,1-.767.51H90.714a.948.948,0,0,1-.767-.51L78,12.96l.064,3.386Z" transform="translate(1 0.013)"/>
        <path id="Path_1922" data-name="Path 1922" d="M144.561,45.524a.573.573,0,0,1-.575-.575l.128-3.259a12.062,12.062,0,0,1-9.714,4.473c-9.331,0-14.252-7.414-14.252-17,0-9.523,5.5-17.192,14.443-17.192a11.818,11.818,0,0,1,9.523,4.154l-.192-2.94a.573.573,0,0,1,.575-.575h8.563a.574.574,0,0,1,.576.575L153.445,29.1l.192,15.85a.573.573,0,0,1-.576.575Zm-7.477-5.752c4.665,0,7.157-3.516,7.221-10.482.064-7.031-2.428-10.865-7.03-10.928-4.858-.128-7.35,3.514-7.35,10.289,0,7.414,2.556,11.184,7.158,11.121" transform="translate(1.727 0.172)"/>
        <path id="Path_1923" data-name="Path 1923" d="M156.632,45.518a.573.573,0,0,1-.575-.575l.256-15.914-.256-15.85a.573.573,0,0,1,.575-.575h8.436a.573.573,0,0,1,.575.575l-.256,4.985c2.557-3.9,6.967-5.815,11.76-5.815a10.517,10.517,0,0,1,1.471.128.75.75,0,0,1,.575.7v5.943a.521.521,0,0,1-.575.511,7.87,7.87,0,0,0-1.215-.063c-6.773,0-11.824,3.77-11.76,11.311v14.06a.573.573,0,0,1-.575.575Z" transform="translate(2.244 0.177)"/>
        <path id="Path_1924" data-name="Path 1924" d="M201.723,44.417a.947.947,0,0,1-.511.767A18.831,18.831,0,0,1,195.2,46.27c-5.561,0-10.865-2.812-10.865-10.289l.064-16.489H180.7a.573.573,0,0,1-.575-.576V13.293a.573.573,0,0,1,.575-.575H184.4l-.064-7.669a.573.573,0,0,1,.575-.575h8.5a.572.572,0,0,1,.574.575l-.064,7.669h7.286a.573.573,0,0,1,.575.575v5.624a.573.573,0,0,1-.575.576h-7.35l.064,16.233c0,2.812,1.407,3.707,3.516,3.707a11.562,11.562,0,0,0,3.707-.575.478.478,0,0,1,.575.447Z" transform="translate(2.59 0.064)"/>
        <path id="Path_1925" data-name="Path 1925" d="M215.975,45.694a.573.573,0,0,1-.575-.575V39.43c0-17.83,22.112-16.168,22.112-25.563.192-4.282-2.109-6.838-6.263-6.774-4.027.064-6.519,3-6.711,8.437a.573.573,0,0,1-.575.574h-7.733a.573.573,0,0,1-.575-.574c0-9.715,5.24-15.338,15.594-15.4,9.969,0,15.019,5.05,15.274,13.422,0,16.552-22.05,15.593-22.05,24.157v.767h21.474a.573.573,0,0,1,.575.574v6.072a.573.573,0,0,1-.575.575Z" transform="translate(3.097 0.002)"/>
        <path id="Path_1926" data-name="Path 1926" d="M266.179,46.654c-10.736,0-17.767-8.245-17.767-23.2C248.412,7.924,255.379,0,266.179,0c10.736,0,17.831,7.734,17.831,23.455,0,14.954-7.031,23.2-17.831,23.2m.064-7.478c4.986,0,7.734-4.6,7.734-15.721s-2.748-15.977-7.8-15.977c-5.112,0-7.734,4.665-7.734,15.977,0,11.056,2.813,15.721,7.8,15.721" transform="translate(3.571 0)"/>
        <path id="Path_1927" data-name="Path 1927" d="M286.282,45.694a.573.573,0,0,1-.575-.575V39.43c0-17.83,22.112-16.168,22.112-25.563.192-4.282-2.109-6.838-6.263-6.774-4.026.064-6.519,3-6.711,8.437a.573.573,0,0,1-.575.574h-7.733a.573.573,0,0,1-.575-.574c0-9.715,5.24-15.338,15.594-15.4,9.97,0,15.018,5.05,15.273,13.422,0,16.552-22.048,15.593-22.048,24.157v.767h21.474a.572.572,0,0,1,.574.574v6.072a.573.573,0,0,1-.574.575Z" transform="translate(4.108 0.002)"/>
        <path id="Path_1928" data-name="Path 1928" d="M349.515,34.945a.573.573,0,0,1-.575.575h-4.347v9.651a.573.573,0,0,1-.574.575h-8.564a.573.573,0,0,1-.575-.575V35.52H315.451a.573.573,0,0,1-.575-.575V27.85a2.363,2.363,0,0,1,.32-1.086L331.429,1.456a1.1,1.1,0,0,1,.895-.511h11.7a.573.573,0,0,1,.574.575V28.3h4.347a.573.573,0,0,1,.575.574ZM334.88,17.05l.32-9.012L322.546,28.3H334.88Z" transform="translate(4.527 0.013)"/>
      </g>
    </g>
  </g>
</svg>
