<svg xmlns="http://www.w3.org/2000/svg" xmlns:xlink="http://www.w3.org/1999/xlink" width="624" height="230" viewBox="0 0 624 230">
  <defs>
    <clipPath id="clip-blogbeta_3">
      <rect width="624" height="230"/>
    </clipPath>
  </defs>
  <g id="blogbeta_3" data-name="blogbeta – 3" clip-path="url(#clip-blogbeta_3)">
    <rect width="624" height="230" fill="#f4f4f4"/>
    <g id="Group_263" data-name="Group 263" transform="translate(236.559 28.283)">
      <path id="Path_1929" data-name="Path 1929" d="M14.432,19.265l12.462.895,6.929-12Z" transform="translate(104.044 58.81)"/>
      <path id="Path_1930" data-name="Path 1930" d="M34.594,5.321,13.849,27.527l28.625-6.633,9-15.573Z" transform="translate(99.843 38.359)"/>
      <path id="Path_1931" data-name="Path 1931" d="M9.216,0l6.543,44.412,8.644-18.1Z" transform="translate(66.44)"/>
      <path id="Path_1932" data-name="Path 1932" d="M24.244,29.84H53.28L13.4,14.038Z" transform="translate(96.599 101.198)"/>
      <path id="Path_1933" data-name="Path 1933" d="M14.551,12.645l11.362,4.408L22.35,10.888Z" transform="translate(104.902 78.49)"/>
      <path id="Path_1934" data-name="Path 1934" d="M10.867,38.167,17.8,26.157l-7-10.344Z" transform="translate(77.807 114.002)"/>
      <path id="Path_1935" data-name="Path 1935" d="M48.454,39.8h.509L34.195,14.224l-20-1.568Z" transform="translate(102.348 91.235)"/>
      <path id="Path_1936" data-name="Path 1936" d="M18.668,5.321,12.856,17.29,33.428,5.321Z" transform="translate(92.678 38.358)"/>
      <path id="Path_1937" data-name="Path 1937" d="M11.538,16.464l5.418-5.878L13.393,4.413Z" transform="translate(83.18 31.811)"/>
      <path id="Path_1938" data-name="Path 1938" d="M14.381,22.026h6.444l-8.6-6.9Z" transform="translate(88.168 109.013)"/>
      <path id="Path_1939" data-name="Path 1939" d="M7.366,26.311l8.644,18.1L22.553,0Z" transform="translate(53.103)"/>
      <path id="Path_1940" data-name="Path 1940" d="M6.234,10.579l5.418,5.878L9.8,4.414Z" transform="translate(44.944 31.816)"/>
      <path id="Path_1941" data-name="Path 1941" d="M5.155,22.026h6.436l2.159-6.9Z" transform="translate(37.165 109.013)"/>
      <path id="Path_1942" data-name="Path 1942" d="M23.642,17.29,17.83,5.321H3.07Z" transform="translate(22.134 38.358)"/>
      <path id="Path_1943" data-name="Path 1943" d="M0,5.321,8.989,20.894l28.625,6.633L16.878,5.321Z" transform="translate(0 38.359)"/>
      <path id="Path_1944" data-name="Path 1944" d="M8.172,44.152l8.57,14.842L25.3,44.152l-8.562-28.1Z" transform="translate(58.914 115.723)"/>
      <path id="Path_1945" data-name="Path 1945" d="M2.5,17.06l11.362-4.417-7.8-1.757Z" transform="translate(17.992 78.485)"/>
      <path id="Path_1946" data-name="Path 1946" d="M1.638,8.158l6.929,12,12.453-.895Z" transform="translate(11.806 58.808)"/>
      <path id="Path_1947" data-name="Path 1947" d="M14.768,14.224,0,39.8H.5L34.758,12.656Z" transform="translate(0.001 91.237)"/>
      <path id="Path_1948" data-name="Path 1948" d="M.175,29.84H29.2l10.844-15.8Z" transform="translate(1.259 101.198)"/>
      <path id="Path_1949" data-name="Path 1949" d="M6.786,26.158l6.929,12.01.066-22.354Z" transform="translate(48.922 114.005)"/>
    </g>
  </g>
</svg>
