<?xml version="1.0" encoding="UTF-8"?>
<svg id="Layer_2" data-name="Layer 2" xmlns="http://www.w3.org/2000/svg" viewBox="0 0 30.08 10">
  <defs>
    <style>
      .cls-1 {
        fill: #ea0000;
      }
    </style>
  </defs>
  <g id="Layer_1-2" data-name="Layer 1">
    <g>
      <path class="cls-1" d="m4.7,6.34c-.43.85-1.13,1.27-2.09,1.27-.45,0-.87-.09-1.27-.27s-.72-.45-.96-.8-.36-.76-.36-1.22c0-.32.07-.63.2-.93s.32-.56.57-.8.54-.42.88-.55.7-.2,1.09-.2c.5,0,.93.1,1.31.29s.57.47.57.81c0,.16-.06.29-.18.4s-.25.17-.41.17-.26-.03-.34-.1-.13-.14-.16-.21-.06-.2-.11-.38c-.05-.18-.12-.3-.23-.37s-.26-.11-.45-.11c-.33,0-.62.12-.87.36s-.38.7-.38,1.36c0,.36.05.68.15.98s.26.53.48.71.49.26.81.26c.36,0,.63-.09.81-.26s.35-.38.5-.62l.45.21Z"/>
      <path class="cls-1" d="m10.28,6.3c0,.27-.06.51-.17.7s-.26.33-.45.43-.4.14-.64.14c-.3,0-.55-.07-.75-.21s-.32-.31-.36-.51c-.6.48-1.2.72-1.81.72-.39,0-.71-.09-.95-.28s-.37-.44-.37-.75c0-.25.07-.49.2-.69s.33-.39.58-.55.56-.3.92-.43.8-.25,1.33-.39v-.31c0-.25-.06-.46-.18-.6s-.34-.22-.67-.22c-.28,0-.48.06-.6.17s-.2.29-.24.52c-.03.17-.08.3-.16.41s-.24.16-.48.16c-.15,0-.28-.04-.4-.13s-.17-.21-.17-.38c0-.33.18-.62.54-.87s.92-.37,1.67-.37c.79,0,1.33.13,1.63.4s.44.62.44,1.07v1.7c0,.22,0,.37.02.47s.04.18.09.23.12.08.23.08c.09,0,.18-.05.25-.15s.11-.21.11-.35h.4Zm-2.47.04v-1.34c-.68.22-1.12.43-1.3.63s-.28.41-.28.61c0,.17.05.3.15.4s.24.15.43.15c.2,0,.37-.04.52-.12s.31-.19.48-.33Z"/>
      <path class="cls-1" d="m15.84,5.15c0,.44-.1.85-.31,1.23s-.49.68-.86.9-.77.33-1.23.33c-.57,0-1.06-.2-1.48-.6v1.72c0,.2.01.36.04.46s.09.18.18.23.24.08.44.08h.3v.5h-3.13v-.5c.24,0,.42-.02.53-.06s.18-.11.21-.21.05-.27.05-.5v-4.22c0-.21-.02-.36-.05-.45s-.1-.16-.2-.2-.28-.06-.53-.06v-.5l2.09-.46c.04.14.07.37.08.68.24-.24.48-.41.74-.52s.54-.16.88-.16c.36,0,.68.06.96.19s.52.3.71.52.34.46.44.74.15.56.15.85Zm-1.49-.05c0-1.1-.39-1.65-1.16-1.65-.25,0-.48.07-.69.22s-.39.32-.54.53v2.13c.14.21.32.38.55.51s.46.19.69.19c.76,0,1.15-.64,1.15-1.92Z"/>
      <path class="cls-1" d="m18.42,7.43h-3.1v-.5h.23c.21,0,.36-.03.46-.09s.15-.14.18-.24.03-.26.03-.46V1.56c0-.26-.06-.42-.18-.5s-.36-.11-.71-.11v-.5l2.28-.46v6.15c0,.2,0,.35.03.46s.08.18.17.24.25.09.46.09h.16v.5Z"/>
      <path class="cls-1" d="m23.94,6.3c0,.27-.06.51-.17.7s-.26.33-.45.43-.4.14-.64.14c-.3,0-.55-.07-.75-.21s-.32-.31-.36-.51c-.6.48-1.2.72-1.81.72-.39,0-.71-.09-.95-.28s-.37-.44-.37-.75c0-.25.07-.49.2-.69s.33-.39.58-.55.56-.3.92-.43.8-.25,1.33-.39v-.31c0-.25-.06-.46-.18-.6s-.34-.22-.67-.22c-.28,0-.48.06-.6.17s-.2.29-.24.52c-.03.17-.08.3-.16.41s-.24.16-.48.16c-.15,0-.28-.04-.4-.13s-.17-.21-.17-.38c0-.33.18-.62.54-.87s.92-.37,1.67-.37c.79,0,1.33.13,1.63.4s.44.62.44,1.07v1.7c0,.22,0,.37.02.47s.04.18.09.23.12.08.23.08c.09,0,.18-.05.25-.15s.11-.21.11-.35h.4Zm-2.47.04v-1.34c-.68.22-1.12.43-1.3.63s-.28.41-.28.61c0,.17.05.3.15.4s.24.15.43.15c.2,0,.37-.04.52-.12s.31-.19.48-.33Z"/>
      <path class="cls-1" d="m30.08,7.43h-2.79v-.5c.21,0,.36-.03.46-.08s.15-.14.17-.25.03-.29.03-.53v-1.52c0-.31-.04-.55-.13-.72s-.27-.27-.55-.27c-.38,0-.66.14-.84.43s-.28.62-.28,1v1.21c0,.28.04.48.12.58s.26.16.53.16v.5h-2.84v-.5c.23,0,.41-.02.52-.06s.18-.11.22-.22.05-.27.05-.5v-1.74c0-.25-.05-.42-.15-.49s-.31-.12-.65-.12v-.5l2.09-.46c.03.21.05.4.05.58,0,.05,0,.09,0,.12s0,.07,0,.12c.23-.24.46-.44.71-.59s.55-.23.92-.23c.31,0,.59.06.83.17s.44.28.58.51.21.5.21.82v1.81c0,.3.04.51.12.62s.29.17.62.17v.5Z"/>
    </g>
  </g>
</svg>