<?xml version="1.0" encoding="UTF-8"?>
<svg id="Layer_2" data-name="Layer 2" xmlns="http://www.w3.org/2000/svg" viewBox="0 0 59.21 11.09">
  <defs>
    <style>
      .cls-1 {
        fill: #ec2024;
      }
    </style>
  </defs>
  <g id="Layer_1-2" data-name="Layer 1">
    <g>
      <path class="cls-1" d="m7.86,10.9v-3.61H3.81l-2.51,3.61H0L7.47.19h1.46v10.72h-1.07Zm0-9.5h-.03l-3.35,4.92h3.37V1.41Z"/>
      <path class="cls-1" d="m15.97,10.9l-3.58-4.65-1.39,1.71v2.94h-1.07V.19h1.07v6.15h.03L15.94.19h1.38l-4.24,5.23,4.24,5.49h-1.35Z"/>
      <path class="cls-1" d="m21.88,2.91c0-1.1-.9-1.94-1.9-1.94-1.1,0-1.94.83-1.94,1.87,0,.91.55,1.48,2.07,1.87,2.32.59,3.1,1.79,3.1,3.24,0,1.75-1.43,3.14-3.23,3.14-1.9,0-3.27-1.27-3.3-3.19h1.07c.07,1.38.94,2.21,2.23,2.21,1.22,0,2.16-.96,2.16-2.13s-.77-1.81-2.17-2.22c-1.53-.43-3-.94-3-2.9,0-1.69,1.36-2.88,3.01-2.88s2.97,1.26,2.97,2.91h-1.07Z"/>
      <path class="cls-1" d="m23.93,2.55c0-1.38,1.1-2.55,2.49-2.55s2.49,1.14,2.49,2.49-1.07,2.52-2.49,2.52-2.49-1.13-2.49-2.46Zm4.11-.06c0-.91-.69-1.68-1.61-1.68s-1.64.77-1.64,1.71.72,1.68,1.64,1.68,1.61-.72,1.61-1.71Z"/>
      <path class="cls-1" d="m32.74,10.9v-3.58L29.02.19h1.19l3.06,6.01L36.4.19h1.17l-3.77,7.14v3.58h-1.07Z"/>
      <path class="cls-1" d="m38.58,10.9V.19h1.07v9.75h4.43v.97h-5.5Z"/>
      <path class="cls-1" d="m45.08,10.9V.19h5.86v.97h-4.79v3.85h4.63v.97h-4.63v3.95h4.79v.97h-5.86Z"/>
      <path class="cls-1" d="m57.71,10.9l-3.63-4.85h1.04c1.9,0,3.03-.97,3.03-2.43,0-1.01-.62-2.46-3.08-2.46h-2.04v9.75h-1.07V.19h3.23c2.79,0,4.04,1.65,4.04,3.46s-1.3,3.11-3.19,3.26l3.03,4h-1.35Z"/>
    </g>
  </g>
</svg>