<?xml version="1.0" encoding="UTF-8"?>
<svg id="Layer_2" data-name="Layer 2" xmlns="http://www.w3.org/2000/svg" viewBox="0 0 203.83 65.96">
  <defs>
    <style>
      .cls-1 {
        fill: #ec2024;
      }
    </style>
  </defs>
  <g id="Layer_1-2" data-name="Layer 1">
    <g>
      <polygon class="cls-1" points="0 13.74 16.1 62.03 43.97 11.78 25.13 11.78 19.63 34.94 11.78 0 0 13.74"/>
      <polygon class="cls-1" points="21.99 62.03 49.08 11.39 71.85 58.5 56.93 62.03 46.92 36.71 36.51 65.96 21.99 62.03"/>
      <polygon class="cls-1" points="122.89 59.11 149.98 8.46 172.75 55.58 157.83 59.11 147.82 33.79 137.41 63.04 122.89 59.11"/>
      <polygon class="cls-1" points="65.4 34.42 68.93 5.36 79.93 6.93 89.74 30.88 92.1 11.25 101.91 11.25 94.85 56.41 77.96 21.07 74.43 50.91 65.4 34.42"/>
      <polygon class="cls-1" points="173.52 8.92 169.26 38.52 176.49 51.92 203.83 51.92 202.49 43.96 179.16 43.96 183.83 8.92 173.52 8.92"/>
      <polygon class="cls-1" points="98.58 60.11 106.25 11.39 131.3 35.63 122.86 51.36 98.58 60.11"/>
    </g>
  </g>
</svg>