<svg xmlns="http://www.w3.org/2000/svg" xmlns:xlink="http://www.w3.org/1999/xlink" width="624" height="230" viewBox="0 0 624 230">
  <defs>
    <clipPath id="clip-path">
      <rect id="Rectangle_438" data-name="Rectangle 438" width="162.852" height="176"/>
    </clipPath>
    <clipPath id="clip-DB">
      <rect width="624" height="230"/>
    </clipPath>
  </defs>
  <g id="DB" clip-path="url(#clip-DB)">
    <rect width="624" height="230" fill="#f4f4f4"/>
    <g id="Group_157" data-name="Group 157" transform="translate(231 27)">
      <g id="Group_156" data-name="Group 156" clip-path="url(#clip-path)">
        <path id="Path_1385" data-name="Path 1385" d="M57.261,132.039v-.008a2.421,2.421,0,0,0,.295,0h.3a15.894,15.894,0,0,0,9.921-4.227,37.723,37.723,0,0,1,3.5-3.061,21.2,21.2,0,0,1,11.66-4.294h.1a76.312,76.312,0,0,1,12.24.481,5.1,5.1,0,0,0,4.334-1.979,6.583,6.583,0,0,0,.829-1.122,83.328,83.328,0,0,1,4.6-7.476l.434-.6a91.523,91.523,0,0,1,6.791-8.325l3.457-3.745a5.416,5.416,0,0,0,1.673-4.568,5.26,5.26,0,0,0-1.673-3.674l-.006.007-.12-.106a57.917,57.917,0,0,0-34.415-14.55c.364-.655.712-1.319,1.092-1.963.716-1.185,1.489-2.328,2.3-3.446.015-.013.481-.584.715-.843q.691-.8,1.433-1.547.714-.717,1.479-1.377c.138-.118.69-.551.743-.586A23.2,23.2,0,0,1,92.209,63.1c-.024,0,.733-.284.869-.345A18.6,18.6,0,0,1,95,62.208a6.5,6.5,0,0,1,.818-.149,17.555,17.555,0,0,1,2.2-.024,5.87,5.87,0,0,0,5.828-5.827,5.953,5.953,0,0,0-5.828-5.83,26.5,26.5,0,0,0-18.978,7.8,47.254,47.254,0,0,0-9.312,13.3c-.32-.581-.622-1.174-.918-1.763a.252.252,0,0,0-.019-.081c-.119-.424-.3-.84-.427-1.261-.207-.683-.359-1.374-.516-2.068-.029-.125-.05-.221-.064-.293-.038-.352-.072-.707-.091-1.059a19.14,19.14,0,0,1,.009-2.4c.016-.253.042-.506.068-.758.014-.069.032-.147.059-.264.178-.76.345-1.515.579-2.26.1-.321.246-.651.336-.981.016-.058.016-.074.024-.108.031-.059.048-.094.088-.176.3-.623.619-1.239.972-1.835.219-.373.452-.739.694-1.1l.283-.407c.125-.16.342-.428.382-.481q.423-.492.875-.961c.481-.5,1-.962,1.521-1.411.07-.061.11-.1.16-.138a.973.973,0,0,0,.107-.054c.371-.21.727-.481,1.087-.709a5.829,5.829,0,1,0-5.89-10.06A27.741,27.741,0,0,0,56.066,62.027,26.924,26.924,0,0,0,62.179,81.02l-.032.013-.087.028-15.2,32.006a13.64,13.64,0,0,0,.208,12.551,12.425,12.425,0,0,0,10.195,6.421M57,117.864,72.2,85.629h3.08l4.906.331a46.884,46.884,0,0,1,23.474,8.234,103.084,103.084,0,0,0-7.281,8.976l-.417.574a64.067,64.067,0,0,0-3.617,5.637c-2.056-.148-4.118-.218-6.168-.218q-1.8,0-3.606.073l-.3.018a32.242,32.242,0,0,0-17.849,6.618,49.616,49.616,0,0,0-4.364,3.792c-.683.6-1.75,1.457-2.814.809s-.618-1.941-.244-2.609"/>
        <path id="Path_1386" data-name="Path 1386" d="M33.261,42.992l-13.5-16.161a.777.777,0,0,1,.1-1.094l5.607-4.681c5.235-4.372,11.156-3.792,15.67,1.611,4.528,5.423,4.056,11.37-1.229,15.784L34.356,43.09a.778.778,0,0,1-1.095-.1m3.871-7.557c3.263-2.724,3.581-5.839.347-9.708s-6.326-4.081-9.579-1.364l-1.742,1.455a.778.778,0,0,0-.1,1.095L34.3,36.785a.778.778,0,0,0,1.095.1Z"/>
        <path id="Path_1387" data-name="Path 1387" d="M40.947,10.167,53.48,4.7a.776.776,0,0,1,1.023.4l.954,2.187a.777.777,0,0,1-.4,1.022L46.9,11.867a.777.777,0,0,0-.4,1.023L48.033,16.4a.777.777,0,0,0,1.023.4l7.435-3.246a.778.778,0,0,1,1.023.4l.954,2.186a.777.777,0,0,1-.4,1.023L50.633,20.41a.778.778,0,0,0-.4,1.023l1.538,3.522a.776.776,0,0,0,1.022.4l8.194-3.575a.778.778,0,0,1,1.023.4l.954,2.186a.777.777,0,0,1-.4,1.023L49.988,30.879a.776.776,0,0,1-1.023-.4L40.546,11.19a.777.777,0,0,1,.4-1.023"/>
        <path id="Path_1388" data-name="Path 1388" d="M62.9,2.731a.776.776,0,0,1,.677-.865L71.653.881c5.1-.621,8.392,1.889,8.935,6.351a6.546,6.546,0,0,1-2.513,6.425.787.787,0,0,0-.206,1.1l4.6,6.423A.777.777,0,0,1,81.93,22.4l-3.477.423a.774.774,0,0,1-.729-.325L73.04,15.824a.777.777,0,0,0-.73-.324l-2.228.271a.776.776,0,0,0-.677.865l.781,6.411a.776.776,0,0,1-.677.865l-3.2.391a.776.776,0,0,1-.865-.677Zm9.172,8.928c2.716-.33,3.906-1.609,3.634-3.834s-1.747-3.289-4.484-2.953l-2.428.293a.778.778,0,0,0-.678.866l.641,5.249a.777.777,0,0,0,.865.678Z"/>
        <path id="Path_1389" data-name="Path 1389" d="M95.845,5.278c-2.307-.4-3.765.427-4.02,1.863-.314,1.6,1.184,2.6,3.043,3.386l1.918.831c3.722,1.551,6.172,4.015,5.531,7.728-.728,4.08-4.385,6.117-9.83,5.161-5.089-.894-8.058-3.692-7.784-8.054a.78.78,0,0,1,.916-.694l3.081.541a.8.8,0,0,1,.637.783c.107,1.876,1.592,3.077,3.792,3.463,2.394.422,4.135-.419,4.433-2.048.254-1.5-.975-2.438-3.3-3.453l-2.322-1.037c-3.608-1.563-5.594-3.853-5.006-7.14.691-4.052,4.746-6.122,9.635-5.264,4.612.811,7.343,3.732,7.2,7.34a.764.764,0,0,1-.908.689L99.8,8.835a.815.815,0,0,1-.642-.75c-.171-1.445-1.338-2.46-3.312-2.807"/>
        <path id="Path_1390" data-name="Path 1390" d="M106.693,28.2,103.7,26.984a.777.777,0,0,1-.428-1.012L111.19,6.449a.777.777,0,0,1,1.012-.428l2.993,1.214a.778.778,0,0,1,.428,1.012L107.705,27.77a.777.777,0,0,1-1.012.428m6.384-26.756A2.475,2.475,0,0,1,116.325.2a2.479,2.479,0,0,1,1.472,3.16,2.481,2.481,0,0,1-3.261,1.252,2.478,2.478,0,0,1-1.459-3.166"/>
        <path id="Path_1391" data-name="Path 1391" d="M128.452,14.007a.778.778,0,0,1,.272.822L124.461,30.16l.21.162,13.8-7.93a.778.778,0,0,1,.864.06l3.637,2.823a.778.778,0,0,1,.137,1.091L130.178,43.015a.777.777,0,0,1-1.09.137l-2.439-1.893a.777.777,0,0,1-.137-1.09l8.558-11.024-.149-.113-13.14,7.69a.777.777,0,0,1-.869-.057l-1.665-1.293a.778.778,0,0,1-.27-.829l4.228-14.677-.148-.114-8.591,11.064a.777.777,0,0,1-1.09.137l-2.439-1.893a.777.777,0,0,1-.137-1.09l12.926-16.649a.778.778,0,0,1,1.091-.137Z"/>
        <path id="Path_1392" data-name="Path 1392" d="M18.5,113.6a.776.776,0,0,1,1.064.272l4.215,7.121c2.54,4.292,1.751,7.684-1.164,9.41a4.83,4.83,0,0,1-6.26-1.041l-.192.112a5.231,5.231,0,0,1-2.189,7.068c-3.1,1.832-6.753.855-9.338-3.513L.109,125.381a.775.775,0,0,1,.273-1.064Zm-11,16.591c1.362,2.3,2.912,2.73,4.373,1.863,1.606-.949,2.022-2.848.85-4.826l-1.642-2.776a.777.777,0,0,0-1.064-.274l-3.832,2.265A.778.778,0,0,0,5.9,127.5Zm7.772-5.008c.994,1.681,2.667,2.384,4.2,1.474,1.406-.831,1.734-2.424.655-4.247L18.67,119.95a.777.777,0,0,0-1.064-.273l-3.479,2.058a.778.778,0,0,0-.273,1.065Z"/>
        <path id="Path_1393" data-name="Path 1393" d="M29.361,129.417l9.761,9.56a.777.777,0,0,1,.012,1.1l-1.667,1.7a.778.778,0,0,1-1.1.011l-6.351-6.221a.777.777,0,0,0-1.1.011l-2.68,2.735a.778.778,0,0,0,.011,1.1l5.793,5.673a.778.778,0,0,1,.011,1.1l-1.667,1.7a.776.776,0,0,1-1.1.012L23.5,142.227a.778.778,0,0,0-1.1.011l-2.686,2.743a.777.777,0,0,0,.012,1.1l6.383,6.252a.777.777,0,0,1,.011,1.1l-1.667,1.7a.777.777,0,0,1-1.1.012l-9.8-9.6a.775.775,0,0,1-.011-1.1l14.717-15.024a.778.778,0,0,1,1.1-.011"/>
        <path id="Path_1394" data-name="Path 1394" d="M41.874,140.955l2.778,1.648a.777.777,0,0,1,.272,1.065L36.185,158.4a.776.776,0,0,0,.272,1.065l7.006,4.155a.777.777,0,0,1,.272,1.064l-1.219,2.057a.777.777,0,0,1-1.065.272l-11.118-6.6a.776.776,0,0,1-.272-1.064l10.748-18.122a.777.777,0,0,1,1.065-.272"/>
        <path id="Path_1395" data-name="Path 1395" d="M55.382,148.556,68.5,152.5a.776.776,0,0,1,.52.968l-.69,2.289a.778.778,0,0,1-.967.52l-8.533-2.566a.777.777,0,0,0-.967.52l-1.108,3.674a.777.777,0,0,0,.52.968l7.783,2.343a.778.778,0,0,1,.52.968l-.689,2.289a.778.778,0,0,1-.968.52l-7.782-2.341a.777.777,0,0,0-.968.52l-1.109,3.687a.777.777,0,0,0,.52.968l8.577,2.58a.777.777,0,0,1,.52.967l-.689,2.289a.776.776,0,0,1-.968.52l-13.158-3.957a.776.776,0,0,1-.52-.968l6.072-20.184a.777.777,0,0,1,.968-.52"/>
        <path id="Path_1396" data-name="Path 1396" d="M70.5,175.076l.381-21.052a.776.776,0,0,1,.791-.762l7.3.132c6.823.123,10.92,4.437,10.791,11.48-.127,7.064-4.378,11.25-11.266,11.123l-7.237-.13a.777.777,0,0,1-.763-.791m7.877-3.176c4.249.076,6.529-2.07,6.62-7.113.091-5.022-2.111-7.228-6.351-7.3l-2.269-.042a.777.777,0,0,0-.791.763l-.232,12.861a.776.776,0,0,0,.762.791Z"/>
        <path id="Path_1397" data-name="Path 1397" d="M90.5,148.277a2.547,2.547,0,1,1,2.933,1.876,2.47,2.47,0,0,1-2.933-1.876m9.055,25.93-3.166.592a.777.777,0,0,1-.906-.62l-3.869-20.673a.777.777,0,0,1,.621-.906l3.166-.593a.776.776,0,0,1,.906.621l3.869,20.672a.777.777,0,0,1-.621.907"/>
        <path id="Path_1398" data-name="Path 1398" d="M101.619,150.593a.778.778,0,0,1,.792.122l8.1,6.746.2-.084,1.026-10.494a.778.778,0,0,1,.478-.644l3.289-1.349a.777.777,0,0,1,1.066.815l-1.889,15.123a.784.784,0,0,0,.053.392l2.66,6.484a.777.777,0,0,1-.424,1.014l-2.952,1.211a.777.777,0,0,1-1.013-.424l-2.663-6.483a.77.77,0,0,0-.237-.315L98.146,153.27a.777.777,0,0,1,.186-1.329Z"/>
        <path id="Path_1399" data-name="Path 1399" d="M117.586,143.336l10.718-8.475a.777.777,0,0,1,1.092.128l1.478,1.87a.778.778,0,0,1-.128,1.092l-6.972,5.512a.776.776,0,0,0-.128,1.091l2.373,3a.778.778,0,0,0,1.092.128l6.359-5.027a.777.777,0,0,1,1.091.127l1.479,1.87a.776.776,0,0,1-.127,1.091l-6.361,5.027a.776.776,0,0,0-.127,1.091l2.382,3.012A.777.777,0,0,0,132.9,155l7.008-5.541a.776.776,0,0,1,1.091.128l1.478,1.871a.777.777,0,0,1-.127,1.091l-10.755,8.5a.776.776,0,0,1-1.091-.128l-13.044-16.5a.776.776,0,0,1,.128-1.091"/>
        <path id="Path_1400" data-name="Path 1400" d="M138.218,128.722c-1.408,1.868-1.328,3.543-.167,4.42,1.275,1,2.847.129,4.391-1.167l1.607-1.33c3.071-2.6,6.372-3.668,9.382-1.413,3.3,2.5,3.453,6.677.133,11.08-3.106,4.121-6.94,5.492-10.694,3.271a.779.779,0,0,1-.2-1.131l1.878-2.492a.8.8,0,0,1,.987-.212c1.716.754,3.457-.022,4.8-1.8,1.46-1.937,1.506-3.866.189-4.872-1.221-.906-2.61-.239-4.565,1.368l-1.975,1.592c-3.03,2.5-5.968,3.226-8.622,1.212-3.291-2.455-3.291-7-.311-10.955,2.812-3.73,6.643-4.832,9.783-3.076a.774.774,0,0,1,.206,1.134l-1.862,2.47a.817.817,0,0,1-.961.231c-1.361-.5-2.792.075-4,1.671"/>
        <path id="Path_1401" data-name="Path 1401" d="M136.564,116.157a2.55,2.55,0,1,1,3.261-1.222,2.473,2.473,0,0,1-3.261,1.222m26.208,8.324-1.428,2.893a.776.776,0,0,1-1.04.353L141.419,118.4a.776.776,0,0,1-.353-1.04l1.428-2.894a.776.776,0,0,1,1.04-.353l18.885,9.323a.776.776,0,0,1,.353,1.04"/>
        <path id="Path_1402" data-name="Path 1402" d="M9.556,74.512A3.885,3.885,0,1,0,13.441,78.4a3.885,3.885,0,0,0-3.885-3.885"/>
        <path id="Path_1403" data-name="Path 1403" d="M153.3,74.512a3.885,3.885,0,1,0,3.885,3.885,3.885,3.885,0,0,0-3.885-3.885"/>
      </g>
    </g>
  </g>
</svg>
