<svg xmlns="http://www.w3.org/2000/svg" xmlns:xlink="http://www.w3.org/1999/xlink" width="624" height="230" viewBox="0 0 624 230">
  <defs>
    <clipPath id="clip-DD">
      <rect width="624" height="230"/>
    </clipPath>
  </defs>
  <g id="DD" clip-path="url(#clip-DD)">
    <rect width="624" height="230" fill="#f4f4f4"/>
    <path id="Path_1366" data-name="Path 1366" d="M155.423,16.064H100.8L93.924,29.808A53.864,53.864,0,0,0,45.782,0H0V176H112.709V105.218l44.577-89.155Z" transform="translate(256 27)"/>
    <path id="Path_1367" data-name="Path 1367" d="M11.409,102.973V11.409h37.75a45.782,45.782,0,1,1,0,91.564Z" transform="translate(252.623 23.623)" fill="#f4f4f4"/>
    <path id="Path_1368" data-name="Path 1368" d="M51.524,99.714H19.4V19.4H51.524a40.16,40.16,0,1,1,0,80.319" transform="translate(250.259 21.259)"/>
    <path id="Path_1369" data-name="Path 1369" d="M95.441,109.727,75.627,50.291h35.95l3.415,10.244,13.154-26.308h36.668l-37.75,75.5Z" transform="translate(233.614 16.869)" fill="#f4f4f4"/>
    <path id="Path_1370" data-name="Path 1370" d="M134.9,42.213l-17.67,35.341-6.425-19.277H86.71l16.064,48.192h24.1L159,42.213Z" transform="translate(230.334 14.505)"/>
    <path id="Path_1371" data-name="Path 1371" d="M18.778,149.458H11.409v27.316h7.512c4.456,0,7.079-2.085,7.079-6.613V156.683c0-4.817-2.479-7.225-7.222-7.225M20.286,170.3c0,1.438-.719,2.013-2.12,2.013H17.123v-18.4h1.043c1.618,0,2.12.682,2.12,2.625Z" transform="translate(253.043 -17.24)" fill="#f4f4f4"/>
    <path id="Path_1372" data-name="Path 1372" d="M41.344,164.8h5.212v-4.527H41.344v-6.362h6.145v-4.457H35.629v27.315H47.562v-4.493H41.344Z" transform="translate(245.454 -17.24)" fill="#f4f4f4"/>
    <path id="Path_1373" data-name="Path 1373" d="M63.455,170.592h-.217l-2.765-21.133H54.863l4.423,27.315h7.476l4.2-27.315H65.648Z" transform="translate(239.76 -17.24)" fill="#f4f4f4"/>
    <path id="Path_1374" data-name="Path 1374" d="M94,169.873c0-3.557-.609-5.463-3.594-6.11v-.108c3.055-1.007,3.989-3.378,3.989-7.224,0-4.492-2.371-6.973-6.468-6.973h-7.98v27.316h5.714V166.1h.755c1.331,0,1.906,1.043,2.05,4.062.07,1.653.107,2.66.177,5.1a2.933,2.933,0,0,0,.4,1.51h5.5A14.571,14.571,0,0,1,94,171.922Zm-7.259-8.3H85.658v-7.656h1.15c1.187,0,1.979.719,1.979,3.487,0,3.054-.575,4.169-2.049,4.169" transform="translate(232.336 -17.24)" fill="#f4f4f4"/>
    <path id="Path_1375" data-name="Path 1375" d="M107.488,149.459l-4.53,27.315h4.888l.4-3.414h4.133l.432,3.414h5.823l-4.6-27.315Zm1.221,19.444,1.438-11.933h.217L111.73,168.9Z" transform="translate(225.524 -17.24)" fill="#f4f4f4"/>
    <path id="Path_1376" data-name="Path 1376" d="M137.423,149.458v12.723h-.251l-4.132-12.723H127.5v27.315h5.032V162.038h.251l4.637,14.735h5V149.458Z" transform="translate(218.259 -17.24)" fill="#f4f4f4"/>
    <path id="Path_1377" data-name="Path 1377" d="M18.822,199.556H11.41v27.481h7.557c4.484,0,7.122-2.1,7.122-6.654V206.825c0-4.846-2.493-7.269-7.267-7.269m1.518,20.972c0,1.446-.723,2.025-2.132,2.025h-1.05V204.04h1.05c1.628,0,2.132.686,2.132,2.64Z" transform="translate(253.043 -32.069)" fill="#f4f4f4"/>
    <path id="Path_1378" data-name="Path 1378" d="M41.327,215H46.57V210.44H41.327v-6.4h6.183v-4.484H35.578v27.481h12v-4.52H41.327Z" transform="translate(245.469 -32.069)" fill="#f4f4f4"/>
    <path id="Path_1379" data-name="Path 1379" d="M63.438,220.818h-.218l-2.782-21.261H54.794l4.449,27.48h7.521l4.229-27.48H65.644Z" transform="translate(239.781 -32.069)" fill="#f4f4f4"/>
    <path id="Path_1380" data-name="Path 1380" d="M94.215,209.012a23.89,23.89,0,0,0,.216-3.29c0-3.761-2.2-6.834-6.906-6.834a6.851,6.851,0,0,0-7.195,6.871v.253c0,3.074,1.59,5.388,4.483,8.136,2.893,2.784,3.832,4.158,3.832,6.146v.4a2.031,2.031,0,0,1-1.915,2.279c-1.231,0-2.1-.652-2.1-2.929a14.879,14.879,0,0,1,.181-2.64l-4.3-.289a17.842,17.842,0,0,0-.253,3.326c0,4.413,2.425,6.834,6.834,6.834,4.158,0,7.269-2.784,7.269-7.124v-.47c0-3.543-2.1-6.544-5.1-9.221-2.422-2.169-3.219-3.471-3.219-4.989v-.181A1.806,1.806,0,0,1,88,203.227c1.265,0,2.206.543,2.206,2.893a16.3,16.3,0,0,1-.218,2.6Z" transform="translate(232.244 -31.871)" fill="#f4f4f4"/>
    <path id="Path_1381" data-name="Path 1381" d="M107.512,199.557l-4.555,27.48h4.917l.4-3.434h4.158l.434,3.434h5.857l-4.628-27.48Zm1.231,19.562,1.446-12h.216l1.373,12Z" transform="translate(225.525 -32.069)" fill="#f4f4f4"/>
    <path id="Path_1382" data-name="Path 1382" d="M137.355,199.556v12.8H137.1l-4.161-12.8h-5.567v27.481h5.062V212.212h.253l4.665,14.826h5.026V199.556Z" transform="translate(218.297 -32.069)" fill="#f4f4f4"/>
    <path id="Path_1383" data-name="Path 1383" d="M168.765,229.955H167.59V235.7h-1.447v-5.749h-1.166v-1.121h3.788Z" transform="translate(207.167 -40.735)"/>
    <path id="Path_1384" data-name="Path 1384" d="M176.29,235.7h-1.437v-3.742h-.046l-.75,3.742h-.9l-.769-3.715h-.054V235.7h-1.257v-6.87H172.9l.75,3.959h.046l.813-3.959h1.781Z" transform="translate(205.362 -40.735)"/>
  </g>
</svg>
