<svg xmlns="http://www.w3.org/2000/svg" xmlns:xlink="http://www.w3.org/1999/xlink" width="624" height="230" viewBox="0 0 624 230">
  <defs>
    <clipPath id="clip-JNF">
      <rect width="624" height="230"/>
    </clipPath>
  </defs>
  <g id="JNF" clip-path="url(#clip-JNF)">
    <rect width="624" height="230" fill="#f4f4f4"/>
    <g id="Group_241" data-name="Group 241">
      <path id="Path_1652" data-name="Path 1652" d="M51.295,0,0,18.591V68.484l51.3,18.595,51.3-18.595V18.591Z" transform="translate(137 71.46)"/>
      <path id="Path_1653" data-name="Path 1653" d="M1,18.452V63.67L48.965,81.059,96.927,63.67V18.452L48.965,1.063Z" transform="translate(139.331 73.937)" fill="#f4f4f4"/>
      <path id="Path_1654" data-name="Path 1654" d="M40.46,27.921A7.8,7.8,0,0,0,45.8,26.309q1.808-1.6,1.808-5.564V5.693H41.9V21.544a3.6,3.6,0,0,1-.416,2.088,1.341,1.341,0,0,1-2.115,0,3.661,3.661,0,0,1-.413-2.088V20.468H33.807v.463a7.776,7.776,0,0,0,1.535,5.211q1.533,1.778,5.118,1.778" transform="translate(215.771 84.725)"/>
      <path id="Path_1655" data-name="Path 1655" d="M51.878,22.925H44.336V18.57h6.806V14.091H44.336v-3.74H51.6V5.693H38.632V27.584H51.878Z" transform="translate(227.013 84.725)"/>
      <path id="Path_1656" data-name="Path 1656" d="M61.168,5.693,59.633,20.838h-.06L57.335,5.693H52.184L50.129,20.838h-.06L48.351,5.693H42.83l3.74,21.891h6.257l1.9-14.715h.063l1.9,14.715h6.257l3.74-21.891Z" transform="translate(236.795 84.725)"/>
      <rect id="Rectangle_558" data-name="Rectangle 558" width="5.704" height="21.891" transform="translate(304.613 90.416)"/>
      <path id="Path_1657" data-name="Path 1657" d="M67.017,18.334a6.22,6.22,0,0,0-1.732-2.008,10.086,10.086,0,0,0-2.238-1.242c-.8-.316-1.545-.629-2.241-.932a6.478,6.478,0,0,1-1.732-1.089,2.2,2.2,0,0,1-.689-1.7,2.249,2.249,0,0,1,.43-1.335,1.552,1.552,0,0,1,1.349-.6,1.331,1.331,0,0,1,1.229.689,3.329,3.329,0,0,1,.4,1.672v.523h5.335q0-3.526-1.672-5.135T60.04,5.563q-3.621,0-5.395,1.748A6.809,6.809,0,0,0,52.864,12.4a6.4,6.4,0,0,0,.663,3.127,5.853,5.853,0,0,0,1.655,1.935,9.624,9.624,0,0,0,2.161,1.2c.776.306,1.5.606,2.161.906a5.729,5.729,0,0,1,1.655,1.072,2.24,2.24,0,0,1,.659,1.7,2.356,2.356,0,0,1-.476,1.5,1.62,1.62,0,0,1-1.362.613,1.75,1.75,0,0,1-1.349-.566,2.911,2.911,0,0,1-.523-1.978v-.519H52.591v.766a7.454,7.454,0,0,0,.49,2.88,4.538,4.538,0,0,0,1.425,1.885,5.625,5.625,0,0,0,2.3,1.016,15.444,15.444,0,0,0,3.14.29,9.131,9.131,0,0,0,5.768-1.578q1.993-1.578,1.991-5.075a6.657,6.657,0,0,0-.689-3.237" transform="translate(259.538 84.422)"/>
      <path id="Path_1658" data-name="Path 1658" d="M63.442,18.57h3.493v9.014h5.708V5.693H66.935v8.032H63.442V5.693h-5.7V27.584h5.7Z" transform="translate(271.531 84.725)"/>
      <path id="Path_1659" data-name="Path 1659" d="M70.752,14.064h.063l3.8,13.52h6.257V5.693H75.537v13.49h-.063l-3.68-13.49H65.417V27.584h5.335Z" transform="translate(289.423 84.725)"/>
      <path id="Path_1660" data-name="Path 1660" d="M76.932,23.754h4.539l.583,3.833h6.071L82.79,5.692H75.613L70.372,27.587h5.977ZM79.17,10.171h.063L80.8,19.461h-3.19Z" transform="translate(300.968 84.723)"/>
      <path id="Path_1661" data-name="Path 1661" d="M79.309,27.584h5.7V10.535h4.292V5.693H75.077v4.842h4.232Z" transform="translate(311.929 84.725)"/>
      <rect id="Rectangle_559" data-name="Rectangle 559" width="5.704" height="21.891" transform="translate(402.305 90.416)"/>
      <path id="Path_1662" data-name="Path 1662" d="M83.654,25.69a5.065,5.065,0,0,0,2.421,1.948,11.908,11.908,0,0,0,7.359,0,5.081,5.081,0,0,0,2.421-1.948,9.252,9.252,0,0,0,1.319-3.523,29.335,29.335,0,0,0,.4-5.231,29.255,29.255,0,0,0-.4-5.225,9.33,9.33,0,0,0-1.319-3.53A5.374,5.374,0,0,0,93.434,6.19a11.127,11.127,0,0,0-7.359,0,5.357,5.357,0,0,0-2.421,1.991,9.275,9.275,0,0,0-1.319,3.53,29.256,29.256,0,0,0-.4,5.225,29.336,29.336,0,0,0,.4,5.231,9.2,9.2,0,0,0,1.319,3.523m4.229-12.414a13.611,13.611,0,0,1,.26-2.314,2.225,2.225,0,0,1,.586-1.2,1.71,1.71,0,0,1,2.055,0,2.248,2.248,0,0,1,.579,1.2,13.225,13.225,0,0,1,.263,2.314c.04.972.06,2.188.06,3.66s-.02,2.694-.06,3.666a13.225,13.225,0,0,1-.263,2.314,2.248,2.248,0,0,1-.579,1.2,1.737,1.737,0,0,1-2.055,0,2.225,2.225,0,0,1-.586-1.2,13.611,13.611,0,0,1-.26-2.314c-.04-.972-.06-2.191-.06-3.666s.02-2.687.06-3.66" transform="translate(327.912 84.425)"/>
      <path id="Path_1663" data-name="Path 1663" d="M97.369,19.182h-.063l-3.68-13.49H87.249V27.587h5.335V14.064h.063l3.8,13.523H102.7V5.692H97.369Z" transform="translate(340.291 84.724)"/>
      <path id="Path_1664" data-name="Path 1664" d="M97.445,5.692,92.2,27.587h5.977l.583-3.836H103.3l.583,3.836h6.071L104.622,5.692ZM99.44,19.461,101,10.171h.063l1.565,9.291Z" transform="translate(351.836 84.723)"/>
      <path id="Path_1665" data-name="Path 1665" d="M103.524,22.925V5.693h-5.7V27.584h12.727V22.925Z" transform="translate(364.92 84.725)"/>
      <path id="Path_1666" data-name="Path 1666" d="M34.2,35.594h5.7V26.579h6.806V22.1H39.907v-3.74h7.266V13.7H34.2Z" transform="translate(216.694 103.387)"/>
      <path id="Path_1667" data-name="Path 1667" d="M47.7,29.493a3.475,3.475,0,0,1-.46,2.135,1.749,1.749,0,0,1-2.514,0,3.475,3.475,0,0,1-.46-2.135V13.7h-5.7V28.051a12.772,12.772,0,0,0,.49,3.833,5.943,5.943,0,0,0,1.429,2.454A4.9,4.9,0,0,0,42.8,35.6a15.367,15.367,0,0,0,6.364,0,4.883,4.883,0,0,0,2.314-1.259,5.9,5.9,0,0,0,1.425-2.454,12.657,12.657,0,0,0,.493-3.833V13.7H47.7Z" transform="translate(226.841 103.386)"/>
      <path id="Path_1668" data-name="Path 1668" d="M53.871,27.191h-.063L50.128,13.7H43.751V35.6h5.335V22.073h.063l3.8,13.523h6.257V13.7H53.871Z" transform="translate(238.942 103.385)"/>
      <path id="Path_1669" data-name="Path 1669" d="M63.415,17.029a5.632,5.632,0,0,0-2.071-2.421,6.977,6.977,0,0,0-3.863-.906H49.2V35.593h8.278a7.005,7.005,0,0,0,3.863-.906,5.594,5.594,0,0,0,2.071-2.421,10.35,10.35,0,0,0,.842-3.493c.1-1.322.153-2.694.153-4.126s-.05-2.807-.153-4.123a10.369,10.369,0,0,0-.842-3.5M58.447,28.2a7.869,7.869,0,0,1-.336,2.088,1.583,1.583,0,0,1-.753.966,3.145,3.145,0,0,1-1.319.23H54.907V17.811h1.132a3.093,3.093,0,0,1,1.319.23,1.583,1.583,0,0,1,.753.966,7.845,7.845,0,0,1,.336,2.088q.075,1.344.077,3.553T58.447,28.2" transform="translate(251.644 103.386)"/>
      <path id="Path_1670" data-name="Path 1670" d="M78.16,29.684a7.8,7.8,0,0,1-.26,1.638,1.7,1.7,0,0,1-.523.879,1.356,1.356,0,0,1-.856.256,1.513,1.513,0,0,1-1.029-.336,2.237,2.237,0,0,1-.583-1.2,13,13,0,0,1-.26-2.314c-.04-.972-.063-2.191-.063-3.666s.023-2.691.063-3.66a13,13,0,0,1,.26-2.318,2.25,2.25,0,0,1,.583-1.2,1.5,1.5,0,0,1,1.029-.34,1.27,1.27,0,0,1,1.2.676,5.993,5.993,0,0,1,.366,2.544v1.229h5.521V20.5a10.008,10.008,0,0,0-.383-2.867,5.43,5.43,0,0,0-1.229-2.174,5.505,5.505,0,0,0-2.191-1.4,9.67,9.67,0,0,0-3.28-.49,10.146,10.146,0,0,0-3.713.6,5.16,5.16,0,0,0-2.421,1.948,8.987,8.987,0,0,0-1.305,3.523,31.491,31.491,0,0,0-.383,5.3,36.389,36.389,0,0,0,.323,5.228A9.057,9.057,0,0,0,70.205,33.7,4.723,4.723,0,0,0,72.6,35.645a11.088,11.088,0,0,0,3.926.586,12.5,12.5,0,0,0,2.681-.29,5.48,5.48,0,0,0,2.318-1.136,6,6,0,0,0,1.625-2.314,9.957,9.957,0,0,0,.609-3.773V27.094H78.237q0,1.563-.077,2.591" transform="translate(297.072 103.088)"/>
      <path id="Path_1671" data-name="Path 1671" d="M78.583,13.7,73.342,35.6h5.977l.583-3.836h4.539l.583,3.836h6.071L85.76,13.7Zm1.995,13.769,1.562-9.291H82.2l1.565,9.291Z" transform="translate(307.888 103.386)"/>
      <path id="Path_1672" data-name="Path 1672" d="M89.078,27.191h-.063L85.335,13.7H78.958V35.6h5.335V22.073h.063l3.8,13.523h6.257V13.7H89.078Z" transform="translate(320.973 103.385)"/>
      <path id="Path_1673" data-name="Path 1673" d="M89.154,13.7,83.913,35.6H89.89l.579-3.836h4.542l.583,3.836h6.067L96.331,13.7Zm1.995,13.769,1.562-9.291h.063l1.565,9.291Z" transform="translate(332.518 103.386)"/>
      <path id="Path_1674" data-name="Path 1674" d="M103.741,17.029a5.632,5.632,0,0,0-2.071-2.421,6.977,6.977,0,0,0-3.863-.906H89.529V35.593h8.278a7.006,7.006,0,0,0,3.863-.906,5.594,5.594,0,0,0,2.071-2.421,10.35,10.35,0,0,0,.842-3.493c.1-1.322.153-2.694.153-4.126s-.05-2.807-.153-4.123a10.37,10.37,0,0,0-.842-3.5M98.773,28.2a7.87,7.87,0,0,1-.336,2.088,1.571,1.571,0,0,1-.753.966,3.145,3.145,0,0,1-1.319.23H95.233V17.811h1.132a3.093,3.093,0,0,1,1.319.23,1.571,1.571,0,0,1,.753.966,7.845,7.845,0,0,1,.336,2.088q.075,1.344.077,3.553T98.773,28.2" transform="translate(345.603 103.386)"/>
      <path id="Path_1675" data-name="Path 1675" d="M99.393,13.7,94.152,35.6h5.977l.583-3.836h4.539l.583,3.836H111.9L106.57,13.7Zm1.995,13.769,1.562-9.291h.063l1.565,9.291Z" transform="translate(356.375 103.386)"/>
      <path id="Path_1676" data-name="Path 1676" d="M48.964,68.892,1,51.506V6.284L48.964,22.272Z" transform="translate(139.33 86.104)" fill="#f4f4f4"/>
      <path id="Path_1677" data-name="Path 1677" d="M13.944,31.766q0,5.05-1.6,6.53c-1.059.986-2.627,1.109-4.689.366A7.589,7.589,0,0,1,3.178,34.8a16.173,16.173,0,0,1-1.335-7.076v-.586l4.5,1.588v1.362A7.343,7.343,0,0,0,6.7,32.868a1.71,1.71,0,0,0,.926.992.729.729,0,0,0,.926-.333A5.352,5.352,0,0,0,8.923,31V10.837l5.022,1.712Z" transform="translate(141.296 96.711)"/>
      <path id="Path_1678" data-name="Path 1678" d="M11.751,13.491l3.29,18.461.057.02V14.634l4.8,1.635V44.494l-5.621-2.018-3.4-18.551-.053-.02V41.237l-4.742-1.7V11.557Z" transform="translate(151.169 98.387)"/>
      <path id="Path_1679" data-name="Path 1679" d="M22.779,17.25v6.064l-6.643-2.291v4.845l6.22,2.164v5.821l-6.22-2.184V43.347l-5.175-1.858V13.221Z" transform="translate(162.54 102.265)"/>
      <path id="Path_1680" data-name="Path 1680" d="M48.964,1.063,1,18.449,48.964,34.439,96.93,18.449Z" transform="translate(139.33 73.937)" fill="#f4f4f4"/>
      <path id="Path_1681" data-name="Path 1681" d="M30.98,4.933,11.35,11.477l7.366,2.454,19.63-6.543Z" transform="translate(163.447 82.955)"/>
      <path id="Path_1682" data-name="Path 1682" d="M111.255,10.353l1.921-3.33h-3.843l-1.925-3.33-1.921,3.33h-3.846l1.925,3.33-1.925,3.33h3.846l1.921,3.33,1.925-3.33h3.843Z" transform="translate(373.824 80.064)"/>
      <path id="Path_1683" data-name="Path 1683" d="M15.4,68.892,63.368,51.506V6.284L15.4,22.272Z" transform="translate(172.891 86.104)" fill="#f4f4f4"/>
      <path id="Path_1684" data-name="Path 1684" d="M29.126,40.657V36.874l2.684.083.646-.929,4.952-3.107-2.214-3.107,2.214-5.135-.416-1.472.063-.9V16.192l-.48.163L34.614,21.02,33.2,20.447l-1.9,3.726.1-4.169-.969-.826.453-3.04-1.329-1.545L28.8,12.242l-.746,2.864-1.332,2.458.456,2.734-.976,1.5.1,4.116-1.921-2.408L22.946,25.08l-1.991-3.33-.493.17V28.1l.067.862L20.1,30.747l2.254,3.6L20.1,39.075l5.028-.436.653.466L28.477,37.1v3.786Z" transform="translate(183.84 99.985)"/>
      <path id="Path_1685" data-name="Path 1685" d="M58.406,33.7a5.066,5.066,0,0,0,2.421,1.948,11.908,11.908,0,0,0,7.359,0A5.081,5.081,0,0,0,70.607,33.7a9.253,9.253,0,0,0,1.319-3.523,29.335,29.335,0,0,0,.4-5.231,29.255,29.255,0,0,0-.4-5.225,9.33,9.33,0,0,0-1.319-3.53A5.374,5.374,0,0,0,68.186,14.2a11.127,11.127,0,0,0-7.359,0,5.357,5.357,0,0,0-2.421,1.991,9.33,9.33,0,0,0-1.319,3.53,29.571,29.571,0,0,0-.4,5.225,29.652,29.652,0,0,0,.4,5.231A9.252,9.252,0,0,0,58.406,33.7m4.229-12.414a13.964,13.964,0,0,1,.26-2.314,2.2,2.2,0,0,1,.589-1.2,1.46,1.46,0,0,1,1.022-.343,1.484,1.484,0,0,1,1.029.343,2.248,2.248,0,0,1,.579,1.2,13.226,13.226,0,0,1,.263,2.314c.043.972.06,2.191.06,3.66s-.017,2.694-.06,3.666a13.226,13.226,0,0,1-.263,2.314,2.248,2.248,0,0,1-.579,1.2,1.513,1.513,0,0,1-1.029.336,1.489,1.489,0,0,1-1.022-.336,2.2,2.2,0,0,1-.589-1.2,13.964,13.964,0,0,1-.26-2.314c-.04-.972-.06-2.191-.06-3.666s.02-2.687.06-3.66" transform="translate(269.084 103.085)"/>
      <path id="Path_1686" data-name="Path 1686" d="M62,35.58h5.7V26.566h6.806V22.087H67.706v-3.74h7.266V13.688H62Z" transform="translate(281.464 103.355)"/>
    </g>
  </g>
</svg>
