<?xml version="1.0" encoding="UTF-8"?>
<svg id="Layer_2" data-name="Layer 2" xmlns="http://www.w3.org/2000/svg" viewBox="0 0 895.46 427.15">
  <defs>
    <style>
      .cls-1, .cls-2 {
        fill: #fff;
      }

      .cls-2 {
        opacity: .55;
      }
    </style>
  </defs>
  <g id="Layer_1-2" data-name="Layer 1">
    <g>
      <path id="Path_6187" data-name="Path 6187" class="cls-2" d="m256.69,385.74l-11.63,41.42-196.11-55.09L0,29.2l25.42-5.85,44.72-.89,26.67-9.96,40.24-.45,34.8-9.49,21.94-1.04,10.69-1.53,4.21,49.46,9.41,52.5,13.74,143.59,20.64,84.23,4.19,55.95Z"/>
      <path id="Path_6188" data-name="Path 6188" class="cls-2" d="m239.07,427.15l-45.29-8.55-38.85-19.24-26.59-2.1-31.7-15.32-29.76-1.5-17.96-8.36L142.5,38.65l196.16,55.05-13.04,54.74-26.04,84.45-20.82,68.21-12.34,63.71-27.35,62.33Z"/>
      <g>
        <path class="cls-1" d="m385.43,275.13c27.69,0,44.16-11.92,44.16-33.22,0-39.61-62.61-24.56-62.61-42.45,0-6.53,6.25-9.23,14.77-9.23,10.22,0,16.33,3.97,17.32,10.93.14.85.71,1.27,1.42,1.27h24.57c.85,0,1.42-.57,1.27-1.42-3.55-21.58-20.59-30.24-44.16-30.24-26.98,0-41.6,12.35-41.6,31.38,0,40.32,62.19,24.42,62.19,43.45,0,7.24-5.96,10.22-16.89,10.22-12.78,0-18.46-5.25-20.02-15.05-.14-.71-.57-1.13-1.28-1.13h-24.7c-.85,0-1.28.42-1.14,1.28,2.27,22.57,19.59,34.21,46.71,34.21Z"/>
        <path class="cls-1" d="m470.77,274.56c21.44,0,34.07-12.78,36.2-25.42.15-.85-.42-1.28-1.27-1.28h-21.87c-.71,0-1.14.43-1.42,1.14-1.7,6.1-5.82,8.66-11.64,8.66-7.95,0-12.5-3.97-13.49-16.33h50.26c.71,0,1.27-.42,1.27-1.28-.42-27.4-14.19-42.59-38.9-42.59-23,0-38.05,15.19-38.05,38.76s14.48,38.33,38.91,38.33Zm-.29-60.77c7.38,0,11.22,5.82,11.65,12.78h-24.28c1.7-9.23,6.11-12.78,12.64-12.78Z"/>
        <path class="cls-1" d="m512.13,272.58h22.86c.71,0,1.28-.57,1.28-1.28v-27.69c-.57-16.89,9.65-25.7,24.84-25.7.57,0,1.14,0,1.85.14.85,0,1.28-.42,1.28-1.28v-16.19c0-.71-.42-1.27-1.14-1.42-.85-.14-1.99-.29-2.84-.29-10.08,0-18.88,4.12-24.71,12.35l.57-10.51c0-.85-.43-1.27-1.28-1.27h-22.72c-.71,0-1.27.57-1.27,1.27l.57,35.5-.57,35.07c0,.71.57,1.28,1.27,1.28Z"/>
        <path class="cls-1" d="m567.65,272.58h23.43c.71,0,1.28-.57,1.28-1.28l-.57-37.62c1.56-11.93,8.09-17.47,14.2-17.47,5.25,0,8.66,3.41,8.8,11.22v15.76l-.42,28.11c0,.71.57,1.28,1.28,1.28h23.43c.71,0,1.27-.57,1.27-1.28l-.57-28.25.14-15.76c.14-19.17-9.51-29.53-26.41-29.53-10.22,0-17.89,3.55-22.44,9.94l.43-33.22c0-.71-.57-1.28-1.28-1.28h-22.29c-.71,0-1.28.57-1.28,1.28l.14,54.66-.42,42.17c0,.71.57,1.28,1.27,1.28Z"/>
        <path class="cls-1" d="m719.86,272.58h23.57c.71,0,1.28-.57,1.28-1.28l-.42-29.81v-2.13c0-15.05,6.25-23.14,13.77-23.14,5.25,0,9.09,3.97,9.09,11.07v14.2l-.42,29.81c0,.71.57,1.28,1.28,1.28h23.43c.71,0,1.27-.57,1.27-1.28l-.42-29.81v-16.04c0-16.75-9.65-27.69-25.98-27.69-9.51,0-18.17,3.55-23.14,10.51l.42-7.53c0-.85-.42-1.27-1.27-1.27h-22.01c-.71,0-1.28.57-1.28,1.27v35.78l-.42,34.79c0,.71.57,1.28,1.27,1.28Z"/>
        <path class="cls-1" d="m400.9,287.29c-.28-.71-.71-1-1.42-1h-33.36c-.71,0-1.28.28-1.56,1l-33.08,96.97c-.29,1,.14,1.42.99,1.42h24.42c.71,0,1.27-.42,1.42-1.14l6.39-21.72h34.79l6.67,21.72c.14.71.71,1.14,1.42,1.14h24.57c.85,0,1.42-.42,1.14-1.42l-32.37-96.97Zm-30.24,54.95l10.93-37.49,11.5,37.49h-22.43Z"/>
        <path class="cls-1" d="m483.97,338.97l21.58-24.84c.71-.85.28-1.56-.71-1.56h-24.57c-.57,0-1.13.14-1.56.71l-18.03,23.99v-2.13l.43-47.56c0-.71-.57-1.28-1.28-1.28h-22.71c-.71,0-1.28.57-1.28,1.28l.57,48.13-.57,48.7c0,.71.57,1.28,1.28,1.28h22.71c.71,0,1.28-.57,1.28-1.28l-.14-19.31,5.54-7.52,5.68,10.79,7.95,16.33c.28.57.71,1,1.42,1h26.41c1,0,1.28-.71.85-1.56l-24.85-45.15Z"/>
        <path class="cls-1" d="m530.9,332.44c0-4.55,3.41-6.39,8.95-6.39,6.67,0,9.94,3.12,11.07,8.24.14.71.57,1.13,1.28,1.13h21.16c.85,0,1.42-.42,1.27-1.42-2.13-15.2-15.33-23.29-35.21-23.29s-32.8,8.95-32.8,24.42c0,30.24,46.71,18.46,46.71,30.1,0,4.4-3.55,6.67-10.79,6.67-7.81,0-12.07-2.84-12.78-9.23-.14-.85-.71-1.27-1.42-1.27h-22.29c-.85,0-1.28.42-1.28,1.27,1.28,16.47,16.33,24.85,37.77,24.85s35.07-9.23,35.07-24.71c0-30.81-46.71-17.89-46.71-30.38Z"/>
        <path class="cls-1" d="m618.01,310.58c-24.71,0-39.05,15.33-39.05,38.76s14.34,38.33,39.05,38.33,38.76-15.47,38.76-38.9-14.06-38.19-38.76-38.19Zm0,60.2c-8.8,0-13.07-5.82-13.07-21.3s3.98-21.87,12.92-22.15c8.52,0,12.78,6.53,12.78,22.01s-4.12,21.44-12.64,21.44Z"/>
        <path class="cls-1" d="m730.13,312.57h-23c-.71,0-1.28.42-1.42,1.13l-11.64,41.32-13.92-41.46c-.28-.71-.71-.99-1.42-.99h-26.12c-.85,0-1.28.57-1,1.42l29.82,73.97-6.82,20.44c-.28,1,.28,1.42,1.13,1.42h21.58c.71,0,1.14-.28,1.42-.99l32.37-94.84c.28-1-.14-1.42-1-1.42Z"/>
        <path class="cls-1" d="m758.5,286.3h-22.57c-.71,0-1.28.57-1.28,1.28l.57,48.7-.57,48.13c0,.71.57,1.28,1.28,1.28h22.57c.71,0,1.28-.57,1.28-1.28l-.57-48.13.57-48.7c0-.71-.57-1.28-1.28-1.28Z"/>
        <path class="cls-1" d="m801.16,310.53c-23,0-38.05,15.19-38.05,38.76s14.48,38.33,38.91,38.33c21.44,0,34.07-12.78,36.2-25.42.15-.85-.42-1.28-1.27-1.28h-21.87c-.71,0-1.14.43-1.42,1.14-1.7,6.1-5.82,8.66-11.64,8.66-7.95,0-12.5-3.97-13.49-16.33h50.26c.71,0,1.27-.42,1.27-1.28-.42-27.4-14.19-42.59-38.9-42.59Zm-12.07,29.11c1.7-9.23,6.11-12.78,12.64-12.78,7.38,0,11.22,5.82,11.65,12.78h-24.28Z"/>
        <path class="cls-1" d="m894.32,312.2c-.85-.14-1.99-.29-2.84-.29-10.08,0-18.88,4.12-24.71,12.35l.57-10.51c0-.85-.43-1.27-1.28-1.27h-22.72c-.71,0-1.27.57-1.27,1.27l.57,35.5-.57,35.07c0,.71.57,1.28,1.27,1.28h22.86c.71,0,1.28-.57,1.28-1.28v-27.69c-.57-16.89,9.65-25.7,24.84-25.7.57,0,1.14,0,1.85.14.85,0,1.28-.42,1.28-1.28v-16.19c0-.71-.42-1.27-1.14-1.42Z"/>
        <path class="cls-1" d="m673.52,228.99c-14.48,2.13-30.67,5.68-30.67,24.57,0,12.78,10.79,21.01,25.27,21.01,10.08,0,17.89-3.69,22.71-9.94l-.42,6.67c0,.85.28,1.28,1.14,1.28h22.01c.71,0,1.28-.57,1.28-1.28l-.28-30.1v-16.19c0-17.61-11.5-27.54-33.65-27.54s-33.94,9.09-35.07,24.56c-.14.85.28,1.28,1.13,1.28h21.72c.71,0,1.28-.42,1.42-1.28.57-4.4,3.69-7.1,10.08-7.1,5.96,0,9.09,2.42,9.09,6.11,0,5.11-4.97,6.39-15.76,7.95Zm16.04,10.22v4.68c0,9.51-4.83,13.92-12.92,14.06-4.97,0-8.38-2.27-8.38-6.82,0-5.25,3.83-7.24,9.37-8.52,4.26-.85,9.23-1.7,11.93-3.41Z"/>
      </g>
    </g>
  </g>
</svg>