<svg xmlns="http://www.w3.org/2000/svg" width="614.359" height="194.805" viewBox="0 0 614.359 194.805">
  <path id="Union_476" data-name="Union 476" d="M517.215,194.763a23.135,23.135,0,0,1-8.718-2.253,20.767,20.767,0,0,1-8.773-8.2,26.352,26.352,0,0,1-3.344-8.96,65.088,65.088,0,0,1-.784-17.611,81.409,81.409,0,0,1,10.391-33.359,76.174,76.174,0,0,1,13.63-17.2h-.007c-7.336-1.114-14.049-4.877-19.525-9.778-5.527-4.948-9.2-11.388-11.881-18.209a50.138,50.138,0,0,1-3.091-20.412A70.882,70.882,0,0,1,489.9,36.4a12,12,0,0,1,3.086-5.295l2.429-1.877A12,12,0,0,1,511.83,33.53c1.417,2.422,2.275,6.521,1.211,9.247a66.431,66.431,0,0,0-3.707,13.184,48.848,48.848,0,0,0-.068,9.4,40.111,40.111,0,0,0,1.861,6.857,36.7,36.7,0,0,0,3.015,5.206,31.968,31.968,0,0,0,3.348,3.376,28.011,28.011,0,0,0,3.313,1.949,28.34,28.34,0,0,0,3.854,1.052,27.273,27.273,0,0,0,3.706.009,24.6,24.6,0,0,0,2.886-.781,22.908,22.908,0,0,0,2.346-1.386,8.625,8.625,0,0,1,1.619-.853c-.622-16.38-1.669-32.746-3.011-49.051-.259-3.143,1.462-6.25,3.514-8.484a12,12,0,0,1,16.97,0,12.831,12.831,0,0,1,3.515,8.484q.387,4.7.734,9.4,1.556,21.119,2.272,42.287,1.288-.605,2.57-1.215l34.551-16.476a11.952,11.952,0,0,1,6.057-1.638l3.19.428a12.106,12.106,0,0,1,7.171,5.515,12.259,12.259,0,0,1,1.21,9.247c-.734,2.666-2.932,5.94-5.515,7.171l-16.153,7.7Q577.95,101,563.615,107.837q-1.922.917-3.844,1.845.036,3.9.043,7.794a180.294,180.294,0,0,1-2.3,31.521,73.912,73.912,0,0,1-3.563,13.406,60.223,60.223,0,0,1-7.329,14.387,52.084,52.084,0,0,1-13.414,13.258,28.507,28.507,0,0,1-14.919,4.757C517.93,194.806,517.571,194.792,517.215,194.763Zm3.488-21.59Zm.328-.11Zm-.2-.683Zm-.224-.593Zm-.844-1.659q.859-.486,1.677-1.043a40.477,40.477,0,0,0,4.7-4.747,47.97,47.97,0,0,0,4.456-7.766,76.886,76.886,0,0,0,4.165-16.363c.606-5.1.889-10.233,1-15.369a65.37,65.37,0,0,0-5.007,5.479,68.694,68.694,0,0,0-7.177,12.313,68.478,68.478,0,0,0-3.879,14.149,61.406,61.406,0,0,0-.146,12.306Q519.647,169.61,519.765,170.127Zm6.607-86.035Zm-4.214-.708Zm-3.505-1.62Zm-3.69-3.2Zm-3.328-5.036ZM509.447,67ZM80,169.612a12.225,12.225,0,0,1-7.171-5.515c-1.708-2.918-1.806-6.017-1.21-9.246q2.722-14.756,6.141-29.37,6.107-26.063,14.432-51.537.5-1.529,1-3.056-4.269,1.73-8.648,3.134a104.766,104.766,0,0,1-16.651,3.894c-6.507.966-13.063,1.251-19.583,2.015A42.286,42.286,0,0,0,40.758,81.8a29.528,29.528,0,0,0-3.622,2.116,33.136,33.136,0,0,0-3.575,3.624,49.19,49.19,0,0,0-4.541,8.054,126.634,126.634,0,0,0-5.517,19.37,12,12,0,0,1-14.761,8.381,12.227,12.227,0,0,1-7.172-5.514A12.7,12.7,0,0,1,.36,108.581,145.418,145.418,0,0,1,4.6,92.669a72.511,72.511,0,0,1,7.118-15.6A48.238,48.238,0,0,1,24.681,63.421c10.867-7.736,24.383-7.2,37.043-8.681A106.022,106.022,0,0,0,85.36,48.271a99.5,99.5,0,0,0,19.185-11.113q2.293-1.84,4.459-3.825,3.728-4.3,7.847-8.233l0-.005a7.75,7.75,0,0,1,1.375-1.289q1.76-1.625,3.586-3.178A124.183,124.183,0,0,1,138.311,8.52C149,2.133,161.8-1.928,174.251.932c12.875,2.956,22.356,14.507,24.918,27.157,1.493,7.371,1.132,14.433-.129,21.806a143.3,143.3,0,0,1-4.248,16.57c-3.073,10.334-6.346,20.675-7.983,31.354a68.549,68.549,0,0,0-.215,14.622,49.321,49.321,0,0,0,2.467,9.207,45.61,45.61,0,0,0,4.2,7.178,46.625,46.625,0,0,0,5.994,6,45.345,45.345,0,0,0,6.615,3.932c2.787,1.349,4.6,4.33,5.515,7.171a12.113,12.113,0,0,1-1.21,9.247,12.243,12.243,0,0,1-7.171,5.515,12.843,12.843,0,0,1-9.247-1.21c-8.607-4.166-15.638-10.8-21.187-18.491a51.2,51.2,0,0,1-5.531-10.214,52.93,52.93,0,0,1-3.649-12.273,74.9,74.9,0,0,1-1.066-14.51,108.81,108.81,0,0,1,1.683-14.686,207.737,207.737,0,0,1,6-23.738c2.218-7.442,4.715-14.9,5.97-22.581a43.7,43.7,0,0,0,.132-8.025,31.589,31.589,0,0,0-1.274-4.725,26.724,26.724,0,0,0-1.717-2.981,22.287,22.287,0,0,0-1.62-1.634q-.836-.541-1.718-1a22.237,22.237,0,0,0-2.328-.628,27.793,27.793,0,0,0-3.869.042,42.15,42.15,0,0,0-7.251,2.1A79.632,79.632,0,0,0,141.9,35.045q-4.222,3.356-8.122,7.076-.27.333-.537.669a105.645,105.645,0,0,0-11.989,20.569c-2.573,6.363-4.637,12.953-6.74,19.479a626.111,626.111,0,0,0-19.758,78.395c-.56,3.036-3.017,5.561-5.515,7.171a10.767,10.767,0,0,1-5.882,1.6A15.214,15.214,0,0,1,80,169.612Zm120.537-33.76Zm-6.442-5.9Zm-4.512-6.985Zm-2.8-8.943ZM176.4,36.711Zm-.952-5.171Zm-1.316-3.082Zm-1.5-2.056Zm-1.471-1.279ZM169.184,24.157ZM288.291,139.643a12.21,12.21,0,0,1-3.514-8.485,12.375,12.375,0,0,1,3.514-8.486,90.084,90.084,0,0,0,6.765-7.533,112.1,112.1,0,0,0,12.637-22.161q2-4.911,3.676-9.945c4.554-13.634,7.5-27.741,10.142-41.849a11.178,11.178,0,0,1,4.3-6.233,11.376,11.376,0,0,1,5.674-2.362,11.875,11.875,0,0,1,7.653,1.424l2.428,1.876,1.877,2.429a27.416,27.416,0,0,0,1.971,3.395,29.549,29.549,0,0,0,2.983,2.962,32.95,32.95,0,0,0,4.424,2.566,34.559,34.559,0,0,0,5.5,1.5,32.771,32.771,0,0,0,5.206.015,29.179,29.179,0,0,0,4.167-1.125,27.716,27.716,0,0,0,2.7-1.531,12,12,0,0,1,17.627,13.552,12.647,12.647,0,0,1-5.514,7.171,42.02,42.02,0,0,1-7.774,3.714,28.046,28.046,0,0,1-5.433,1.476,50.854,50.854,0,0,1-8.039.847,52.726,52.726,0,0,1-7.914-.743,44.319,44.319,0,0,1-12.255-3.973q-.3-.14-.6-.287l-.114.489c-6.052,25.976-15.833,52.138-35.108,71.293a12.537,12.537,0,0,1-8.484,3.515q-.2.009-.408.009A12.27,12.27,0,0,1,288.291,139.643ZM360.035,49.02Zm-5.676-1.085Zm-4.662-2.2Zm-3.445-2.858ZM219.674,131.791A34.015,34.015,0,0,1,205.253,112.9c-2.154-6.607-2.379-13.962-1.818-20.844A149.23,149.23,0,0,1,213.51,48.524a11.982,11.982,0,0,1,3.086-5.3l2.428-1.876a12,12,0,0,1,16.419,4.3c1.4,2.4,2.295,6.548,1.21,9.248a141.542,141.542,0,0,0-8.706,32.205,71.83,71.83,0,0,0-.556,15.316,31.308,31.308,0,0,0,1.214,4.681,23.629,23.629,0,0,0,1.3,2.25q.649.715,1.361,1.367a21.793,21.793,0,0,0,1.959,1.135,25.33,25.33,0,0,0,3.163.845,29.958,29.958,0,0,0,4.43-.021,32.01,32.01,0,0,0,4.786-1.305A30.744,30.744,0,0,0,249.63,109a41.025,41.025,0,0,0,4.893-4.963,57.955,57.955,0,0,0,5.655-9.967C266.246,78.7,267.186,61.832,273.41,46.5a12.009,12.009,0,0,1,3.086-5.3l2.429-1.876a12,12,0,0,1,16.418,4.3c1.4,2.389,2.3,6.556,1.211,9.248-5.8,14.277-6.941,29.861-12.023,44.354-4.692,13.379-12.328,26.639-24.987,33.913a43.113,43.113,0,0,1-21.221,5.642A35.6,35.6,0,0,1,219.674,131.791Zm18.437-18.8Zm-3.447-.456Zm-2.312-.883Zm-1.664-1.169Zm-1.481-1.8ZM227.561,104Zm241.064,29.1A49.292,49.292,0,0,1,452.186,117q-1.25-1.93-2.316-3.949a50.441,50.441,0,0,1-9.728,6.67c-6.232,3.265-13.339,5.766-20.457,5.719a27.737,27.737,0,0,1-9.6-1.659,40.445,40.445,0,0,1-5.683-2.56,40.569,40.569,0,0,1-4.892-3.537c-5.026-4.011-8.349-9.522-10.706-15.411-2.642-6.6-2.572-13.819-1.512-20.724a48.986,48.986,0,0,1,6.563-17.368,53.855,53.855,0,0,1,11.869-14.133c5.386-4.367,11.425-8.07,18.344-9.4a35.915,35.915,0,0,1,10.882-.7,38.333,38.333,0,0,1,6.836,1.205,34.658,34.658,0,0,1,3.873,1.464,31.788,31.788,0,0,1,3.067-5.855,13.228,13.228,0,0,1,7.172-5.515,12.115,12.115,0,0,1,9.246,1.21,12,12,0,0,1,4.306,16.419,24.915,24.915,0,0,0-1.572,2.7,36.237,36.237,0,0,0-1.505,5.972c-.48,4.578-.526,9.212-.566,13.807a126.628,126.628,0,0,0,.662,15.157,61.935,61.935,0,0,0,3.256,12.55,46.655,46.655,0,0,0,4.263,7.4,37.532,37.532,0,0,0,4.319,4.369q1.181.824,2.43,1.548a12.5,12.5,0,0,1,5.515,7.172,12.114,12.114,0,0,1-1.211,9.247,12.238,12.238,0,0,1-7.172,5.514,11.613,11.613,0,0,1-3.074.4A12.474,12.474,0,0,1,468.626,133.1Zm10.761-21.386Zm-4.495-4.027Zm-54.229-5.974Zm-1.814-.061Zm2.182-.265a34.684,34.684,0,0,0,5.285-1.552,42.909,42.909,0,0,0,6.611-3.862,40.924,40.924,0,0,0,4.965-4.939,36.725,36.725,0,0,0,3.076-5.222q.491-1.341.872-2.72.107-.387.238-.76-.166-2.537-.229-5.062c-.1-3.73-.125-7.5-.012-11.253a14.058,14.058,0,0,1-5.9-1.545,22.565,22.565,0,0,0-2.4-.651,25.621,25.621,0,0,0-3.264.015,27.986,27.986,0,0,0-3.719,1.026,33.159,33.159,0,0,0-4.391,2.605,43.42,43.42,0,0,0-5.32,5.408,47.04,47.04,0,0,0-4.407,7.469,38.444,38.444,0,0,0-1.789,6.366,31.3,31.3,0,0,0-.026,4.71,25.713,25.713,0,0,0,.889,3.283,26.5,26.5,0,0,0,1.7,2.9,25.271,25.271,0,0,0,2.135,2.149,22.216,22.216,0,0,0,2.013,1.19q.823.268,1.666.463C419.694,101.435,420.363,101.426,421.032,101.387Zm-4.55-.677Zm53.872-.083Zm-56.23-1.747Zm-2.038-2.662Zm-1.31-3.208Zm55.884-4.93Zm-29.5-23.162Zm-2.005-.948Z" transform="translate(0 0)" fill="#fff"/>
</svg>
