<svg xmlns="http://www.w3.org/2000/svg" xmlns:xlink="http://www.w3.org/1999/xlink" width="624" height="230" viewBox="0 0 624 230">
  <defs>
    <clipPath id="clip-PCI">
      <rect width="624" height="230"/>
    </clipPath>
  </defs>
  <g id="PCI" clip-path="url(#clip-PCI)">
    <rect width="624" height="230" fill="#f4f4f4"/>
    <path id="Path_937" data-name="Path 937" d="M121.85,193.054h-4.4l-21.9,5.886-5.582-4.185-42.64-8.03,18.947-23.066L49.156,140.327l3.562-9.59-.459-4.357V90.273H59.9l14.933,21.053,10.936-5.716L97.377,118.6l-.566-16.81,7.362-6.136L100.668,80.13l11-11.53,7.987-19.45L127.64,68.6l11,11.53-3.505,15.521,7.362,6.136-.566,16.81,11.609-12.987,10.936,5.716L179.4,90.273h7.64V126.38l-.459,4.357,3.562,9.59-17.125,23.332,18.947,23.066-42.64,8.03-5.581,4.185Z" transform="translate(104.545 -15.487)"/>
    <path id="Path_938" data-name="Path 938" d="M119.966,56.262l5.828,14.188,10.387,10.9-3.547,15.708,7.6,6.334-.76,22.55,14.949-16.722,11.147,5.827,15.456-21.789h3.8V126.7l-.507,4.815,3.294,8.868-17.482,23.816,17.482,21.282L148.6,192.824l-5.068,3.8L122.5,190.971h-5.068L96.4,196.624l-5.066-3.8-39.018-7.347L69.8,164.195,52.318,140.378l3.294-8.868-.507-4.815V93.253h3.8l15.456,21.789,11.147-5.827,14.949,16.722-.76-22.55,7.6-6.334-3.547-15.708,10.387-10.9Zm0-13.326-4.684,11.4-5.465,13.308-9.731,10.2-1.871,1.963.6,2.646,2.865,12.686L96.455,99.5l-1.9,1.586.084,2.475.29,8.594-5.643-6.312L86.657,102.9l-3.493,1.826-7.23,3.78-12.9-18.184L61.522,88.19H50.042v38.772l.028.265.383,3.634-2.88,7.755-.951,2.558,1.616,2.2L63.392,164.02,48.406,182.263l-5.427,6.606,8.4,1.583,37.86,7.13,4.124,3.094,1.972,1.479,2.38-.64,20.384-5.479h3.729l20.384,5.479,2.38.64,1.972-1.479,4.124-3.094,37.86-7.13,8.4-1.583-5.427-6.606L176.54,164.02l15.154-20.645,1.616-2.2-.951-2.558-2.88-7.755.383-3.634.028-.265V88.19H178.41L176.9,90.324,164,108.507l-7.23-3.78-3.493-1.826-2.627,2.939-5.642,6.312.29-8.594.084-2.475-1.9-1.586-5.222-4.351,2.865-12.686.6-2.646-1.871-1.963-9.731-10.2-5.465-13.308Z" transform="translate(104.23 -15.936)"/>
    <rect id="Rectangle_423" data-name="Rectangle 423" width="12.432" height="27.965" transform="translate(217.979 171.353)"/>
    <path id="Path_939" data-name="Path 939" d="M117.978,202.092H112.91v-20.6h5.068Zm7.364-27.966h-19.8v35.329h19.8V174.126Z" transform="translate(108.751 -6.455)"/>
    <path id="Path_940" data-name="Path 940" d="M121.935,188.718h-5.371l-20.635,5.548L91.1,190.64,53.724,183.6,70.54,163.132,52.9,139.1l3.172-8.54-.529-5.022V93.3h2.054l15.693,22.122,11.245-5.877L101,127.967l-.848-25.159,7.71-6.424L104.292,80.59l10.113-10.6,4.846-11.8,4.845,11.8,10.111,10.6-3.566,15.795,7.71,6.424-.848,25.159,16.467-18.42,11.244,5.877L180.9,93.3h2.054v32.231l-.529,5.022,3.172,8.54-17.644,24.037L184.774,183.6,147.4,190.64l-4.834,3.625Z" transform="translate(104.947 -14.833)"/>
    <path id="Path_941" data-name="Path 941" d="M119.336,61.421l3.7,9,.165.4.3.313,9.537,10L129.76,95.648l-.311,1.374,1.082.9,6.736,5.613-.722,21.424-.213,6.344,4.229-4.732,13.754-15.386,9.56,5,1.781.931,1.162-1.638,14.767-20.819h.31v31.021l-.494,4.694-.057.536.188.506,2.862,7.7-16.748,22.816-1.057,1.441,1.134,1.382,15.015,18.279-35.2,6.629-.526.1-.429.322-4.17,3.128-19.947-5.362-.294-.078H116.5l-.294.078-19.947,5.362-4.17-3.128-.429-.322-.527-.1-35.2-6.629,15.015-18.279,1.134-1.382-1.057-1.441L54.279,139.118l2.862-7.7.188-.506-.057-.536-.494-4.694V94.656h.31l14.767,20.819,1.162,1.638,1.781-.931,9.56-5,13.754,15.386,4.229,4.732-.213-6.344-.722-21.424,6.736-5.613,1.082-.9-.311-1.374-3.275-14.506,9.537-10,.3-.313.165-.4Zm0-6.057-5.828,14.188L103.121,80.447l3.547,15.709-7.6,6.334.76,22.55L84.879,108.317l-11.147,5.827L58.276,92.355h-3.8V125.8l.507,4.814-3.294,8.868L69.171,163.3,51.689,184.578l39.018,7.348,5.066,3.8,21.029-5.653h5.068l21.029,5.653,5.066-3.8,39.018-7.348L169.5,163.3l17.482-23.815-3.294-8.868.507-4.814V92.355h-3.8l-15.456,21.788-11.147-5.827-14.949,16.722.76-22.55L132,96.155l3.547-15.709L125.164,69.552Z" transform="translate(104.859 -15.038)" fill="#f4f4f4"/>
    <path id="Path_942" data-name="Path 942" d="M114,207.437v-21.4l-3.442-5.15L86.841,185.07l10.475-13.632-22.74-25.712,24.488,12.4,12.252-9.306,6.366-32.742,6.366,32.742,12.252,9.306,24.487-12.4-22.74,25.712,10.475,13.632-23.714-4.186-3.442,5.15v21.4Z" transform="translate(106.513 -10.65)"/>
    <path id="Path_943" data-name="Path 943" d="M118.009,122.515l5.321,27.362L136.5,159.885l19.762-10.009-19.382,21.916,9.248,12.035-21.537-3.8-4.053,6.066v20.6h-5.068v-20.6l-4.053-6.066-21.537,3.8,9.248-12.035L79.752,149.877l19.762,10.009,13.175-10.009Zm0-12.058-2.259,11.618-5.152,26.5-11.329,8.6-18.477-9.357-10.737-5.437,7.972,9.015L96.152,171.9l-8.09,10.53-3.61,4.7,5.834-1.03,20.057-3.54,2.832,4.237v22.2h9.67v-22.2l2.832-4.237,20.057,3.54,5.834,1.03-3.61-4.7-8.09-10.53L157.991,151.4l7.972-9.015-10.737,5.437-18.477,9.357-11.329-8.6-5.152-26.5Z" transform="translate(106.187 -11.056)" fill="#f4f4f4"/>
    <path id="Path_944" data-name="Path 944" d="M128.371,205.288v-.22c.913-.01,1.085-.167,1.085-.967v-3.478c0-.432-.1-.643-.33-.643a1.862,1.862,0,0,0-.6.147l-.184.074v-.238l2.311-1h.164V204.2c0,.7.148.847.984.865v.22Z" transform="translate(110.399 -4.66)"/>
    <path id="Path_945" data-name="Path 945" d="M134.268,205.407c-1.167,0-1.949-.58-1.949-1.564a1.549,1.549,0,0,1,1.371-1.544c-.913-.544-1.27-1.032-1.27-1.731,0-.975.79-1.611,2.061-1.611,1.148,0,1.793.6,1.793,1.335,0,.589-.377,1.02-1.251,1.288,1.04.708,1.38,1.215,1.38,1.986,0,1.107-.8,1.841-2.135,1.841m-.367-2.935a2.209,2.209,0,0,0-.47,1.335c0,.818.294,1.3.856,1.3.5,0,.836-.339.836-.993,0-.681-.22-.976-1.222-1.647m.47-3.248a.751.751,0,0,0-.765.765c0,.515.422,1.02,1.2,1.415a1.462,1.462,0,0,0,.379-1.056c0-.627-.295-1.124-.81-1.124" transform="translate(110.687 -4.66)"/>
    <path id="Path_946" data-name="Path 946" d="M138.561,205.407c-1.167,0-1.949-.58-1.949-1.564a1.549,1.549,0,0,1,1.371-1.544c-.913-.544-1.27-1.032-1.27-1.731,0-.975.79-1.611,2.061-1.611,1.148,0,1.793.6,1.793,1.335,0,.589-.377,1.02-1.251,1.288,1.04.708,1.38,1.215,1.38,1.986,0,1.107-.8,1.841-2.135,1.841m-.367-2.935a2.209,2.209,0,0,0-.47,1.335c0,.818.294,1.3.856,1.3.5,0,.836-.339.836-.993,0-.681-.22-.976-1.222-1.647m.47-3.248a.751.751,0,0,0-.765.765c0,.515.422,1.02,1.2,1.415a1.462,1.462,0,0,0,.379-1.056c0-.627-.295-1.124-.81-1.124" transform="translate(110.997 -4.66)"/>
    <path id="Path_947" data-name="Path 947" d="M142.853,205.407c-1.167,0-1.949-.58-1.949-1.564a1.549,1.549,0,0,1,1.371-1.544c-.912-.544-1.27-1.032-1.27-1.731,0-.975.79-1.611,2.061-1.611,1.148,0,1.793.6,1.793,1.335,0,.589-.377,1.02-1.251,1.288,1.04.708,1.38,1.215,1.38,1.986,0,1.107-.8,1.841-2.135,1.841m-.367-2.935a2.209,2.209,0,0,0-.47,1.335c0,.818.294,1.3.856,1.3.5,0,.836-.339.836-.993,0-.681-.22-.976-1.222-1.647m.47-3.248a.751.751,0,0,0-.764.765c0,.515.422,1.02,1.2,1.415a1.461,1.461,0,0,0,.379-1.056c0-.627-.295-1.124-.81-1.124" transform="translate(111.307 -4.66)"/>
    <path id="Path_948" data-name="Path 948" d="M93.389,203.988a1.94,1.94,0,0,1-3.7-1.029c0-1.371.773-2.29,1.924-2.29a1.494,1.494,0,0,1,1.177.459,2.637,2.637,0,0,1,.541,1.638H91.015c.055.874.194,1.721,1.095,1.721a1.321,1.321,0,0,0,1.058-.627ZM92.2,202.232a2.018,2.018,0,0,0-.084-.847c-.128-.277-.238-.432-.505-.432-.422,0-.645.367-.645,1.472H92.2Z" transform="translate(107.606 -4.537)"/>
    <path id="Path_949" data-name="Path 949" d="M96.173,202.019a1.646,1.646,0,0,0-.434-.753.99.99,0,0,0-.689-.295.56.56,0,0,0-.607.533c0,.312.258.553.884.81.919.386,1.27.782,1.27,1.436a1.344,1.344,0,0,1-1.419,1.4,3.311,3.311,0,0,1-.993-.211.645.645,0,0,0-.211-.055c-.083,0-.137.063-.238.256H93.5v-1.517h.258c.193.8.615,1.214,1.261,1.214a.612.612,0,0,0,.689-.6c0-.295-.249-.524-.882-.8-.931-.4-1.306-.818-1.306-1.427a1.352,1.352,0,0,1,1.442-1.342,2.134,2.134,0,0,1,.719.137,1.047,1.047,0,0,0,.283.065c.121,0,.176-.047.232-.184h.2v1.333Z" transform="translate(107.881 -4.537)"/>
    <path id="Path_950" data-name="Path 950" d="M99.609,204.189c-.377.753-.744,1.038-1.362,1.038a.931.931,0,0,1-1.029-.984v-2.962H96.73v-.25a5.672,5.672,0,0,0,1.535-1.71H98.5v1.556h.874v.4H98.5v2.742c0,.369.1.55.357.55.193,0,.341-.136.525-.487Z" transform="translate(108.114 -4.635)"/>
    <path id="Path_951" data-name="Path 951" d="M100.551,204.942a.754.754,0,0,1-.773-.773.777.777,0,1,1,1.555,0,.773.773,0,0,1-.782.773" transform="translate(108.334 -4.34)"/>
    <path id="Path_952" data-name="Path 952" d="M239.9,122.277c14.65,0,23.6,5.172,23.6,15.879,0,7.015-4.036,12.365-11.322,15.087-3.771,1.407-6.75,1.672-18.329,1.757v16.843c0,5.879.7,6.664,7.629,7.543v2.193H212.27v-2.193a13.476,13.476,0,0,0,3.943-.793c2.893-1.136,3.422-3.593,3.422-8.065V133.063c0-6.836-1.229-8.065-7.364-8.593v-2.193Zm-6.051,29.651c10.965-.086,14.558-3.072,14.558-12.807s-2.893-13.772-10.173-13.772c-2.9,0-4.386,1.05-4.386,3.071Z" transform="translate(116.464 -10.202)"/>
    <path id="Path_953" data-name="Path 953" d="M320.951,170.524c-8.158,10.094-15.173,12.808-25.266,12.808-18.858,0-30.7-12.893-30.7-30,0-18.594,12.543-32.281,30.437-32.281a35.447,35.447,0,0,1,13.686,3.066,11.126,11.126,0,0,0,4.036,1.229c1.672,0,2.542-.872,3.864-4.03h2.364V141.93H317.18a29.629,29.629,0,0,0-5.879-10.093c-4.036-4.821-8.772-7.893-14.65-7.893-9.208,0-16.137,9.914-16.137,27.459,0,8.858,1.05,15.266,4.736,21.052,2.542,4.036,7.714,6.672,12.893,6.672a22.756,22.756,0,0,0,11.057-2.987c2.808-1.578,5.257-3.77,9.122-7.806Z" transform="translate(120.274 -10.291)"/>
    <path id="Path_954" data-name="Path 954" d="M321.716,181.58v-2.193c6.578-.614,8.158-1.664,8.158-7.108v-41.23c0-4.914-1.843-6.143-8.158-6.579v-2.193h30.7v2.193c-6.493.265-8.336,1.665-8.336,6.579v41.23c0,5.7,1.672,6.672,8.336,7.108v2.193Z" transform="translate(124.374 -10.202)"/>
  </g>
</svg>
