<?xml version="1.0" encoding="UTF-8"?>
<svg id="Layer_2" data-name="Layer 2" xmlns="http://www.w3.org/2000/svg" viewBox="0 0 54.05 26.95">
  <g id="Layer_1-2" data-name="Layer 1">
    <g>
      <path d="m23.41,19.78c-.09.05-.18.09-.26.12-.08.03-.19.07-.33.11-.14.04-.29.08-.45.1s-.34.04-.52.04c-.63,0-1.16-.25-1.57-.76-.42-.51-.62-1.17-.62-1.97,0-.85.19-1.52.58-2.02.39-.5.91-.74,1.58-.74.57,0,1.14.16,1.7.48l.1-1.63c-.66-.27-1.4-.41-2.21-.41-.35,0-.7.05-1.04.15-.34.1-.68.26-1.01.49-.33.22-.62.5-.88.82s-.45.73-.61,1.22c-.15.49-.23,1.03-.23,1.62,0,1.31.36,2.37,1.09,3.17.72.8,1.66,1.2,2.81,1.2.78,0,1.48-.1,2.1-.3l-.07-1.75s-.06.02-.15.07Z"/>
      <path d="m29.59,17.57c0-.76-.19-1.33-.58-1.72-.38-.39-1.09-.58-2.12-.58-.51,0-1.18.13-2.02.4l.08,1.4c.62-.37,1.2-.55,1.74-.55.12,0,.22,0,.31.02.09.02.21.06.36.12s.27.19.36.37c.09.18.13.41.13.69h-.58c-.18,0-.33,0-.47.01-.14,0-.34.03-.62.07-.28.04-.52.1-.72.19s-.41.21-.62.35-.38.34-.49.6c-.12.26-.17.55-.17.88,0,.57.18,1.03.53,1.37.35.35.82.52,1.4.52.42,0,.79-.11,1.13-.32.34-.21.53-.43.58-.64h.02l.05.86h1.73c-.03-.38-.05-.96-.05-1.76v-2.28Zm-1.73,1.39c0,.35-.05.64-.14.88-.1.23-.22.39-.37.47-.15.08-.27.14-.35.16s-.17.04-.26.04c-.54,0-.82-.27-.82-.82,0-.25.06-.45.18-.61.12-.16.29-.27.52-.33s.43-.11.61-.13c.18-.02.39-.03.64-.03v.36Z"/>
      <path d="m33.9,15.27c-.86,0-1.44.38-1.76,1.14h-.02c0-.33-.02-.68-.05-1.04h-1.73c.03.29.05.72.05,1.31v4.94h1.9v-3.5c0-.89.28-1.33.83-1.33.49,0,.73.33.73.98v3.85h1.9v-4.09c0-1.5-.61-2.26-1.84-2.26Z"/>
      <path d="m41.68,17.57c0-.76-.19-1.33-.58-1.72-.38-.39-1.09-.58-2.12-.58-.51,0-1.18.13-2.02.4l.08,1.4c.62-.37,1.2-.55,1.74-.55.12,0,.22,0,.31.02.09.02.21.06.36.12s.27.19.36.37c.09.18.13.41.13.69h-.58c-.18,0-.33,0-.47.01-.14,0-.34.03-.62.07-.28.04-.52.1-.72.19s-.41.21-.62.35-.38.34-.49.6c-.12.26-.17.55-.17.88,0,.57.18,1.03.53,1.37.35.35.82.52,1.4.52.42,0,.79-.11,1.13-.32.34-.21.53-.43.58-.64h.02l.05.86h1.73c-.03-.38-.05-.96-.05-1.76v-2.28Zm-1.73,1.39c0,.35-.05.64-.14.88-.1.23-.22.39-.37.47-.15.08-.27.14-.35.16s-.17.04-.26.04c-.54,0-.82-.27-.82-.82,0-.25.06-.45.18-.61.12-.16.29-.27.52-.33s.43-.11.61-.13c.18-.02.39-.03.64-.03v.36Z"/>
      <path d="m46.18,20.62h.02c0,.34.02.68.05,1h1.8c-.03-.38-.05-.85-.05-1.4v-7.6h-1.9v3.67h-.02c-.27-.68-.81-1.02-1.61-1.02-.74,0-1.3.29-1.66.86-.36.57-.54,1.31-.54,2.21,0,1.02.19,1.83.58,2.45.39.62.93.92,1.61.92.78,0,1.34-.36,1.7-1.09Zm-1.91-2.86c.02-.19.05-.39.11-.59.06-.2.15-.36.28-.46.13-.1.29-.15.49-.15.63,0,.95.64.95,1.93,0,.47-.07.9-.22,1.28s-.39.57-.73.57c-.61,0-.91-.62-.91-1.85,0-.3,0-.54.02-.73Z"/>
      <path d="m52.28,20.75l.05.86h1.73c-.03-.38-.05-.96-.05-1.76v-2.28c0-.76-.19-1.33-.58-1.72-.38-.39-1.09-.58-2.12-.58-.51,0-1.18.13-2.02.4l.08,1.4c.62-.37,1.2-.55,1.74-.55.12,0,.22,0,.31.02.09.02.21.06.36.12.15.06.27.19.36.37.09.18.13.41.13.69h-.58c-.18,0-.33,0-.47.01-.14,0-.34.03-.62.07-.28.04-.52.1-.72.19s-.41.21-.62.35c-.21.14-.38.34-.49.6-.12.26-.17.55-.17.88,0,.57.18,1.03.53,1.37.35.35.82.52,1.4.52.42,0,.79-.11,1.13-.32.34-.21.53-.43.58-.64h.02Zm-.52-.44c-.15.08-.27.14-.35.16s-.17.04-.26.04c-.54,0-.82-.27-.82-.82,0-.25.06-.45.18-.61.12-.16.29-.27.52-.33.23-.06.43-.11.61-.13.18-.02.39-.03.64-.03v.36c0,.35-.05.64-.14.88-.1.23-.22.39-.37.47Z"/>
      <path d="m25.64,12.67h.43c.42,0,.75-.11.98-.34s.34-.54.34-.94-.11-.71-.34-.94-.55-.34-.98-.34h-1.2v4.19h.77v-1.64Zm0-1.96h.29c.24,0,.41.06.52.17s.17.28.17.52c0,.46-.23.69-.69.69h-.29v-1.37Z"/>
      <path d="m29.88,11.49c-.14-.11-.28-.19-.43-.24-.15-.05-.31-.08-.48-.08s-.33.03-.48.08c-.15.05-.29.13-.43.24-.14.11-.25.28-.33.49-.08.22-.12.48-.12.78,0,.25.03.47.08.66.06.19.13.35.21.46.09.12.19.21.32.28.12.07.25.12.37.15.12.03.25.04.38.04.17,0,.33-.02.48-.07.15-.05.29-.13.43-.24.14-.11.25-.27.33-.49.08-.22.12-.48.12-.79s-.04-.56-.12-.78c-.08-.22-.19-.38-.32-.49Zm-.91,2.34c-.4,0-.59-.36-.59-1.07s.2-1.06.59-1.06.59.35.59,1.06-.2,1.07-.59,1.07Z"/>
      <path d="m31.6,13.8c-.06,0-.13,0-.2-.01-.07-.01-.13-.03-.19-.05s-.11-.04-.15-.05-.09-.03-.14-.06-.08-.04-.09-.04l-.04.62c.26.1.55.15.86.15.34,0,.62-.08.83-.25.21-.16.32-.39.32-.67,0-.17-.04-.31-.13-.41-.09-.11-.24-.23-.44-.37l-.37-.23c-.13-.08-.22-.15-.27-.2-.05-.05-.08-.12-.08-.19,0-.2.14-.3.43-.3.2,0,.42.05.65.14l.04-.58c-.25-.08-.51-.13-.77-.13-.31,0-.57.09-.77.27-.2.18-.3.38-.3.61,0,.12.02.22.05.31.03.09.09.17.17.24.08.07.14.13.19.17.05.04.13.09.24.15l.31.18c.22.13.33.26.33.39,0,.2-.16.31-.48.31Z"/>
      <path d="m33.63,13.46c0,.32.07.54.22.69.15.14.36.21.64.21.19,0,.35-.03.5-.1v-.53c-.08.04-.17.07-.28.07-.12,0-.2-.03-.25-.09-.05-.06-.08-.17-.08-.33v-1.6h.62v-.55h-.62v-.86l-.74.23v.64h-.49v.55h.49v1.69Z"/>
      <path d="m37.73,14.16l-.04-.59c-.22.16-.49.24-.81.24-.52,0-.79-.28-.79-.85h1.79v-.14c0-.59-.11-1.01-.34-1.27s-.52-.38-.9-.38-.69.16-.92.47c-.23.31-.35.7-.35,1.17s.12.82.36,1.11c.24.29.6.44,1.07.44.3,0,.61-.07.92-.2Zm-1.49-2.24c.09-.16.23-.24.41-.24.34,0,.52.27.52.82h-1.07c0-.23.05-.42.14-.58Z"/>
      <path d="m39.16,13.8c-.06,0-.13,0-.2-.01-.07-.01-.13-.03-.19-.05-.06-.02-.11-.04-.15-.05s-.09-.03-.14-.06c-.05-.02-.08-.04-.09-.04l-.04.62c.26.1.55.15.86.15.34,0,.62-.08.83-.25.21-.16.32-.39.32-.67,0-.17-.04-.31-.13-.41-.09-.11-.24-.23-.44-.37l-.37-.23c-.13-.08-.22-.15-.27-.2-.05-.05-.08-.12-.08-.19,0-.2.14-.3.43-.3.2,0,.42.05.65.14l.04-.58c-.25-.08-.51-.13-.77-.13-.31,0-.57.09-.77.27-.2.18-.3.38-.3.61,0,.12.02.22.05.31.03.09.09.17.17.24.08.07.14.13.19.17s.13.09.24.15l.31.18c.22.13.33.26.33.39,0,.2-.16.31-.48.31Z"/>
      <path d="m45.13,22.71h-1.2v4.19h.77v-1.64h.43c.42,0,.75-.11.98-.34s.34-.54.34-.94-.11-.71-.34-.94-.55-.34-.98-.34Zm-.14,1.96h-.29v-1.37h.29c.24,0,.41.06.52.17.11.11.17.28.17.52,0,.46-.23.69-.69.69Z"/>
      <path d="m48.94,24.08c-.14-.11-.28-.19-.43-.24-.15-.05-.31-.08-.48-.08s-.33.03-.48.08c-.15.05-.29.13-.43.24-.14.11-.25.28-.33.49-.08.22-.12.48-.12.78,0,.25.03.47.08.66.06.19.13.35.21.46.09.12.19.21.31.28.12.07.25.12.37.15.12.03.25.04.38.04.17,0,.33-.02.48-.07s.29-.13.43-.24c.14-.11.25-.27.33-.49.08-.22.12-.48.12-.79s-.04-.56-.12-.78c-.08-.22-.19-.38-.32-.49Zm-.91,2.34c-.4,0-.59-.36-.59-1.07s.2-1.06.59-1.06.59.35.59,1.06-.2,1.07-.59,1.07Z"/>
      <path d="m51.29,25.26l-.37-.23c-.13-.08-.22-.15-.27-.2-.05-.05-.08-.12-.08-.19,0-.2.14-.3.43-.3.2,0,.42.05.65.14l.04-.58c-.25-.08-.51-.13-.77-.13-.31,0-.57.09-.77.27-.2.18-.3.38-.3.61,0,.12.02.22.05.31.03.09.09.17.17.24.08.07.14.13.19.17.05.04.13.09.24.15l.31.18c.22.13.33.26.33.39,0,.2-.16.31-.48.31-.06,0-.13,0-.2-.01-.07-.01-.13-.03-.19-.05s-.11-.04-.15-.05-.09-.03-.14-.06-.08-.04-.09-.04l-.04.62c.26.1.55.15.86.15.34,0,.62-.08.83-.25.21-.16.32-.39.32-.67,0-.17-.04-.31-.13-.41-.09-.11-.24-.23-.44-.37Z"/>
      <path d="m53.43,22.95l-.74.23v.64h-.49v.55h.49v1.69c0,.32.07.54.22.69s.36.21.65.21c.19,0,.35-.03.5-.1v-.53c-.08.04-.17.07-.28.07-.12,0-.2-.03-.25-.09-.05-.06-.08-.17-.08-.33v-1.6h.62v-.55h-.62v-.86Z"/>
      <path d="m14.76,13.44s-.01-.11.04-.12l4.51-.96c.06-.01.08-.1.03-.13l-1.02-.71s-.04-.09,0-.12l1.61-1.35s.03-.11-.03-.13l-2.02-.58s-.07-.07-.04-.11l.64-1.06c.03-.06-.02-.12-.08-.11l-3.26.69c-.05.01-.1-.04-.09-.09l.99-4.5c.01-.05-.04-.1-.09-.09l-1.82.39s-.09-.02-.09-.07l-.19-2.66c0-.07-.09-.09-.13-.04l-2.5,3.61s-.09.04-.12,0L7.48.03c-.04-.05-.12-.04-.13.03l-1.15,6.28c0,.05-.07.08-.11.05l-3.75-2.28c-.06-.04-.13.02-.11.09l.91,2.51s-.01.09-.05.1l-1.82.39c-.05.01-.08.07-.04.12l2.74,3.71s0,.11-.04.12l-3.27.69c-.06.01-.08.1-.03.13l1.02.71s.04.09,0,.12L.03,14.14s-.03.11.03.13l2.02.58s.07.07.04.11l-.64,1.06c-.03.06.02.12.08.11l4.51-.96c.06-.01.1.04.09.09l-.89,2.91c-.02.07.05.12.11.08l4.89-2.98s.1,0,.11.05l.72,4.7s.05.07.09.06l.93-.2s.07-.05.06-.09l-.05-.18h0s-1.21-4.41-1.21-4.41c-.01-.05.03-.1.08-.09l5.68.73c.07,0,.11-.07.07-.12l-1.99-2.29Z"/>
    </g>
  </g>
</svg>