<svg xmlns="http://www.w3.org/2000/svg" xmlns:xlink="http://www.w3.org/1999/xlink" width="624" height="230" viewBox="0 0 624 230">
  <defs>
    <clipPath id="clip-path">
      <rect id="Rectangle_557" data-name="Rectangle 557" width="353.032" height="176" fill="none"/>
    </clipPath>
    <clipPath id="clip-PCP">
      <rect width="624" height="230"/>
    </clipPath>
  </defs>
  <g id="PCP" clip-path="url(#clip-PCP)">
    <rect width="624" height="230" fill="#f4f4f4"/>
    <g id="Group_239" data-name="Group 239" transform="translate(135.5 27)">
      <g id="Group_238" data-name="Group 238" transform="translate(0 0)" clip-path="url(#clip-path)">
        <path id="Path_1635" data-name="Path 1635" d="M55.373,56.753a16.257,16.257,0,0,1-1.724.784q-.823.314-2.155.745a18.045,18.045,0,0,1-2.939.666,23.556,23.556,0,0,1-3.409.235,12.725,12.725,0,0,1-10.267-4.977Q30.8,49.229,30.8,41.313q0-8.308,3.8-13.167A12.391,12.391,0,0,1,44.91,23.287a22.5,22.5,0,0,1,11.129,3.135l.627-10.659A37.706,37.706,0,0,0,42.245,13.1a24.311,24.311,0,0,0-6.819.98A23.651,23.651,0,0,0,28.8,17.252a23.657,23.657,0,0,0-9.679,13.324,35.464,35.464,0,0,0-1.489,10.581q0,12.854,7.093,20.691t18.379,7.838a44.823,44.823,0,0,0,13.716-1.959l-.47-11.443a7.072,7.072,0,0,0-.98.47" transform="translate(97.545 72.449)"/>
        <path id="Path_1636" data-name="Path 1636" d="M59.455,30.318q0-7.446-3.762-11.247t-13.879-3.8q-5.006,0-13.167,2.586l.555,9.17a22.3,22.3,0,0,1,11.365-3.605,11.646,11.646,0,0,1,2.038.157,11.971,11.971,0,0,1,2.345.784,4.672,4.672,0,0,1,2.358,2.39,10.358,10.358,0,0,1,.862,4.507H44.4c-1.15,0-2.162.026-3.057.078s-2.227.2-4.036.431a16.689,16.689,0,0,0-4.7,1.254,26.9,26.9,0,0,0-4.082,2.312,9.184,9.184,0,0,0-3.207,3.919,13.621,13.621,0,0,0-1.136,5.721,12.033,12.033,0,0,0,3.449,8.974,12.474,12.474,0,0,0,9.17,3.409,13.678,13.678,0,0,0,7.4-2.077q3.331-2.077,3.8-4.193h.163l.314,5.643h11.28q-.314-3.684-.307-11.521ZM48.169,39.41a15.182,15.182,0,0,1-.94,5.721,5.953,5.953,0,0,1-2.436,3.1,11.887,11.887,0,0,1-2.312,1.058,6.069,6.069,0,0,1-1.685.235q-5.33,0-5.33-5.33a5.822,5.822,0,0,1,4.585-6.113,25.641,25.641,0,0,1,3.965-.823,37.53,37.53,0,0,1,4.154-.2Z" transform="translate(133.781 84.463)"/>
        <path id="Path_1637" data-name="Path 1637" d="M53.614,15.27q-8.386,0-11.521,7.446h-.157q0-3.213-.313-6.819H30.336a84.651,84.651,0,0,1,.314,8.543V56.731H43.033V33.845q0-8.7,5.408-8.7,4.781,0,4.781,6.427V56.731H65.605V30q0-14.735-11.992-14.735" transform="translate(167.799 84.463)"/>
        <path id="Path_1638" data-name="Path 1638" d="M71.554,30.318q0-7.446-3.762-11.247T53.92,15.27q-5.016,0-13.167,2.586l.549,9.17a22.338,22.338,0,0,1,11.365-3.605,11.542,11.542,0,0,1,2.038.157,12.146,12.146,0,0,1,2.351.784,4.662,4.662,0,0,1,2.351,2.39,10.265,10.265,0,0,1,.862,4.507H56.506q-1.724,0-3.057.078t-4.036.431a16.676,16.676,0,0,0-4.7,1.254,27.161,27.161,0,0,0-4.076,2.312,9.2,9.2,0,0,0-3.213,3.919,13.722,13.722,0,0,0-1.136,5.721,12.058,12.058,0,0,0,3.449,8.974,12.474,12.474,0,0,0,9.17,3.409,13.716,13.716,0,0,0,7.407-2.077q3.331-2.077,3.8-4.193h.157l.314,5.643H71.868q-.314-3.684-.314-11.521ZM60.268,39.41a15.054,15.054,0,0,1-.941,5.721,5.945,5.945,0,0,1-2.43,3.1,12.247,12.247,0,0,1-2.312,1.058,6.1,6.1,0,0,1-1.685.235q-5.33,0-5.33-5.33a5.806,5.806,0,0,1,4.585-6.113,25.575,25.575,0,0,1,3.958-.823,37.53,37.53,0,0,1,4.154-.2Z" transform="translate(200.705 84.463)"/>
        <path id="Path_1639" data-name="Path 1639" d="M67.753,64.893h.157q0,3.37.313,6.505H79.98q-.313-3.762-.313-9.17V12.616H67.283V36.6h-.157q-2.665-6.662-10.5-6.662-7.289,0-10.816,5.6T42.281,50q0,9.954,3.8,15.989a11.849,11.849,0,0,0,10.542,6.035q7.593,0,11.129-7.132M55.291,46.239a19.488,19.488,0,0,1,.745-3.88,5.67,5.67,0,0,1,1.842-2.978,5.04,5.04,0,0,1,3.213-.98q6.192,0,6.192,12.619a23.407,23.407,0,0,1-1.411,8.347c-.941,2.482-2.541,3.723-4.781,3.723q-5.957,0-5.957-12.07,0-2.9.157-4.781" transform="translate(233.871 69.783)"/>
        <path id="Path_1640" data-name="Path 1640" d="M72.587,51.086l.313,5.643H84.187q-.313-3.684-.313-11.521V30.316q0-7.446-3.762-11.247t-13.873-3.8q-5.016,0-13.167,2.586l.549,9.17a22.338,22.338,0,0,1,11.365-3.605,11.541,11.541,0,0,1,2.038.157,12.145,12.145,0,0,1,2.351.784,4.662,4.662,0,0,1,2.351,2.39,10.265,10.265,0,0,1,.862,4.507H68.825q-1.724,0-3.057.078t-4.036.431a16.675,16.675,0,0,0-4.7,1.254,27.161,27.161,0,0,0-4.076,2.312,9.2,9.2,0,0,0-3.213,3.919A13.722,13.722,0,0,0,48.6,44.973a12.058,12.058,0,0,0,3.449,8.974,12.474,12.474,0,0,0,9.17,3.409,13.716,13.716,0,0,0,7.407-2.077q3.331-2.077,3.8-4.193Zm-3.37-2.861A12.245,12.245,0,0,1,66.9,49.283a6.1,6.1,0,0,1-1.685.235q-5.33,0-5.33-5.33a5.806,5.806,0,0,1,4.585-6.113,25.573,25.573,0,0,1,3.958-.823,37.53,37.53,0,0,1,4.154-.2v2.351a15.055,15.055,0,0,1-.941,5.721,5.945,5.945,0,0,1-2.43,3.1" transform="translate(268.845 84.452)"/>
        <path id="Path_1641" data-name="Path 1641" d="M29.892,26.778h2.822a8.63,8.63,0,0,0,6.368-2.214A8.289,8.289,0,0,0,41.3,18.431,8.263,8.263,0,0,0,39.1,12.318c-1.463-1.463-3.6-2.195-6.388-2.195H24.869V37.476h5.023Zm0-12.814h1.881a4.66,4.66,0,0,1,3.409,1.1,4.589,4.589,0,0,1,1.1,3.37q0,4.507-4.507,4.507H29.892Z" transform="translate(137.559 55.993)"/>
        <path id="Path_1642" data-name="Path 1642" d="M42.458,13.25a8.794,8.794,0,0,0-2.808-1.587,10.382,10.382,0,0,0-6.3,0,8.992,8.992,0,0,0-2.822,1.587,7.269,7.269,0,0,0-2.136,3.233,14.745,14.745,0,0,0-.784,5.075,15.42,15.42,0,0,0,.549,4.311,9.547,9.547,0,0,0,1.391,3.017A7.005,7.005,0,0,0,31.6,30.747a7.979,7.979,0,0,0,2.39.98,11.827,11.827,0,0,0,2.508.255,10.035,10.035,0,0,0,3.129-.47,8.869,8.869,0,0,0,2.808-1.548,7.123,7.123,0,0,0,2.136-3.233,15.349,15.349,0,0,0,.777-5.173,14.911,14.911,0,0,0-.777-5.075,7.354,7.354,0,0,0-2.116-3.233M36.5,28.533q-3.88,0-3.88-6.975,0-6.936,3.88-6.936,3.84,0,3.84,6.936,0,6.975-3.84,6.975" transform="translate(152.698 61.801)"/>
        <path id="Path_1643" data-name="Path 1643" d="M36.082,28.3a8.886,8.886,0,0,1-1.293-.1,7.872,7.872,0,0,1-1.274-.294q-.607-.2-1-.333T31.6,27.2a5.764,5.764,0,0,0-.568-.235L30.792,31a15.489,15.489,0,0,0,5.6.98,8.675,8.675,0,0,0,5.428-1.607,5.191,5.191,0,0,0,2.1-4.35,4.142,4.142,0,0,0-.862-2.7,13.124,13.124,0,0,0-2.9-2.39L37.767,19.4A9.8,9.8,0,0,1,36,18.09a1.77,1.77,0,0,1-.509-1.274q0-1.959,2.782-1.959a11.836,11.836,0,0,1,4.271.9L42.823,12a15.885,15.885,0,0,0-5.055-.823,7.263,7.263,0,0,0-5.016,1.744,5.216,5.216,0,0,0-1.959,3.978,5.685,5.685,0,0,0,.333,2.018,4.147,4.147,0,0,0,1.1,1.587A15.287,15.287,0,0,0,33.5,21.577q.509.372,1.568,1l2,1.176q2.155,1.254,2.155,2.547,0,2-3.135,2" transform="translate(170.321 61.801)"/>
        <path id="Path_1644" data-name="Path 1644" d="M36.351,30.617q0,3.1,1.43,4.487A5.8,5.8,0,0,0,41.988,36.5a7.565,7.565,0,0,0,3.259-.666V32.381a3.763,3.763,0,0,1-1.842.431A2.1,2.1,0,0,1,41.74,32.2a3.369,3.369,0,0,1-.529-2.175V19.566h4.036V16H41.211V10.357l-4.859,1.489V16H33.138v3.566h3.213Z" transform="translate(183.298 57.287)"/>
        <path id="Path_1645" data-name="Path 1645" d="M50.743,30.689l-.235-3.84a8.645,8.645,0,0,1-5.29,1.568q-5.134,0-5.134-5.526H51.762V21.95q0-5.761-2.214-8.269a7.433,7.433,0,0,0-5.859-2.508,7.17,7.17,0,0,0-6.035,3.037,12.433,12.433,0,0,0-2.273,7.661,11.04,11.04,0,0,0,2.351,7.25q2.351,2.861,6.975,2.861a15.4,15.4,0,0,0,6.035-1.293M40.985,16.032a2.927,2.927,0,0,1,2.7-1.568q3.37,0,3.37,5.369H40.084a7.51,7.51,0,0,1,.9-3.8" transform="translate(195.704 61.801)"/>
        <path id="Path_1646" data-name="Path 1646" d="M43.635,28.3a8.887,8.887,0,0,1-1.293-.1,7.872,7.872,0,0,1-1.274-.294q-.607-.2-1-.333t-.921-.372a5.086,5.086,0,0,0-.568-.235L38.345,31a15.489,15.489,0,0,0,5.6.98,8.675,8.675,0,0,0,5.428-1.607,5.191,5.191,0,0,0,2.1-4.35,4.142,4.142,0,0,0-.862-2.7,12.969,12.969,0,0,0-2.9-2.39L45.32,19.4a9.8,9.8,0,0,1-1.763-1.313,1.77,1.77,0,0,1-.509-1.274q0-1.959,2.782-1.959a11.836,11.836,0,0,1,4.271.9L50.376,12a15.885,15.885,0,0,0-5.055-.823A7.263,7.263,0,0,0,40.3,12.917a5.216,5.216,0,0,0-1.959,3.978,5.685,5.685,0,0,0,.333,2.018,4.147,4.147,0,0,0,1.1,1.587,15.287,15.287,0,0,0,1.274,1.078q.509.372,1.568,1l2,1.176Q46.77,25.006,46.77,26.3q0,2-3.135,2" transform="translate(212.099 61.801)"/>
        <path id="Path_1647" data-name="Path 1647" d="M51.768,22.711H43.93V50.064h5.016v-10.7h2.822a8.619,8.619,0,0,0,6.368-2.214,8.289,8.289,0,0,0,2.214-6.133,8.263,8.263,0,0,0-2.195-6.113c-1.47-1.463-3.592-2.195-6.388-2.195m-.941,12.814H48.946V26.551h1.881a4.65,4.65,0,0,1,3.409,1.1,4.589,4.589,0,0,1,1.1,3.37c0,3-1.509,4.507-4.507,4.507" transform="translate(242.992 125.622)"/>
        <path id="Path_1648" data-name="Path 1648" d="M61.518,25.838a8.765,8.765,0,0,0-2.8-1.587,10.4,10.4,0,0,0-6.309,0,8.991,8.991,0,0,0-2.822,1.587,7.269,7.269,0,0,0-2.136,3.233,14.745,14.745,0,0,0-.784,5.075,15.42,15.42,0,0,0,.549,4.311,9.546,9.546,0,0,0,1.391,3.017,7,7,0,0,0,2.057,1.861,7.979,7.979,0,0,0,2.39.98,11.826,11.826,0,0,0,2.508.255A10.107,10.107,0,0,0,58.7,44.1a8.912,8.912,0,0,0,2.8-1.548,7.123,7.123,0,0,0,2.136-3.233,15.177,15.177,0,0,0,.784-5.173,14.744,14.744,0,0,0-.784-5.075,7.354,7.354,0,0,0-2.116-3.233M55.562,41.121q-3.88,0-3.88-6.975,0-6.936,3.88-6.936,3.84,0,3.84,6.936,0,6.975-3.84,6.975" transform="translate(258.126 131.43)"/>
        <path id="Path_1649" data-name="Path 1649" d="M59.218,33.519l-2.39-1.528a9.8,9.8,0,0,1-1.763-1.313,1.77,1.77,0,0,1-.509-1.274q0-1.959,2.782-1.959a11.836,11.836,0,0,1,4.271.9l.274-3.762a15.885,15.885,0,0,0-5.055-.823A7.263,7.263,0,0,0,51.811,25.5a5.216,5.216,0,0,0-1.959,3.978,5.686,5.686,0,0,0,.333,2.018,4.147,4.147,0,0,0,1.1,1.587,15.286,15.286,0,0,0,1.274,1.078q.509.372,1.568,1l2,1.176q2.155,1.254,2.155,2.547,0,2-3.135,2a8.888,8.888,0,0,1-1.293-.1,7.873,7.873,0,0,1-1.274-.294q-.607-.2-1-.333t-.921-.372a5.085,5.085,0,0,0-.568-.235l-.235,4.036a15.489,15.489,0,0,0,5.6.98,8.675,8.675,0,0,0,5.428-1.607,5.191,5.191,0,0,0,2.1-4.35,4.142,4.142,0,0,0-.862-2.7,12.969,12.969,0,0,0-2.9-2.39" transform="translate(275.748 131.43)"/>
        <path id="Path_1650" data-name="Path 1650" d="M60.271,22.945l-4.859,1.489v4.154H52.2v3.566h3.213V43.205q0,3.1,1.43,4.487a5.81,5.81,0,0,0,4.213,1.391,7.535,7.535,0,0,0,3.253-.666V44.969a3.763,3.763,0,0,1-1.842.431,2.1,2.1,0,0,1-1.666-.607,3.369,3.369,0,0,1-.529-2.175V32.154h4.036V28.588H60.271Z" transform="translate(288.725 126.916)"/>
        <path id="Path_1651" data-name="Path 1651" d="M96.391,87.774a.483.483,0,0,1,.268-.79l29.456-6.264a.481.481,0,0,0,.17-.869l-6.649-4.631a.478.478,0,0,1-.033-.764l10.509-8.85a.483.483,0,0,0-.176-.836l-13.2-3.808a.478.478,0,0,1-.281-.712l4.193-6.943a.487.487,0,0,0-.516-.725L98.808,57.116a.485.485,0,0,1-.575-.575l6.473-29.4a.483.483,0,0,0-.568-.581L92.224,29.1a.482.482,0,0,1-.581-.438L90.4,11.272a.486.486,0,0,0-.882-.242l-16.3,23.578a.482.482,0,0,1-.8,0L48.856.208A.485.485,0,0,0,47.981.4l-7.524,41a.488.488,0,0,1-.732.327L15.246,26.817a.485.485,0,0,0-.705.581l5.924,16.387a.482.482,0,0,1-.353.64L8.205,46.953a.482.482,0,0,0-.287.764l17.87,24.225a.483.483,0,0,1-.287.758L4.169,77.232A.481.481,0,0,0,4,78.1l6.649,4.637a.482.482,0,0,1,.039.764L.172,92.352a.485.485,0,0,0,.176.836L13.554,97a.482.482,0,0,1,.281.712l-4.193,6.936a.483.483,0,0,0,.509.725l29.463-6.264a.489.489,0,0,1,.562.62L34.383,118.7a.483.483,0,0,0,.712.555l31.964-19.47a.482.482,0,0,1,.725.34l4.7,30.7a.479.479,0,0,0,.575.4l6.107-1.293a.484.484,0,0,0,.366-.6l-.32-1.176.007-.007L71.331,99.36a.482.482,0,0,1,.529-.594l37.118,4.781a.482.482,0,0,0,.425-.8Z" transform="translate(-0.002 0)"/>
      </g>
    </g>
  </g>
</svg>
