<svg xmlns="http://www.w3.org/2000/svg" width="479.848" height="136.572" viewBox="0 0 479.848 136.572">
  <path id="Union_377" data-name="Union 377" d="M192.944,135.363V132q.49.07.945.158a4.98,4.98,0,0,0,.945.088,3.24,3.24,0,0,0,1.155-.176,1.9,1.9,0,0,0,.752-.508,3.118,3.118,0,0,0,.508-.787,7.714,7.714,0,0,0,.385-1.049l.455-1.4L191.228,110.3H195.6l4.725,13.51h.069l4.586-13.51h4.165l-7.035,19.076q-.49,1.224-.963,2.344A8.391,8.391,0,0,1,200,133.7a4.985,4.985,0,0,1-1.7,1.364,5.784,5.784,0,0,1-2.59.508A18.219,18.219,0,0,1,192.944,135.363Zm183.26-.28V110.3h3.78v2.451h.07a4.935,4.935,0,0,1,2.345-2.258,7.791,7.791,0,0,1,3.254-.682,8.648,8.648,0,0,1,3.728.752,7.345,7.345,0,0,1,2.642,2.065,8.978,8.978,0,0,1,1.575,3.063,12.969,12.969,0,0,1,.525,3.745,13.248,13.248,0,0,1-.473,3.535A9.2,9.2,0,0,1,392.216,126a6.995,6.995,0,0,1-5.9,2.887,9.827,9.827,0,0,1-1.75-.158,7.489,7.489,0,0,1-1.68-.508,6.625,6.625,0,0,1-1.488-.892,4.952,4.952,0,0,1-1.138-1.278h-.069v9.031Zm5.127-20.371a7.728,7.728,0,0,0-1.277,4.656,9.281,9.281,0,0,0,.332,2.537,5.719,5.719,0,0,0,1,2.012,4.978,4.978,0,0,0,1.592,1.33,4.543,4.543,0,0,0,2.153.49,4.458,4.458,0,0,0,2.31-.56A4.889,4.889,0,0,0,389,123.725a5.878,5.878,0,0,0,.875-2.029,10.293,10.293,0,0,0,.263-2.327,9.021,9.021,0,0,0-.315-2.381,6.458,6.458,0,0,0-.945-2.048,4.874,4.874,0,0,0-1.575-1.435,4.279,4.279,0,0,0-2.17-.543A4.4,4.4,0,0,0,381.331,114.712ZM369.169,128.4a2.437,2.437,0,0,1-1.05-1.715,7.058,7.058,0,0,1-2.922,1.68,11.511,11.511,0,0,1-3.343.525,8.207,8.207,0,0,1-2.345-.332,6.145,6.145,0,0,1-1.977-.98,4.7,4.7,0,0,1-1.365-1.645,5.067,5.067,0,0,1-.508-2.327,5.373,5.373,0,0,1,.613-2.73,4.54,4.54,0,0,1,1.61-1.645,7.274,7.274,0,0,1,2.24-.858q1.242-.262,2.5-.4a20.431,20.431,0,0,1,2.065-.3,9.68,9.68,0,0,0,1.733-.3,2.659,2.659,0,0,0,1.19-.648,1.782,1.782,0,0,0,.437-1.312,2.046,2.046,0,0,0-.367-1.26,2.459,2.459,0,0,0-.91-.752,3.947,3.947,0,0,0-1.208-.35,9.647,9.647,0,0,0-1.26-.087,5.009,5.009,0,0,0-2.765.7,2.727,2.727,0,0,0-1.225,2.17h-3.991a6,6,0,0,1,.841-2.905,5.794,5.794,0,0,1,1.872-1.855,7.65,7.65,0,0,1,2.573-.98,15.338,15.338,0,0,1,2.939-.28,12.412,12.412,0,0,1,2.625.28,7.443,7.443,0,0,1,2.327.91,5.043,5.043,0,0,1,1.662,1.627,4.464,4.464,0,0,1,.63,2.433v9.311a2.121,2.121,0,0,0,.193,1.049.81.81,0,0,0,.752.315h.42a2.659,2.659,0,0,0,.56-.069v2.765q-.209.07-.543.158t-.682.157c-.233.047-.466.081-.7.1s-.431.035-.595.035A3.845,3.845,0,0,1,369.169,128.4Zm-3.605-8.347q-1.33.123-2.66.367a8.533,8.533,0,0,0-1.225.3,3.686,3.686,0,0,0-1.049.525,2.307,2.307,0,0,0-.718.875,3,3,0,0,0-.262,1.313,1.671,1.671,0,0,0,.385,1.12,2.786,2.786,0,0,0,.927.717,4.291,4.291,0,0,0,1.19.368,7.469,7.469,0,0,0,1.173.1,6.537,6.537,0,0,0,1.436-.175,4.777,4.777,0,0,0,1.452-.595,3.825,3.825,0,0,0,1.138-1.067,2.7,2.7,0,0,0,.455-1.593v-2.975A4.855,4.855,0,0,1,365.564,120.05Zm-66.1,8.12a8.253,8.253,0,0,1-2.87-1.977,8.462,8.462,0,0,1-1.785-3.01,12.3,12.3,0,0,1,0-7.664,8.469,8.469,0,0,1,1.785-3.01,8.265,8.265,0,0,1,2.87-1.977,10.786,10.786,0,0,1,7.736,0,8.265,8.265,0,0,1,2.87,1.977,8.469,8.469,0,0,1,1.785,3.01,12.287,12.287,0,0,1,0,7.664,8.462,8.462,0,0,1-1.785,3.01,8.253,8.253,0,0,1-2.87,1.977,10.786,10.786,0,0,1-7.736,0Zm1.558-14.648a4.95,4.95,0,0,0-1.61,1.453,6.193,6.193,0,0,0-.928,2.047,9.2,9.2,0,0,0,0,4.638,6.427,6.427,0,0,0,.928,2.048,4.872,4.872,0,0,0,1.61,1.47,5.045,5.045,0,0,0,4.62,0,4.872,4.872,0,0,0,1.61-1.47,6.427,6.427,0,0,0,.928-2.048,9.2,9.2,0,0,0,0-4.638,6.193,6.193,0,0,0-.928-2.047,4.95,4.95,0,0,0-1.61-1.453,5.045,5.045,0,0,0-4.62,0Zm-44.59,14.665a7.821,7.821,0,0,1-2.782-1.96,8.317,8.317,0,0,1-1.715-3.01,12.218,12.218,0,0,1-.577-3.849,10.884,10.884,0,0,1,.612-3.658,9.366,9.366,0,0,1,1.751-3.046,8.2,8.2,0,0,1,6.387-2.852,8.1,8.1,0,0,1,3.832.893,8.407,8.407,0,0,1,2.818,2.362,9.565,9.565,0,0,1,1.627,3.377,10.361,10.361,0,0,1,.263,3.938h-13.3a6.963,6.963,0,0,0,.3,2.03,5,5,0,0,0,.893,1.715,4.3,4.3,0,0,0,1.5,1.173,4.967,4.967,0,0,0,2.17.437,4.789,4.789,0,0,0,2.818-.752,4.439,4.439,0,0,0,1.592-2.257h3.78a7.5,7.5,0,0,1-2.939,4.568,8.016,8.016,0,0,1-2.433,1.19,9.8,9.8,0,0,1-2.818.4A9.592,9.592,0,0,1,256.433,128.188ZM258.2,113.33a4.358,4.358,0,0,0-1.47,1.015,5.008,5.008,0,0,0-.98,1.523,5.316,5.316,0,0,0-.4,1.89h9.31a6.459,6.459,0,0,0-.4-1.821,4.832,4.832,0,0,0-.91-1.522,4.5,4.5,0,0,0-1.4-1.05,4.122,4.122,0,0,0-1.837-.4A4.8,4.8,0,0,0,258.2,113.33ZM186.294,128.4a2.443,2.443,0,0,1-1.05-1.715,7.047,7.047,0,0,1-2.922,1.68,11.5,11.5,0,0,1-3.343.525,8.2,8.2,0,0,1-2.344-.332,6.136,6.136,0,0,1-1.977-.98,4.693,4.693,0,0,1-1.365-1.645,5.067,5.067,0,0,1-.508-2.327,5.373,5.373,0,0,1,.613-2.73,4.538,4.538,0,0,1,1.609-1.645,7.283,7.283,0,0,1,2.24-.858q1.243-.262,2.5-.4a20.414,20.414,0,0,1,2.065-.3,9.666,9.666,0,0,0,1.732-.3,2.658,2.658,0,0,0,1.191-.648,1.782,1.782,0,0,0,.437-1.312,2.04,2.04,0,0,0-.368-1.26,2.459,2.459,0,0,0-.91-.752,3.949,3.949,0,0,0-1.207-.35,9.658,9.658,0,0,0-1.26-.087,5.01,5.01,0,0,0-2.766.7,2.732,2.732,0,0,0-1.225,2.17h-3.99a6.013,6.013,0,0,1,.84-2.905,5.8,5.8,0,0,1,1.873-1.855,7.638,7.638,0,0,1,2.572-.98,15.348,15.348,0,0,1,2.94-.28,12.4,12.4,0,0,1,2.624.28,7.44,7.44,0,0,1,2.328.91,5.06,5.06,0,0,1,1.662,1.627,4.472,4.472,0,0,1,.63,2.433v9.311a2.111,2.111,0,0,0,.193,1.049.809.809,0,0,0,.752.315h.419a2.667,2.667,0,0,0,.561-.069v2.765q-.211.07-.543.158t-.682.157c-.234.047-.467.081-.7.1s-.432.035-.595.035A3.846,3.846,0,0,1,186.294,128.4Zm-3.6-8.347q-1.331.123-2.66.367a8.5,8.5,0,0,0-1.225.3,3.68,3.68,0,0,0-1.05.525,2.3,2.3,0,0,0-.717.875,3,3,0,0,0-.263,1.313,1.675,1.675,0,0,0,.385,1.12,2.789,2.789,0,0,0,.928.717,4.282,4.282,0,0,0,1.19.368,7.469,7.469,0,0,0,1.173.1,6.528,6.528,0,0,0,1.435-.175,4.782,4.782,0,0,0,1.453-.595,3.825,3.825,0,0,0,1.138-1.067,2.7,2.7,0,0,0,.454-1.593v-2.975A4.851,4.851,0,0,1,182.689,120.05ZM122.734,128.4a2.443,2.443,0,0,1-1.05-1.715,7.052,7.052,0,0,1-2.922,1.68,11.5,11.5,0,0,1-3.343.525,8.2,8.2,0,0,1-2.344-.332,6.15,6.15,0,0,1-1.978-.98,4.7,4.7,0,0,1-1.364-1.645,5.067,5.067,0,0,1-.508-2.327,5.382,5.382,0,0,1,.612-2.73,4.54,4.54,0,0,1,1.61-1.645,7.283,7.283,0,0,1,2.24-.858q1.242-.262,2.5-.4a20.378,20.378,0,0,1,2.065-.3,9.666,9.666,0,0,0,1.733-.3,2.654,2.654,0,0,0,1.19-.648,1.782,1.782,0,0,0,.437-1.312,2.046,2.046,0,0,0-.367-1.26,2.459,2.459,0,0,0-.91-.752,3.947,3.947,0,0,0-1.208-.35,9.637,9.637,0,0,0-1.26-.087,5.009,5.009,0,0,0-2.765.7,2.729,2.729,0,0,0-1.225,2.17h-3.99a6,6,0,0,1,.84-2.905,5.788,5.788,0,0,1,1.873-1.855,7.638,7.638,0,0,1,2.572-.98,15.348,15.348,0,0,1,2.94-.28,12.4,12.4,0,0,1,2.624.28,7.426,7.426,0,0,1,2.327.91,5.054,5.054,0,0,1,1.663,1.627,4.472,4.472,0,0,1,.63,2.433v9.311a2.122,2.122,0,0,0,.192,1.049.812.812,0,0,0,.753.315h.419a2.652,2.652,0,0,0,.56-.069v2.765q-.209.07-.542.158c-.222.058-.449.111-.683.157s-.466.081-.7.1-.432.035-.6.035A3.845,3.845,0,0,1,122.734,128.4Zm-3.605-8.347q-1.33.123-2.66.367a8.475,8.475,0,0,0-1.225.3,3.68,3.68,0,0,0-1.05.525,2.3,2.3,0,0,0-.717.875,2.986,2.986,0,0,0-.263,1.313,1.675,1.675,0,0,0,.385,1.12,2.8,2.8,0,0,0,.927.717,4.288,4.288,0,0,0,1.191.368,7.459,7.459,0,0,0,1.172.1,6.53,6.53,0,0,0,1.436-.175,4.792,4.792,0,0,0,1.453-.595,3.835,3.835,0,0,0,1.138-1.067,2.7,2.7,0,0,0,.455-1.593v-2.975A4.851,4.851,0,0,1,119.129,120.05Zm156.223,8.225a3.4,3.4,0,0,1-1.5-.875,3.024,3.024,0,0,1-.735-1.453,10.912,10.912,0,0,1-.228-2V113.278h-3.01V110.3h3.01v-5.424h3.991V110.3h3.6v2.975h-3.6v9.66a9.624,9.624,0,0,0,.052,1.085,1.879,1.879,0,0,0,.245.77,1.168,1.168,0,0,0,.578.472,2.833,2.833,0,0,0,1.049.158q.421,0,.841-.017a4.156,4.156,0,0,0,.84-.122v3.08q-.664.07-1.3.14a11.9,11.9,0,0,1-1.3.069A8.847,8.847,0,0,1,275.351,128.275Zm72.432.122V109.112h-.069l-6.93,19.285h-3.605l-6.93-19.285h-.07V128.4h-4.164v-24.99h6.16l6.895,19.565h.07l6.72-19.565h6.089V128.4Zm-64.435,0V110.3h3.745v3.5h.07a4.041,4.041,0,0,1,.682-1.435,6.665,6.665,0,0,1,1.225-1.278,6.215,6.215,0,0,1,1.593-.927,4.753,4.753,0,0,1,1.785-.35,8.644,8.644,0,0,1,.963.035l.542.07v3.849q-.42-.07-.857-.122a7.187,7.187,0,0,0-.858-.052,4.589,4.589,0,0,0-1.908.4,4.377,4.377,0,0,0-1.557,1.19,5.828,5.828,0,0,0-1.05,1.943,8.4,8.4,0,0,0-.385,2.66v8.61Zm-39.97,0V109.112h-.07l-6.93,19.285h-3.6l-6.93-19.285h-.07V128.4h-4.165v-24.99h6.16l6.9,19.565h.069l6.72-19.565h6.09V128.4Zm-81.935,0-3.36-13.44h-.07l-3.326,13.44h-4.2l-5.6-18.1h4.234l3.535,13.51h.07l3.395-13.51h4.025l3.255,13.51h.07l3.675-13.51h4.06l-5.67,18.1Zm-23.24,0v-24.99h3.99V128.4Zm-8.435,0V110.3h3.99v18.1Zm-27.2,0a4.086,4.086,0,0,1-.578-1.785q-.088-.98-.087-1.89a18.086,18.086,0,0,0-.21-2.958,5.159,5.159,0,0,0-.77-2.065,3.261,3.261,0,0,0-1.523-1.208,6.719,6.719,0,0,0-2.467-.384H90.5V128.4H86.124v-24.99H98.059q4.131,0,6.2,1.786a6.219,6.219,0,0,1,2.065,4.97,7.257,7.257,0,0,1-.525,2.957,6.48,6.48,0,0,1-1.225,1.89,4.789,4.789,0,0,1-1.383,1.032q-.682.315-1,.42v.07a4.45,4.45,0,0,1,1.208.349,3.564,3.564,0,0,1,1.207.893,4.86,4.86,0,0,1,.928,1.593,7.039,7.039,0,0,1,.367,2.45,22.2,22.2,0,0,0,.333,4.008,5.277,5.277,0,0,0,1.032,2.572ZM90.5,114.782h7.175a4.55,4.55,0,0,0,3.185-1,3.867,3.867,0,0,0,1.085-2.993,4.636,4.636,0,0,0-.35-1.943,2.831,2.831,0,0,0-.962-1.172,3.549,3.549,0,0,0-1.4-.561,9.339,9.339,0,0,0-1.627-.14H90.5ZM392,102a5,5,0,0,1,10,0c0,2.762-5,10-5,10S392,104.762,392,102Zm-262.231,5.188v-3.78h3.99v3.78Zm-9.409-50.26,14.884-.785c.924,4.44,4.508,6.748,9.908,6.748,5.291,0,8.807-2.309,8.878-5.541-.076-2.731-2.241-4.473-7-5.431l-9.446-1.883c-10.654-2.13-15.8-7.422-15.768-15.589-.035-10.51,9.162-16.974,23.118-16.974,13.778,0,21.874,6.214,23.224,16.264l-13.85.851c-.744-3.515-3.87-6.391-9.126-6.391-4.686,0-8.381,2.133-8.345,5.4-.035,2.628,1.847,4.369,6.926,5.468l9.872,1.989c10.581,2.166,15.73,6.889,15.766,14.773-.036,10.76-10.156,17.969-24.289,17.969C130.661,73.8,121.781,67.367,120.361,56.928Zm94.892.567c0-12.183,9.69-15.806,20.49-16.8,9.481-.923,13.209-1.384,13.209-4.9v-.213c0-4.475-2.951-7.067-8.1-7.067-5.433,0-8.664,2.664-9.695,6.287l-13.99-1.137c2.094-9.942,10.688-16.193,23.756-16.193,12.145,0,23.153,5.467,23.153,18.466v36.79H249.729V65.164H249.3c-2.664,5.079-7.884,8.594-15.944,8.594C222.953,73.758,215.248,68.289,215.252,57.495Zm23.29-7.6c-5.326.743-8.843,2.839-8.843,7.1,0,4.155,3.338,6.321,7.99,6.321h0c6.64,0,11.363-4.368,11.363-10.09V47.447C247.242,48.654,241.842,49.435,238.542,49.9ZM353.884,63.991h-.675v8.736H338.294V0h15.129V27.345h.463c2.023-4.44,6.392-9.873,15.518-9.873,11.966,0,22.088,9.3,22.088,28.054,0,18.253-9.695,28.089-22.124,28.089C360.56,73.615,355.984,68.536,353.884,63.991ZM353.1,45.454h0c0,9.731,4.19,16.123,11.469,16.123,7.422,0,11.47-6.605,11.47-16.123,0-9.445-3.976-15.944-11.47-15.944C357.221,29.509,353.1,35.724,353.1,45.454Zm-170.526,12.5V29.545H175.12V18.183h7.456V5.113H197.7v13.07h10.262l0,11.362H197.707V55.968c0,4.19,2.1,5.327,5.115,5.327a20.719,20.719,0,0,0,3.764-.5l2.374,11.257a29.47,29.47,0,0,1-8.2,1.421c-.441.019-.874.028-1.3.028C189.214,73.5,182.508,68.214,182.577,57.954ZM401.54,52.913V18.183h15.132v32.03c.035,6.428,3.729,10.441,9.445,10.441,5.429,0,10.435-3.836,10.4-11.152V18.183h15.127V72.727H437.122V62.821h-.568c-2.448,6.391-8.348,10.617-16.548,10.617C409.033,73.438,401.576,65.662,401.54,52.913ZM95.006,72.728V0h15.379V72.728Zm-57.509,0A37.5,37.5,0,0,1,3.364,19.7L29.539,33.207l9.3-16.453L47.214,32.3,71.631,19.7A37.5,37.5,0,0,1,37.5,72.728Zm426.223,0V0h15.128V72.727Zm-152.734,0V40.7c.035-6.676-3.623-10.653-9.695-10.653-6.108,0-10.3,4.12-10.334,11.151V72.727H275.83V18.183h14.418v9.623h.639c2.45-6.358,8.306-10.334,16.406-10.334,11.363,0,18.821,7.813,18.821,20.526V72.727Z" transform="translate(0.5 0.5)" fill="#fff" stroke="rgba(0,0,0,0)" stroke-miterlimit="10" stroke-width="1"/>
</svg>
