<svg xmlns="http://www.w3.org/2000/svg" xmlns:xlink="http://www.w3.org/1999/xlink" width="624" height="230" viewBox="0 0 624 230">
  <defs>
    <clipPath id="clip-path">
      <rect id="Rectangle_426" data-name="Rectangle 426" width="350" height="81.839" fill="none"/>
    </clipPath>
    <clipPath id="clip-RT">
      <rect width="624" height="230"/>
    </clipPath>
  </defs>
  <g id="RT" clip-path="url(#clip-RT)">
    <rect width="624" height="230" fill="#f4f4f4"/>
    <g id="Group_128" data-name="Group 128" transform="translate(137 74.08)">
      <g id="Group_127" data-name="Group 127" clip-path="url(#clip-path)">
        <path id="Path_979" data-name="Path 979" d="M196.86,33h6.557a.425.425,0,0,0,.428-.426l-.14-11.831h4.784l3.3,4.9,4.258,6.979a.833.833,0,0,0,.67.376h7.609a.237.237,0,0,0,.191-.376l-8.326-12.637c4.738-1.413,7.465-4.76,7.465-9.616C223.657,3.489,218.826,0,210.45,0H196.86a.425.425,0,0,0-.428.426l.191,16.077-.191,16.072a.425.425,0,0,0,.428.426M203.8,5.232h6.939c3.732,0,5.887,1.7,5.887,5.282s-2.634,5-5.7,5h-7.274Z" transform="translate(-119.009)"/>
        <path id="Path_980" data-name="Path 980" d="M279.434,46.39c8.037,0,12.584-5.094,12.584-12.825s-4.546-12.679-12.584-12.679-12.682,5.09-12.682,12.822S271.4,46.39,279.434,46.39m-.047-20.79c3.538,0,5.264,2.637,5.264,8.107,0,5.562-1.676,7.969-5.217,7.969-3.588,0-5.361-2.453-5.361-7.923s1.675-8.107,5.314-8.153" transform="translate(-161.613 -12.775)"/>
        <path id="Path_981" data-name="Path 981" d="M335.7,33h6.413a.425.425,0,0,0,.428-.426l-.144-2.165a8.916,8.916,0,0,0,7.13,3.063c6.7,0,10.815-5.658,10.815-12.683,0-7.071-3.686-12.541-10.671-12.541a9.01,9.01,0,0,0-7.223,3.255L342.49.426A.426.426,0,0,0,342.058,0H335.7a.428.428,0,0,0-.433.426l.144,16.077-.144,16.072A.428.428,0,0,0,335.7,33m11.961-19.942c3.448-.046,5.361,2.687,5.361,8.015,0,4.9-1.866,7.685-5.505,7.589-3.444-.046-5.31-2.875-5.259-8.061.047-5,1.913-7.543,5.4-7.543" transform="translate(-203.121)"/>
        <path id="Path_982" data-name="Path 982" d="M404.074,6.365h6.413a.424.424,0,0,0,.428-.422V.426A.425.425,0,0,0,410.488,0h-6.413a.425.425,0,0,0-.428.426V5.942a.424.424,0,0,0,.428.422" transform="translate(-244.551)"/>
        <path id="Path_983" data-name="Path 983" d="M404.074,46.739h6.46a.428.428,0,0,0,.432-.426l-.144-11.689.144-11.739a.428.428,0,0,0-.432-.426h-6.46a.425.425,0,0,0-.428.426l.14,11.739-.14,11.689a.425.425,0,0,0,.428.426" transform="translate(-244.551 -13.737)"/>
        <path id="Path_984" data-name="Path 984" d="M435.579,33.734c0-5.186,2.778-7.543,5.361-7.543,2.155,0,3.733,1.7,3.733,4.337v4.994l-.1,9.9a.426.426,0,0,0,.432.426h6.413a.425.425,0,0,0,.428-.426l-.144-9.9v-5.09c0-5.939-3.347-9.428-8.564-9.428a10.015,10.015,0,0,0-7.944,3.628L435.341,22a.425.425,0,0,0-.428-.426h-6.078A.426.426,0,0,0,428.4,22l.051,12.211-.144,11.217a.425.425,0,0,0,.428.426h6.51a.425.425,0,0,0,.428-.426l-.1-9.9Z" transform="translate(-259.493 -12.848)"/>
        <path id="Path_985" data-name="Path 985" d="M503.593,46.413c6.65,0,11.528-2.875,11.528-7.965,0-10.326-16.122-5.612-16.122-10.23,0-2.077,1.48-2.925,3.826-2.925,2.918,0,4.258,1.275,4.64,3.347a.511.511,0,0,0,.479.426h5.84a.364.364,0,0,0,.381-.426C513.734,23.55,509.382,21,502.922,21c-6.65,0-10.769,2.687-10.769,7.731,0,10.184,16.126,5.7,16.126,10.326,0,1.885-1.531,2.968-4.352,2.968-3.351,0-5.17-1.179-5.361-3.912a.425.425,0,0,0-.429-.426h-6.124a.426.426,0,0,0-.433.426c.238,5.42,4.835,8.3,12.012,8.3" transform="translate(-297.827 -12.848)"/>
        <path id="Path_986" data-name="Path 986" d="M566.942,46.39c8.038,0,12.584-5.094,12.584-12.825s-4.546-12.679-12.584-12.679-12.681,5.09-12.681,12.822S558.9,46.39,566.942,46.39M566.9,25.6c3.537,0,5.263,2.637,5.263,8.107,0,5.562-1.675,7.969-5.217,7.969-3.588,0-5.361-2.453-5.361-7.923s1.675-8.107,5.314-8.153" transform="translate(-335.802 -12.775)"/>
        <path id="Path_987" data-name="Path 987" d="M623.319,45.85h6.51a.425.425,0,0,0,.428-.426l-.093-9.9V33.735c0-5.186,2.774-7.543,5.357-7.543,2.154,0,3.733,1.7,3.733,4.338v4.994l-.1,9.9a.428.428,0,0,0,.432.426H646a.425.425,0,0,0,.429-.426l-.144-9.9v-5.09c0-5.939-3.347-9.428-8.564-9.428a10.014,10.014,0,0,0-7.944,3.628L629.923,22a.425.425,0,0,0-.429-.426h-6.078a.426.426,0,0,0-.432.426l.051,12.211-.144,11.216a.425.425,0,0,0,.428.426" transform="translate(-377.382 -12.848)"/>
        <path id="Path_988" data-name="Path 988" d="M213.563,106.805H222.8a.426.426,0,0,0,.432-.426V101.9a.426.426,0,0,0-.432-.426H196.864a.426.426,0,0,0-.432.426v4.476a.426.426,0,0,0,.432.426h9.28l.191,11.175-.285,16.072a.425.425,0,0,0,.428.426h6.748a.425.425,0,0,0,.428-.426l-.284-16.072Z" transform="translate(-119.009 -62.069)"/>
        <path id="Path_989" data-name="Path 989" d="M263.256,122.363c-7.846,0-12.537,5.09-12.537,12.822,0,7.355,4.453,12.683,12.682,12.683,6.888,0,11.2-3.961,11.817-8.391a.36.36,0,0,0-.382-.426h-6.027a.554.554,0,0,0-.526.426,4.492,4.492,0,0,1-4.788,3.677c-3.444,0-5.26-2.031-5.548-6.6h17.606a.425.425,0,0,0,.432-.423c-.144-8.487-4.64-13.766-12.728-13.766m-5.119,9.708c.573-3.348,2.295-5.044,5.166-5.044,3.16,0,4.644,2.453,4.928,5.044Z" transform="translate(-151.9 -74.844)"/>
        <path id="Path_990" data-name="Path 990" d="M341.337,137.918H335.4a.5.5,0,0,0-.479.426c-.288,3.159-2.1,4.856-4.547,4.81-3.588-.05-5.357-2.453-5.357-8.015,0-5.374,1.722-7.969,5.357-8.015,2.057,0,3.779,1.32,4.356,4.054a.5.5,0,0,0,.479.426H341a.364.364,0,0,0,.382-.426c-.577-5.278-4.691-8.813-11.006-8.813-8.037,0-12.728,5.09-12.728,12.821s4.691,12.683,12.584,12.683c6.46,0,10.96-4.007,11.485-9.524a.364.364,0,0,0-.382-.426" transform="translate(-192.449 -74.845)"/>
        <path id="Path_991" data-name="Path 991" d="M406.011,120.006c.144-7.121-3.253-10.372-8.8-10.372a8.969,8.969,0,0,0-7.465,3.252l.144-10.983a.426.426,0,0,0-.432-.426h-6.269a.425.425,0,0,0-.428.426l.191,16.027-.191,16.122a.425.425,0,0,0,.428.426h6.269a.426.426,0,0,0,.432-.426l-.191-14.046c.81-3.443,3.3-5.186,5.594-5.186,1.964,0,3.592,1.412,3.639,4.338l.046,6.126-.144,8.767a.426.426,0,0,0,.432.426h6.459a.425.425,0,0,0,.429-.426l-.144-8.86Z" transform="translate(-231.897 -62.069)"/>
        <path id="Path_992" data-name="Path 992" d="M470.654,131.91c0-5.939-3.347-9.428-8.564-9.428a10.015,10.015,0,0,0-7.944,3.628l.144-2.637a.425.425,0,0,0-.429-.426h-6.077a.426.426,0,0,0-.433.426l.051,12.211-.144,11.216a.425.425,0,0,0,.429.426h6.51a.425.425,0,0,0,.428-.426l-.1-9.9v-1.789c0-5.186,2.778-7.543,5.361-7.543,2.155,0,3.733,1.7,3.733,4.338V137l-.1,9.9a.426.426,0,0,0,.432.426h6.413a.425.425,0,0,0,.429-.426l-.144-9.9Z" transform="translate(-270.974 -74.917)"/>
        <path id="Path_993" data-name="Path 993" d="M523.331,122.364c-8.038,0-12.682,5.09-12.682,12.821s4.644,12.683,12.682,12.683,12.584-5.094,12.584-12.825-4.546-12.679-12.584-12.679m0,20.79c-3.588,0-5.361-2.453-5.361-7.923s1.676-8.107,5.314-8.154c3.538,0,5.264,2.637,5.264,8.107,0,5.562-1.675,7.969-5.217,7.969" transform="translate(-309.38 -74.845)"/>
        <path id="Path_994" data-name="Path 994" d="M586.47,101.477H580.2a.425.425,0,0,0-.429.426l.191,16.077-.191,16.072a.425.425,0,0,0,.429.426h6.268a.426.426,0,0,0,.433-.426l-.191-16.072L586.9,101.9a.426.426,0,0,0-.433-.426" transform="translate(-351.259 -62.069)"/>
        <path id="Path_995" data-name="Path 995" d="M615.4,122.364c-8.037,0-12.682,5.09-12.682,12.821s4.644,12.683,12.682,12.683,12.584-5.094,12.584-12.825-4.547-12.679-12.584-12.679m0,20.79c-3.588,0-5.361-2.453-5.361-7.923s1.675-8.107,5.315-8.154c3.537,0,5.263,2.637,5.263,8.107,0,5.562-1.676,7.969-5.217,7.969" transform="translate(-365.159 -74.845)"/>
        <path id="Path_996" data-name="Path 996" d="M694.442,123.415h-6.316a.426.426,0,0,0-.432.426l.144,2.215a8.988,8.988,0,0,0-7.13-2.971c-6.7,0-10.815,5.516-10.815,12.307,0,6.832,3.83,12.161,11.15,12.161a8.579,8.579,0,0,0,7.083-3.393v2.783c0,3.815-2.154,5.512-5.263,5.512-2.922,0-4.546-1.178-4.881-3.155a.516.516,0,0,0-.526-.426h-6.171a.426.426,0,0,0-.432.426c.382,5.324,5.31,7.919,11.77,7.823,8.135,0,12.2-3.958,12.2-10.088l-.047-11.124.093-12.069a.425.425,0,0,0-.428-.426m-11.867,19.52c-3.444.046-5.361-2.595-5.361-7.827,0-4.856,1.866-7.5,5.5-7.4,3.444.046,5.311,2.829,5.264,7.873-.05,4.9-1.917,7.355-5.408,7.355" transform="translate(-405.859 -75.286)"/>
        <path id="Path_997" data-name="Path 997" d="M746.38,123.935h-6.46a.425.425,0,0,0-.428.426l.14,11.739-.14,11.689a.425.425,0,0,0,.428.426h6.46a.426.426,0,0,0,.432-.426l-.144-11.689.144-11.739a.426.426,0,0,0-.432-.426" transform="translate(-448.026 -75.806)"/>
        <path id="Path_998" data-name="Path 998" d="M739.919,107.842h6.413a.425.425,0,0,0,.428-.423V101.9a.425.425,0,0,0-.428-.426h-6.413a.425.425,0,0,0-.428.426v5.516a.424.424,0,0,0,.428.423" transform="translate(-448.025 -62.069)"/>
        <path id="Path_999" data-name="Path 999" d="M775.228,122.363c-7.847,0-12.538,5.09-12.538,12.822,0,7.355,4.453,12.683,12.682,12.683,6.888,0,11.2-3.961,11.816-8.391a.36.36,0,0,0-.382-.426H780.78a.554.554,0,0,0-.526.426,4.492,4.492,0,0,1-4.788,3.677c-3.444,0-5.259-2.031-5.548-6.6h17.606a.425.425,0,0,0,.432-.423c-.144-8.487-4.64-13.766-12.728-13.766m-5.119,9.708c.573-3.348,2.295-5.044,5.166-5.044,3.16,0,4.644,2.453,4.929,5.044Z" transform="translate(-462.08 -74.844)"/>
        <path id="Path_1000" data-name="Path 1000" d="M835.694,129.7c0-2.077,1.48-2.925,3.826-2.925,2.918,0,4.258,1.275,4.64,3.347a.509.509,0,0,0,.479.426h5.84a.364.364,0,0,0,.382-.426c-.433-5.09-4.785-7.635-11.244-7.635-6.65,0-10.768,2.687-10.768,7.732,0,10.184,16.125,5.7,16.125,10.326,0,1.885-1.531,2.967-4.352,2.967-3.351,0-5.17-1.178-5.361-3.911a.425.425,0,0,0-.429-.426h-6.125a.426.426,0,0,0-.432.426c.242,5.42,4.831,8.3,12.012,8.3,6.65,0,11.528-2.875,11.528-7.965,0-10.326-16.122-5.612-16.122-10.23" transform="translate(-501.816 -74.917)"/>
        <rect id="Rectangle_425" data-name="Rectangle 425" width="10.048" height="72.409"/>
        <path id="Path_1001" data-name="Path 1001" d="M116.291,19.8V0h-20.1a19.951,19.951,0,0,1,20.1,19.8" transform="translate(-58.279)"/>
        <path id="Path_1002" data-name="Path 1002" d="M96.194,70.872l20.1,32.775V51.07a19.951,19.951,0,0,1-20.1,19.8" transform="translate(-58.28 -31.237)"/>
      </g>
    </g>
  </g>
</svg>
