<?xml version="1.0" encoding="UTF-8"?><svg xmlns="http://www.w3.org/2000/svg" viewBox="0 0 948.09 225"><defs><style>.d{fill:#fff;}</style></defs><g id="a"/><g id="b"><g id="c"><g><path class="d" d="M210.88,90.73h17.76c.64,0,1.16-.52,1.16-1.17l-.38-32.53h12.96l8.94,13.48,11.54,19.19c.39,.64,1.17,1.03,1.81,1.03h20.61c.52,0,.78-.52,.52-1.03l-22.55-34.74c12.83-3.88,20.22-13.09,20.22-26.44C283.47,9.59,270.39,0,247.7,0h-36.81c-.64,0-1.16,.52-1.16,1.17l.52,44.2-.52,44.19c0,.65,.52,1.17,1.16,1.17ZM229.68,14.39h18.8c10.11,0,15.95,4.66,15.95,14.52s-7.13,13.74-15.43,13.74h-19.7l.39-28.26Z"/><path class="d" d="M319.15,92.42c21.77,0,34.09-14,34.09-35.26s-12.32-34.86-34.09-34.86-34.35,13.99-34.35,35.25,12.58,34.87,34.35,34.87Zm-.13-57.16c9.58,0,14.26,7.25,14.26,22.29s-4.54,21.91-14.13,21.91-14.52-6.74-14.52-21.78,4.54-22.29,14.4-22.42Z"/><path class="d" d="M359.12,90.73h17.37c.64,0,1.16-.52,1.16-1.17l-.39-5.95c4.54,5.44,11.02,8.42,19.31,8.42,18.15,0,29.3-15.56,29.3-34.87s-9.98-34.48-28.91-34.48c-8.3,0-14.9,3.24-19.57,8.95l.13-30.46c0-.65-.52-1.17-1.17-1.17h-17.23c-.64,0-1.17,.52-1.17,1.17l.39,44.2-.39,44.19c0,.65,.53,1.17,1.17,1.17Zm32.4-54.83c9.34-.13,14.52,7.39,14.52,22.04,0,13.48-5.05,21.13-14.91,20.86-9.33-.13-14.38-7.9-14.25-22.16,.13-13.74,5.18-20.74,14.64-20.74Z"/><path class="d" d="M432.12,17.5h17.37c.64,0,1.16-.52,1.16-1.16V1.17c0-.65-.52-1.17-1.16-1.17h-17.37c-.64,0-1.16,.52-1.16,1.17v15.17c0,.64,.52,1.16,1.16,1.16Z"/><path class="d" d="M432.12,90.73h17.5c.64,0,1.17-.52,1.17-1.17l-.39-32.14,.39-32.27c0-.65-.53-1.17-1.17-1.17h-17.5c-.64,0-1.16,.52-1.16,1.17l.38,32.27-.38,32.14c0,.65,.52,1.17,1.16,1.17Z"/><path class="d" d="M476.98,57.42c0-14.26,7.52-20.74,14.52-20.74,5.84,0,10.11,4.66,10.11,11.93v13.73l-.26,27.22c0,.65,.52,1.17,1.17,1.17h17.37c.64,0,1.16-.52,1.16-1.17l-.39-27.22v-13.99c0-16.33-9.07-25.92-23.2-25.92-9.33,0-16.98,4.15-21.52,9.97l.39-7.25c0-.65-.52-1.17-1.16-1.17h-16.46c-.65,0-1.17,.52-1.17,1.17l.14,33.57-.39,30.84c0,.65,.52,1.17,1.16,1.17h17.64c.64,0,1.16-.52,1.16-1.17l-.26-27.22v-4.92Z"/><path class="d" d="M557.38,92.28c18.02,0,31.23-7.9,31.23-21.9,0-28.39-43.67-15.43-43.67-28.13,0-5.71,4.01-8.04,10.36-8.04,7.9,0,11.54,3.5,12.57,9.2,.14,.65,.65,1.17,1.3,1.17h15.82c.64,0,1.16-.52,1.03-1.17-1.17-13.99-12.96-20.99-30.46-20.99s-29.17,7.39-29.17,21.26c0,28,43.68,15.68,43.68,28.39,0,5.18-4.15,8.16-11.79,8.16-9.08,0-14-3.24-14.52-10.75,0-.65-.52-1.17-1.16-1.17h-16.59c-.65,0-1.17,.52-1.17,1.17,.64,14.9,13.1,22.81,32.54,22.81Z"/><path class="d" d="M626.12,92.42c21.77,0,34.09-14,34.09-35.26s-12.32-34.86-34.09-34.86-34.35,13.99-34.35,35.25,12.58,34.87,34.35,34.87Zm-.13-57.16c9.58,0,14.26,7.25,14.26,22.29s-4.54,21.91-14.13,21.91-14.52-6.74-14.52-21.78,4.54-22.29,14.4-22.42Z"/><path class="d" d="M666.2,90.73h17.64c.64,0,1.16-.52,1.16-1.17l-.25-27.22v-4.92c0-14.26,7.51-20.74,14.51-20.74,5.84,0,10.11,4.66,10.11,11.93v13.73l-.26,27.22c0,.65,.53,1.17,1.17,1.17h17.37c.64,0,1.16-.52,1.16-1.17l-.39-27.22v-13.99c0-16.33-9.07-25.92-23.2-25.92-9.33,0-16.98,4.15-21.52,9.97l.39-7.25c0-.65-.52-1.17-1.16-1.17h-16.46c-.65,0-1.17,.52-1.17,1.17l.14,33.57-.39,30.84c0,.65,.52,1.17,1.16,1.17Z"/><path class="d" d="M256.13,122.99h25.01c.65,0,1.17-.52,1.17-1.17v-12.31c0-.65-.52-1.17-1.17-1.17h-70.25c-.65,0-1.17,.52-1.17,1.17v12.31c0,.65,.52,1.17,1.17,1.17h25.14l.52,30.72-.77,44.19c0,.65,.52,1.17,1.16,1.17h18.28c.64,0,1.16-.52,1.16-1.17l-.77-44.19,.52-30.72Z"/><path class="d" d="M301.65,130.64c-21.25,0-33.96,13.99-33.96,35.25s12.06,34.87,34.35,34.87c18.66,0,30.33-10.89,32.01-23.07,.14-.65-.38-1.17-1.03-1.17h-16.33c-.65,0-1.3,.52-1.42,1.17-1.81,7.12-6.48,10.11-12.97,10.11-9.33,0-14.25-5.58-15.03-18.15h47.69c.65,0,1.17-.52,1.17-1.16-.39-23.33-12.57-37.85-34.48-37.85Zm-13.87,26.69c1.55-9.2,6.22-13.87,13.99-13.87,8.56,0,12.58,6.74,13.35,13.87h-27.34Z"/><path class="d" d="M403.31,173.41h-16.07c-.65,0-1.17,.52-1.3,1.17-.78,8.69-5.7,13.35-12.32,13.22-9.72-.14-14.51-6.74-14.51-22.04s4.66-21.91,14.51-22.04c5.57,0,10.24,3.63,11.8,11.14,.13,.65,.64,1.17,1.3,1.17h15.68c.64,0,1.16-.52,1.03-1.17-1.56-14.51-12.71-24.23-29.81-24.23-21.77,0-34.48,13.99-34.48,35.25s12.71,34.87,34.09,34.87c17.5,0,29.69-11.02,31.11-26.18,.13-.65-.39-1.17-1.03-1.17Z"/><path class="d" d="M471.64,159.29c.39-19.58-8.81-28.52-23.84-28.52-8.81,0-15.56,2.98-20.22,8.94l.39-30.19c0-.65-.52-1.17-1.17-1.17h-16.98c-.64,0-1.16,.52-1.16,1.17l.52,44.06-.52,44.33c0,.65,.52,1.17,1.16,1.17h16.98c.65,0,1.17-.52,1.17-1.17l-.52-38.62c2.2-9.47,8.94-14.26,15.15-14.26,5.32,0,9.73,3.88,9.86,11.93l.13,16.84-.39,24.1c0,.65,.52,1.17,1.17,1.17h17.5c.64,0,1.16-.52,1.16-1.17l-.39-24.36v-14.26Z"/><path class="d" d="M540.9,156.69c0-16.33-9.07-25.92-23.2-25.92-9.33,0-16.98,4.15-21.52,9.97l.39-7.25c0-.65-.52-1.17-1.16-1.17h-16.46c-.65,0-1.17,.52-1.17,1.17l.14,33.57-.39,30.84c0,.65,.52,1.17,1.16,1.17h17.63c.64,0,1.16-.52,1.16-1.17l-.26-27.22v-4.92c0-14.26,7.52-20.74,14.52-20.74,5.84,0,10.11,4.66,10.11,11.93v13.73l-.26,27.22c0,.65,.52,1.17,1.17,1.17h17.37c.64,0,1.16-.52,1.16-1.17l-.39-27.22v-13.99Z"/><path class="d" d="M579.55,130.64c-21.77,0-34.35,13.99-34.35,35.25s12.58,34.87,34.35,34.87,34.09-14,34.09-35.26-12.32-34.86-34.09-34.86Zm0,57.16c-9.72,0-14.52-6.74-14.52-21.78s4.54-22.29,14.4-22.42c9.58,0,14.26,7.25,14.26,22.29s-4.54,21.91-14.13,21.91Z"/><path class="d" d="M637.15,108.34h-16.98c-.64,0-1.16,.52-1.16,1.17l.52,44.2-.52,44.19c0,.65,.52,1.17,1.16,1.17h16.98c.65,0,1.17-.52,1.17-1.17l-.52-44.19,.52-44.2c0-.65-.52-1.17-1.17-1.17Z"/><path class="d" d="M677.85,130.64c-21.77,0-34.35,13.99-34.35,35.25s12.58,34.87,34.35,34.87,34.09-14,34.09-35.26-12.32-34.86-34.09-34.86Zm0,57.16c-9.72,0-14.52-6.74-14.52-21.78s4.54-22.29,14.4-22.42c9.58,0,14.26,7.25,14.26,22.29s-4.54,21.91-14.13,21.91Z"/><path class="d" d="M781.72,132.32h-17.11c-.65,0-1.17,.52-1.17,1.17l.39,6.09c-4.54-5.32-11.02-8.17-19.31-8.17-18.14,0-29.3,15.17-29.3,33.83s10.37,33.43,30.2,33.43c8.3,0,14.78-3.49,19.19-9.33v7.65c0,10.49-5.84,15.16-14.26,15.16-7.92,0-12.32-3.24-13.22-8.68-.13-.65-.64-1.17-1.42-1.17h-16.72c-.65,0-1.17,.52-1.17,1.17,1.03,14.64,14.38,21.77,31.88,21.51,22.04,0,33.05-10.88,33.05-27.73l-.13-30.58,.25-33.18c0-.65-.52-1.17-1.16-1.17Zm-32.15,53.67c-9.33,.13-14.52-7.13-14.52-21.52,0-13.35,5.06-20.61,14.91-20.35,9.33,.13,14.38,7.78,14.26,21.65-.14,13.48-5.19,20.22-14.65,20.22Z"/><path class="d" d="M808.19,132.32h-17.5c-.64,0-1.16,.52-1.16,1.17l.38,32.27-.38,32.14c0,.65,.52,1.17,1.16,1.17h17.5c.65,0,1.17-.52,1.17-1.17l-.39-32.14,.39-32.27c0-.65-.52-1.17-1.17-1.17Z"/><path class="d" d="M790.69,125.84h17.37c.64,0,1.16-.52,1.16-1.16v-15.17c0-.65-.52-1.17-1.16-1.17h-17.37c-.64,0-1.16,.52-1.16,1.17v15.17c0,.64,.52,1.16,1.16,1.16Z"/><path class="d" d="M848.26,130.64c-21.25,0-33.96,13.99-33.96,35.25s12.06,34.87,34.35,34.87c18.66,0,30.33-10.89,32.01-23.07,.14-.65-.38-1.17-1.03-1.17h-16.33c-.65,0-1.3,.52-1.42,1.17-1.82,7.12-6.48,10.11-12.97,10.11-9.33,0-14.25-5.58-15.03-18.15h47.69c.65,0,1.17-.52,1.17-1.16-.39-23.33-12.57-37.85-34.48-37.85Zm-13.87,26.69c1.55-9.2,6.22-13.87,13.99-13.87,8.56,0,12.58,6.74,13.35,13.87h-27.34Z"/><path class="d" d="M904.42,150.6c0-5.71,4.01-8.04,10.36-8.04,7.9,0,11.54,3.5,12.57,9.2,.14,.65,.65,1.17,1.3,1.17h15.82c.64,0,1.16-.52,1.03-1.17-1.17-13.99-12.96-20.99-30.46-20.99s-29.17,7.39-29.17,21.26c0,28,43.68,15.68,43.68,28.39,0,5.18-4.15,8.16-11.79,8.16-9.08,0-14-3.24-14.52-10.75,0-.65-.52-1.17-1.16-1.17h-16.59c-.65,0-1.17,.52-1.17,1.17,.65,14.9,13.09,22.81,32.54,22.81,18.01,0,31.23-7.9,31.23-21.9,0-28.39-43.67-15.43-43.67-28.13Z"/><rect class="d" width="27.22" height="199.07"/><path class="d" d="M157.14,54.44V0h-54.44c30.07,0,54.44,24.37,54.44,54.44Z"/><path class="d" d="M102.7,108.97l54.44,90.11V54.53c0,30.07-24.37,54.44-54.44,54.44Z"/></g></g></g></svg>