<svg xmlns="http://www.w3.org/2000/svg" xmlns:xlink="http://www.w3.org/1999/xlink" width="624" height="230" viewBox="0 0 624 230">
  <defs>
    <clipPath id="clip-path">
      <rect id="Rectangle_431" data-name="Rectangle 431" width="168.344" height="176" fill="none"/>
    </clipPath>
    <clipPath id="clip-TB">
      <rect width="624" height="230"/>
    </clipPath>
  </defs>
  <g id="TB" clip-path="url(#clip-TB)">
    <rect width="624" height="230" fill="#f4f4f4"/>
    <g id="Group_141" data-name="Group 141" transform="translate(227.828 27)">
      <g id="Group_134" data-name="Group 134" clip-path="url(#clip-path)">
        <path id="Path_1063" data-name="Path 1063" d="M181.92,141.975a21.891,21.891,0,0,1-3.531-3.587l.952,1.232a23.12,23.12,0,0,1-2.959-5.047l.614,1.454a23,23,0,0,1-1.589-5.769q.109.809.217,1.618a21.6,21.6,0,0,1-.005-5.673q-.109.809-.217,1.619a22.334,22.334,0,0,1,1.506-5.5l-.614,1.454a23.267,23.267,0,0,1,3.009-5.156l-.952,1.232a22.6,22.6,0,0,1,3.934-3.94l-1.232.952a22.247,22.247,0,0,1,1.972-1.354,6.345,6.345,0,0,0,2.8-3.638,4.617,4.617,0,0,0,.109-2.427,4.532,4.532,0,0,0-.723-2.263,6.143,6.143,0,0,0-3.638-2.8,6.27,6.27,0,0,0-4.691.614A28.884,28.884,0,0,0,164.4,121.214a30.1,30.1,0,0,0-1.029,5.584,21.055,21.055,0,0,0-.017,4.267,31.043,31.043,0,0,0,.988,5.63,31.673,31.673,0,0,0,2.128,5.325,29.857,29.857,0,0,0,3.436,5.139,21.619,21.619,0,0,0,3.4,3.426,6.772,6.772,0,0,0,4.3,1.783,6.2,6.2,0,0,0,4.3-1.783,6.124,6.124,0,0,0,1.783-4.3l-.217-1.618a6.086,6.086,0,0,0-1.566-2.686" transform="translate(-105.789 -67.517)"/>
        <path id="Path_1064" data-name="Path 1064" d="M191.983,219.082q.62-.1,1.242-.182l-1.618.218a54.59,54.59,0,0,1,14.355.017l-1.618-.218a56.274,56.274,0,0,1,14.283,3.885l-1.454-.614a53.146,53.146,0,0,1,11.676,6.778l-1.232-.952q1.654,1.279,3.2,2.689a6.39,6.39,0,0,0,4.3,1.783,6.2,6.2,0,0,0,4.3-1.783,6.088,6.088,0,0,0,0-8.609,59.324,59.324,0,0,0-8.67-6.576,62.548,62.548,0,0,0-9.8-4.829,60.8,60.8,0,0,0-20.014-4.168,61.606,61.606,0,0,0-12.2.822,6.81,6.81,0,0,0-3.638,2.8,4.526,4.526,0,0,0-.722,2.263,4.609,4.609,0,0,0,.109,2.427,6.156,6.156,0,0,0,2.8,3.638l1.454.614a6.121,6.121,0,0,0,3.237,0" transform="translate(-119.408 -133.798)"/>
        <path id="Path_1065" data-name="Path 1065" d="M274.324,277.427c3.166-4.993,6.215-10.076,9.831-14.765l-.952,1.232a51.429,51.429,0,0,1,7.221-7.734,6.772,6.772,0,0,0,1.783-4.3,6.2,6.2,0,0,0-1.783-4.3,6.125,6.125,0,0,0-4.3-1.783l-1.618.218a6.082,6.082,0,0,0-2.686,1.566,58.768,58.768,0,0,0-8.355,9.2c-2.282,2.978-4.34,6.119-6.347,9.286-1.106,1.744-2.2,3.5-3.3,5.242a4.533,4.533,0,0,0-.723,2.263,4.611,4.611,0,0,0,.109,2.428,6.209,6.209,0,0,0,2.8,3.638,6.144,6.144,0,0,0,4.691.614,6.557,6.557,0,0,0,3.638-2.8" transform="translate(-170.408 -159.254)"/>
        <path id="Path_1066" data-name="Path 1066" d="M184.076,243.973a68.075,68.075,0,0,0-15.433-.252,38.258,38.258,0,0,0-8,1.72,29.217,29.217,0,0,0-7.237,3.587,39.58,39.58,0,0,0-4.087,3.365c-1,.942-1.992,1.9-3.082,2.744l1.232-.952a12.91,12.91,0,0,1-2.688,1.6l1.454-.614a8.6,8.6,0,0,1-1.978.562l1.618-.218a6.932,6.932,0,0,1-1.819.006l1.619.218a7.264,7.264,0,0,1-1.675-.467l1.454.614a7.733,7.733,0,0,1-1.621-.951l1.232.952a7.713,7.713,0,0,1-1.24-1.231l.952,1.232a7.813,7.813,0,0,1-.992-1.7l.614,1.454a8.6,8.6,0,0,1-.551-2.066l.218,1.618a9,9,0,0,1,0-2.146l-.218,1.618a11.353,11.353,0,0,1,.841-2.879l-.614,1.454c1.027-2.4,2.19-4.743,3.3-7.105q1.636-3.492,3.291-6.975c2.236-4.692,4.516-9.364,6.888-13.989q1.994-3.888,4.082-7.726a6.38,6.38,0,0,0,.614-4.691,6.21,6.21,0,0,0-2.8-3.638,6.145,6.145,0,0,0-4.691-.614,6.215,6.215,0,0,0-3.638,2.8c-4.7,8.628-8.988,17.473-13.169,26.362q-1.568,3.334-3.123,6.675c-.7,1.5-1.388,2.987-2.007,4.518a14.921,14.921,0,0,0-.984,4.763,13.363,13.363,0,0,0,.539,4.452,13.612,13.612,0,0,0,2.368,4.579,12.96,12.96,0,0,0,3.728,3.328,12.535,12.535,0,0,0,4.779,1.611,9.744,9.744,0,0,0,2.409.13,15.221,15.221,0,0,0,3.193-.571,16.5,16.5,0,0,0,4.466-2.227,40.755,40.755,0,0,0,3.974-3.317c.941-.887,1.877-1.779,2.9-2.573l-1.232.952a22.9,22.9,0,0,1,4.992-2.878l-1.454.614a30.526,30.526,0,0,1,7.618-2.02l-1.618.218a67.6,67.6,0,0,1,15.581.232,6.775,6.775,0,0,0,4.3-1.783,6.088,6.088,0,0,0,0-8.609l-1.232-.952a6.062,6.062,0,0,0-3.073-.831" transform="translate(-85.416 -134.96)"/>
        <path id="Path_1067" data-name="Path 1067" d="M208.661,166.018a64.1,64.1,0,0,1,6.976-12.069l-.952,1.232a30.628,30.628,0,0,1,5.309-5.4l-1.232.952a24.508,24.508,0,0,1,5.33-3.15l-1.454.614a19.913,19.913,0,0,1,4.927-1.376l-1.618.218a17.528,17.528,0,0,1,3.272-.129,6.772,6.772,0,0,0,4.3-1.783,6.088,6.088,0,0,0,0-8.609l-1.232-.952a6.055,6.055,0,0,0-3.072-.831,24.669,24.669,0,0,0-5.031.366,19.26,19.26,0,0,0-3.315.8,28.384,28.384,0,0,0-7.442,3.717,34.5,34.5,0,0,0-6.3,5.653,51.6,51.6,0,0,0-5.091,7.1c-1.441,2.425-2.7,4.954-3.895,7.505a4.533,4.533,0,0,0-.723,2.263,4.612,4.612,0,0,0,.109,2.428,6.209,6.209,0,0,0,2.8,3.638,6.144,6.144,0,0,0,4.691.614,5.976,5.976,0,0,0,3.638-2.8" transform="translate(-127.858 -87.293)"/>
        <path id="Path_1068" data-name="Path 1068" d="M34.836,84.844l11.1-13.966a.793.793,0,0,1,1.114-.128l1.987,1.579a.792.792,0,0,1,.127,1.114l-3.518,4.426a.793.793,0,0,0,.127,1.114L59.819,90.143a.793.793,0,0,1,.127,1.114l-2.089,2.63a.792.792,0,0,1-1.114.127L42.7,82.854a.793.793,0,0,0-1.114.127l-3.518,4.427a.793.793,0,0,1-1.113.127l-1.987-1.578a.793.793,0,0,1-.127-1.114" transform="translate(-22.462 -45.735)"/>
        <path id="Path_1069" data-name="Path 1069" d="M104.7,23.068a.793.793,0,0,1,1.093.251l7.88,12.578c2.844,4.538.969,9.242-3.874,12.278-4.863,3.048-9.9,2.671-12.74-1.871L89.18,33.731a.793.793,0,0,1,.251-1.093l2.893-1.814a.793.793,0,0,1,1.093.251L101.2,43.506c1.344,2.14,3.89,2.358,6.228.892,2.368-1.482,3.286-3.868,1.942-6.012l-7.787-12.431a.792.792,0,0,1,.251-1.092Z" transform="translate(-57.71 -14.87)"/>
        <path id="Path_1070" data-name="Path 1070" d="M187.341,23.225l-3.054.617a.792.792,0,0,1-.707-.206L170.83,11.357l-.17.036,2.8,13.832a.793.793,0,0,1-.62.934l-3.353.677a.793.793,0,0,1-.934-.62L164.17,4.559a.793.793,0,0,1,.62-.934l3.12-.632a.794.794,0,0,1,.709.208l12.67,12.281.2-.04-2.8-13.82a.792.792,0,0,1,.62-.934l3.331-.673a.793.793,0,0,1,.934.62l4.378,21.655a.792.792,0,0,1-.62.934" transform="translate(-106.372 0)"/>
        <path id="Path_1071" data-name="Path 1071" d="M259.415,12.14a.808.808,0,0,1-.657-.746,4.79,4.79,0,0,0-4.326-4.3c-3.613-.591-6.435,1.8-7.225,6.646-.815,4.994,1.161,8.018,4.7,8.592a4.846,4.846,0,0,0,5.46-2.535.8.8,0,0,1,.845-.467l3.455.579a.783.783,0,0,1,.617,1.044c-1.544,3.782-5.614,6.636-11.168,5.731-6.244-1.018-10.158-6.147-8.918-13.757,1.247-7.637,6.663-11.22,12.825-10.218,5.087.829,8.553,4.216,8.749,9.2a.8.8,0,0,1-.929.792Z" transform="translate(-156.799 -1.647)"/>
        <path id="Path_1072" data-name="Path 1072" d="M313.544,19.529,326.163,26.3a.793.793,0,0,1,.324,1.073l-1.2,2.23a.793.793,0,0,1-1.073.324L316,25.514a.793.793,0,0,0-1.073.323l-1.91,3.558a.793.793,0,0,0,.323,1.073l7.5,4.026a.793.793,0,0,1,.324,1.073l-1.2,2.23a.792.792,0,0,1-1.073.323l-7.5-4.026a.793.793,0,0,0-1.073.323L308.4,37.988a.793.793,0,0,0,.323,1.073l8.262,4.434a.792.792,0,0,1,.324,1.073l-1.2,2.23a.793.793,0,0,1-1.073.323l-12.659-6.793a.793.793,0,0,1-.324-1.073l10.411-19.4a.793.793,0,0,1,1.073-.324" transform="translate(-195.673 -12.594)"/>
        <path id="Path_1073" data-name="Path 1073" d="M364.2,57.307l2.414,2.4a.793.793,0,0,1,0,1.121L353.46,74.084l6.615,6.564a.792.792,0,0,1,0,1.121l-1.781,1.8a.792.792,0,0,1-1.121,0l-9.592-9.521a.793.793,0,0,1,0-1.121l15.5-15.616a.792.792,0,0,1,1.121,0" transform="translate(-225.084 -36.986)"/>
        <path id="Path_1074" data-name="Path 1074" d="M382.426,113.794l-1.868-2.855a.792.792,0,0,1,.229-1.1l18.457-12.069a.793.793,0,0,1,1.1.23l1.869,2.855a.793.793,0,0,1-.229,1.1l-18.458,12.069a.793.793,0,0,1-1.1-.229m21.406-19.185A2.665,2.665,0,1,1,403.2,98.2a2.588,2.588,0,0,1,.634-3.587" transform="translate(-246.517 -61.061)"/>
        <path id="Path_1075" data-name="Path 1075" d="M19.695,311.844a.793.793,0,0,1,1.075.316l4.141,7.584c2.491,4.562,1.547,8.065-1.552,9.757a5.031,5.031,0,0,1-6.482-1.312l-.2.111a5.452,5.452,0,0,1-2.537,7.28c-3.292,1.8-7.065.646-9.6-3.995L.1,323.448a.793.793,0,0,1,.316-1.076ZM7.622,328.736c1.334,2.441,2.933,2.945,4.487,2.1,1.706-.931,2.207-2.893,1.06-4.993l-1.62-2.97a.793.793,0,0,0-1.076-.316l-4.1,2.24a.793.793,0,0,0-.316,1.075ZM15.9,323.8c.975,1.787,2.691,2.58,4.328,1.689,1.492-.817,1.893-2.462.834-4.4l-1.433-2.626a.793.793,0,0,0-1.075-.316l-3.727,2.035a.792.792,0,0,0-.316,1.076Z" transform="translate(0 -202.012)"/>
        <path id="Path_1076" data-name="Path 1076" d="M54.788,359.352l9.925,10.308a.793.793,0,0,1-.021,1.12l-1.821,1.754a.792.792,0,0,1-1.121-.021L55.284,365.8a.792.792,0,0,0-1.12-.021l-2.906,2.8a.792.792,0,0,0-.022,1.12l5.9,6.13a.792.792,0,0,1-.021,1.121l-1.82,1.751a.793.793,0,0,1-1.121-.021l-5.9-6.127a.792.792,0,0,0-1.121-.021l-2.917,2.808a.792.792,0,0,0-.021,1.121l6.5,6.749a.792.792,0,0,1-.021,1.121l-1.82,1.751a.792.792,0,0,1-1.12-.021l-9.956-10.34a.792.792,0,0,1,.021-1.121l15.853-15.261a.792.792,0,0,1,1.121.021" transform="translate(-24.347 -232.703)"/>
        <path id="Path_1077" data-name="Path 1077" d="M98.758,394.635l2.89,1.792a.793.793,0,0,1,.256,1.092l-9.427,15.2a.793.793,0,0,0,.256,1.092l7.243,4.5a.793.793,0,0,1,.256,1.091L98.9,421.536a.793.793,0,0,1-1.091.256l-11.48-7.119a.793.793,0,0,1-.256-1.092L97.667,394.89a.793.793,0,0,1,1.091-.256" transform="translate(-55.698 -255.646)"/>
        <path id="Path_1078" data-name="Path 1078" d="M147.864,417.953l13.7,4.308a.793.793,0,0,1,.518.994l-.761,2.423a.793.793,0,0,1-.994.519l-8.927-2.806a.793.793,0,0,0-.994.518l-1.217,3.866a.793.793,0,0,0,.518.994l8.144,2.56a.792.792,0,0,1,.518.994l-.762,2.423a.793.793,0,0,1-.994.518l-8.145-2.561a.792.792,0,0,0-.994.518l-1.221,3.878a.793.793,0,0,0,.518.994l8.971,2.822a.793.793,0,0,1,.518.994l-.761,2.423a.792.792,0,0,1-.994.518l-13.745-4.324a.793.793,0,0,1-.518-.994l6.627-21.063a.792.792,0,0,1,.994-.518" transform="translate(-90.854 -270.81)"/>
        <path id="Path_1079" data-name="Path 1079" d="M205.81,455.284l.473-22a.792.792,0,0,1,.81-.775l7.637.165c7.118.151,11.378,4.669,11.22,12.017-.158,7.372-4.609,11.723-11.795,11.573l-7.57-.165a.792.792,0,0,1-.775-.809m8.229-3.306c4.435.1,6.823-2.136,6.936-7.4.113-5.24-2.178-7.546-6.6-7.641l-2.385-.054a.793.793,0,0,0-.81.775l-.289,13.459a.792.792,0,0,0,.775.809Z" transform="translate(-133.365 -280.262)"/>
        <path id="Path_1080" data-name="Path 1080" d="M265.822,412.054A2.665,2.665,0,1,1,268.9,414a2.582,2.582,0,0,1-3.074-1.95m9.6,27.087-3.35.641a.793.793,0,0,1-.928-.63L267,417.5a.793.793,0,0,1,.63-.927l3.35-.641a.793.793,0,0,1,.927.63l4.141,21.652a.793.793,0,0,1-.629.928" transform="translate(-172.226 -265.077)"/>
        <path id="Path_1081" data-name="Path 1081" d="M291.824,412.888a.792.792,0,0,1,.81.113l8.561,6.929.212-.091.919-10.979a.793.793,0,0,1,.479-.663l3.447-1.471a.792.792,0,0,1,1.1.816L305.6,423.385a.792.792,0,0,0,.059.4l2.881,6.745a.792.792,0,0,1-.417,1.04l-3.1,1.323a.793.793,0,0,1-1.041-.418l-2.881-6.748a.792.792,0,0,0-.247-.318L288.2,415.718a.793.793,0,0,1,.171-1.358Z" transform="translate(-186.555 -263.516)"/>
        <path id="Path_1082" data-name="Path 1082" d="M345.015,385.009l11.08-9.081a.793.793,0,0,1,1.116.111l1.6,1.96a.793.793,0,0,1-.111,1.115l-7.218,5.916a.792.792,0,0,0-.111,1.115l2.56,3.125a.793.793,0,0,0,1.115.111l6.586-5.4a.793.793,0,0,1,1.115.111l1.6,1.957a.793.793,0,0,1-.111,1.115l-6.585,5.4a.793.793,0,0,0-.111,1.115l2.568,3.134a.793.793,0,0,0,1.115.111l7.255-5.943a.792.792,0,0,1,1.115.111l1.6,1.956a.793.793,0,0,1-.111,1.116l-11.115,9.109a.793.793,0,0,1-1.116-.111L344.9,386.125a.793.793,0,0,1,.111-1.115" transform="translate(-223.382 -243.485)"/>
        <path id="Path_1083" data-name="Path 1083" d="M395.085,345.113c-1.419,1.993-1.288,3.745-.045,4.625,1.363,1.011,2.982.051,4.558-1.352l1.645-1.435c3.133-2.818,6.557-4.027,9.774-1.756,3.524,2.517,3.807,6.884.462,11.593-3.132,4.407-7.11,5.95-11.109,3.721a.8.8,0,0,1-.238-1.149l1.914-2.693a.818.818,0,0,1,1-.243c1.823.748,3.629-.113,4.983-2.018,1.472-2.073,1.46-4.09.055-5.1-1.306-.915-2.736-.174-4.736,1.562l-2.019,1.724c-3.1,2.7-6.149,3.551-8.985,1.522-3.515-2.469-3.648-7.225-.646-11.45,2.837-4,6.824-5.26,10.165-3.5a.792.792,0,0,1,.241,1.152l-1.9,2.672a.83.83,0,0,1-.973.261c-1.444-.5-2.93.148-4.145,1.861" transform="translate(-252.439 -219.276)"/>
        <path id="Path_1084" data-name="Path 1084" d="M396.769,310.63a2.663,2.663,0,1,1,3.357-1.4,2.582,2.582,0,0,1-3.357,1.4m27.689,7.628-1.39,3.111a.793.793,0,0,1-1.047.4l-20.113-8.992a.793.793,0,0,1-.4-1.047l1.39-3.111a.792.792,0,0,1,1.047-.4l20.113,8.991a.793.793,0,0,1,.4,1.047" transform="translate(-256.184 -198.015)"/>
        <path id="Path_1085" data-name="Path 1085" d="M22.213,233.229a4.058,4.058,0,1,1-4.059-4.059,4.058,4.058,0,0,1,4.059,4.059" transform="translate(-9.134 -148.502)"/>
        <path id="Path_1086" data-name="Path 1086" d="M448.809,233.229a4.058,4.058,0,1,1-4.059-4.059,4.058,4.058,0,0,1,4.059,4.059" transform="translate(-285.569 -148.502)"/>
      </g>
    </g>
  </g>
</svg>
