<svg xmlns="http://www.w3.org/2000/svg" width="300.132" height="22.925" viewBox="0 0 300.132 22.925">
  <path id="Union_378" data-name="Union 378" d="M175.518,27.14l1.772-4.409a23.147,23.147,0,0,0,10.3,2.432q5.273,0,5.273-2.373a1.586,1.586,0,0,0-.783-1.391,5.946,5.946,0,0,0-2.513-.7l-6.211-.791a9.918,9.918,0,0,1-5.42-2.088,5.529,5.529,0,0,1-1.846-4.358,5.667,5.667,0,0,1,2.761-5.082q2.762-1.759,7.977-1.759a22.184,22.184,0,0,1,4.8.484,34.825,34.825,0,0,1,5.317,1.6l-1.684,4.189a21.4,21.4,0,0,0-8.819-2.007q-5.288,0-5.287,2.2,0,1.582,3.149,1.977l6.43.777a9.216,9.216,0,0,1,5.347,2.161,6.008,6.008,0,0,1,1.846,4.592,5.824,5.824,0,0,1-2.674,5.193q-2.673,1.766-7.859,1.765A30.409,30.409,0,0,1,175.518,27.14Zm-70.562-.747a10.251,10.251,0,0,1-3.779-8.305,10.294,10.294,0,0,1,3.779-8.321,15.241,15.241,0,0,1,9.99-3.15,15.241,15.241,0,0,1,9.99,3.15,10.234,10.234,0,0,1,3.809,8.321,10.219,10.219,0,0,1-3.809,8.305,15.241,15.241,0,0,1-9.99,3.149A15.241,15.241,0,0,1,104.956,26.392Zm3.852-13.447a6.356,6.356,0,0,0-2.344,5.142,6.341,6.341,0,0,0,2.344,5.126,9.244,9.244,0,0,0,6.109,1.948,9.538,9.538,0,0,0,6.181-1.948,6.335,6.335,0,0,0,2.373-5.126,6.243,6.243,0,0,0-2.373-5.113A9.37,9.37,0,0,0,114.917,11,9.244,9.244,0,0,0,108.808,12.946ZM287.622,29V11.714h-8.393V7.16h21.958v4.555h-8.409V29ZM256.8,29V7.16h19.292v4.468H261.958v4.951h13.228l-1.8,4.468H261.958V29Zm-13.55,0V7.16h5.156V29ZM224.3,29l-4.439-15.923L215.332,29H208.55L201.973,7.16H207.5l4.556,15.893L216.372,7.16h7.017l4.262,15.893L232.31,7.16h5.39L231.138,29Zm-71.7,0-5.948-7.954H142.4l1.92-4.468h5.332q3.032,0,3.032-2.519,0-2.461-3.032-2.461H140.8V29h-5.156V7.16H148.96a10.6,10.6,0,0,1,6.563,1.772,5.942,5.942,0,0,1,2.314,5.009,6.4,6.4,0,0,1-1.413,4.234,7.1,7.1,0,0,1-4.007,2.3l6.5,8.525ZM78.809,29V7.16h5.156V24.5H97.441V29Zm-19.79,0V20.753L49.321,7.16h6.065l6.3,8.994,6.27-8.994h5.9L64.174,20.753V29ZM44.927,29,42.89,24.766H30.776L28.725,29h-5.42L33.867,7.16h6.108L50.537,29ZM32.505,20.5h8.642l-4.321-9.052ZM9.448,29V11.714H1.055V7.16H23.013v4.555H14.6V29Z" transform="translate(-1.055 -6.617)" fill="#fff"/>
</svg>
