<svg xmlns="http://www.w3.org/2000/svg" xmlns:xlink="http://www.w3.org/1999/xlink" width="624" height="230" viewBox="0 0 624 230">
  <defs>
    <clipPath id="clip-path">
      <rect id="Rectangle_433" data-name="Rectangle 433" width="296.867" height="176" fill="none"/>
    </clipPath>
    <clipPath id="clip-TT">
      <rect width="624" height="230"/>
    </clipPath>
  </defs>
  <g id="TT" clip-path="url(#clip-TT)">
    <rect width="624" height="230" fill="#f4f4f4"/>
    <g id="Group_142" data-name="Group 142" transform="translate(163.567 27)">
      <g id="Group_138" data-name="Group 138" clip-path="url(#clip-path)">
        <path id="Path_1118" data-name="Path 1118" d="M268.229,291.62q-5.824-2.235-6.16-6.169a4.88,4.88,0,0,1,1.063-3.526,4.109,4.109,0,0,1,2.99-1.754,12.852,12.852,0,0,1,3.734.491A36.345,36.345,0,0,0,281.186,282q8.014-.691,7.66-4.625c-.218-2.553-2.817-3.634-7.787-3.153-.909.082-1.954.209-3.117.409q-3.371.563-4.316.654-5.033.445-5.406-3.907a8.758,8.758,0,0,1,.963-4.607l4.107-8.441a35.939,35.939,0,0,1-12.411-5.052,5.96,5.96,0,0,1-6.206,7.269q-7.332.636-7.85-5.352c-.082-.909-.109-2.317-.091-4.234a40.7,40.7,0,0,0-.1-4.225c-.1-.909-.245-2.026-.527-3.634s-.454-2.826-.527-3.634q-.527-6.124,7.069-6.769a11.58,11.58,0,0,1,5.679.591,14,14,0,0,1,4.443,3.862,20.547,20.547,0,0,0,6.815,6.033,18.172,18.172,0,0,0,8.559.818q9.777-.863,9.24-6.96c-.245-2.8-3.044-4.543-8.386-5.152l-8.032-.909a61.517,61.517,0,0,1-14-2.871,14.62,14.62,0,0,1-6.869-5.906,21.334,21.334,0,0,1-3.189-9.9,21.9,21.9,0,0,1,5.27-17.154,24.534,24.534,0,0,1,17.018-8,27.258,27.258,0,0,1,18.172,4.289q0-5.743,6.833-6.36c4.616-.4,7.069,1.036,7.35,4.28a14.651,14.651,0,0,1-.209,3.725,27.6,27.6,0,0,0,0,4.652c0,.273.127.981.327,2.154s.2,2.217.282,3.125l.045.536a6.36,6.36,0,0,1-6.578,7.832A10.994,10.994,0,0,1,286,206.992a13.72,13.72,0,0,0-11.812-5.251q-7.886.672-7.405,6.124a4.08,4.08,0,0,0,2.935,3.78,79.576,79.576,0,0,0,13.838,1.872,56.676,56.676,0,0,1,13.557,2.5,18.174,18.174,0,0,1,7.514,5.234,19.643,19.643,0,0,1,4.388,11.1,22.077,22.077,0,0,1-6.442,17.945,28.7,28.7,0,0,1-17.109,8.3l-2.644,7.514a51.074,51.074,0,0,1,5.37-1.145,14.41,14.41,0,0,1,9.995,2.471,10.467,10.467,0,0,1,4.543,7.887,13.628,13.628,0,0,1-5.306,11.875,25.885,25.885,0,0,1-15.146,5.915q-2.035.182-3.916.182a28.464,28.464,0,0,1-10.131-1.681M115.438,249.842q-.318-3.789-.654-11.439c-.209-5.079-.445-8.9-.654-11.43l-.382-4.352a9.5,9.5,0,0,0-.972-4.216c-.464-.554-1.463-.772-3.007-.627l-2.172.191a5.252,5.252,0,0,1-4.37-1.59,7.743,7.743,0,0,1-2.126-4.952,8.715,8.715,0,0,1,1.272-5.515,4.933,4.933,0,0,1,3.807-2.581l2.571-.236c2.162-.191,3.389-.909,3.634-2.226a11.4,11.4,0,0,0,.091-3.716L111.9,190.5a7.469,7.469,0,0,1,1.917-6.733,17.025,17.025,0,0,1,9.032-2.553,10.9,10.9,0,0,1,6.56.8,7.761,7.761,0,0,1,2.217,5.815l.636,7.323a9.33,9.33,0,0,0,1.19,4.816c.536.591,1.863.809,3.943.618l9.786-.854q8-.691,8.659,6.778a6.442,6.442,0,0,1-6.706,7.823L138,215.306c-1.9.164-2.99.591-3.307,1.245a6.189,6.189,0,0,0-.291,3.035l.482,5.57.609,8.432.527,9.086c.164,2.889.237,4.134.191,3.716q.709,7.96,5.861,7.5c3.253-.282,4.688-2.817,4.261-7.623a7.65,7.65,0,0,0-.282-1.563c0-.445-.091-1.054-.155-1.817a8.885,8.885,0,0,1-.273-1.3,6.5,6.5,0,0,1,6.678-7.978q8.541-.763,9.749,12.966a22.054,22.054,0,0,1-4.907,17.327,24.96,24.96,0,0,1-17.263,7.587q-1.718.146-3.307.145-19.226.018-21.134-21.8m59.968,12.884a19.162,19.162,0,0,1-7.7-14.456,17.582,17.582,0,0,1,10.749-19.535,87.7,87.7,0,0,1,11.939-4.016,41.324,41.324,0,0,0,12.784-4.879,7.079,7.079,0,0,0,2.9-6.742,6.5,6.5,0,0,0-3.107-5.006,10.358,10.358,0,0,0-6.769-1.527c-2.98.264-4.4,1.354-4.225,3.253a15.207,15.207,0,0,0,.282,1.89l.063.536a7.941,7.941,0,0,1-2.644,6.66,12.268,12.268,0,0,1-7.714,3.271,12.719,12.719,0,0,1-9.24-2.471,10.648,10.648,0,0,1-4.243-7.832,12.838,12.838,0,0,1,6.715-12.221,45.174,45.174,0,0,1,20.961-6.079,42.349,42.349,0,0,1,22.261,2.571,19.908,19.908,0,0,1,9.322,17.509l2.453,28.1q.381,4.343,2.562,4.143a13.407,13.407,0,0,0,2.017-.3,2.991,2.991,0,0,1,.909-.227,7.441,7.441,0,0,1,8.113,6.7c0,.04.007.08.011.12a8.677,8.677,0,0,1-3.38,7.678,17.166,17.166,0,0,1-9.995,3.744,14.683,14.683,0,0,1-15.719-7.651,31.892,31.892,0,0,1-21.807,10.9q-1.663.145-3.235.145a23.627,23.627,0,0,1-14.274-4.28ZM196.3,237.7c-4.87,1.69-7.2,3.871-6.96,6.5q.536,6.242,7.877,5.606a10.9,10.9,0,0,0,10.994-13.557l-.255-2.989a118.928,118.928,0,0,1-11.63,4.452Zm122.044,13.874a9.087,9.087,0,0,1-2.871-6.233q-.672-7.751,5.842-8.314l3.634.5a3.759,3.759,0,0,0,.963.055c1.635-.137,2.235-2.726,1.817-7.805l-1.926-22q-.672-7.723-2.98-7.542a13.936,13.936,0,0,0-2.4.909,11.593,11.593,0,0,1-2.144.463q-6.515.563-7.178-7.033a9.36,9.36,0,0,1,1.7-6.805,7.869,7.869,0,0,1,5.852-3.035,32.584,32.584,0,0,1,4.379,0,59.308,59.308,0,0,0,7.669,0,44.016,44.016,0,0,0,5.924-1.063c2.408-.572,3.753-.909,4.034-.909,2.517-.209,3.961,1.426,4.261,4.961l3.571,40.887q.618,6.933,3.189,6.706a10.078,10.078,0,0,0,1.926-.518,10.468,10.468,0,0,1,2.353-.545c3.8-.327,5.9,1.817,6.306,6.569q.836,9.358-7.178,10.058-1.363.123-7.66,0a82.577,82.577,0,0,0-8.713.364,72.514,72.514,0,0,0-7.16,1.163,70.917,70.917,0,0,1-7,1.163H323.7a7.586,7.586,0,0,1-5.352-2" transform="translate(-65.482 -117.305)"/>
        <path id="Path_1119" data-name="Path 1119" d="M108.716,74.363c-.69-.064-1.472-.155-2.317-.272h.091a43.461,43.461,0,0,0-5.551-.282c-.6,0-1.181,0-1.717.045s-1.063.073-1.545.127a.847.847,0,0,0-.309.045,1.31,1.31,0,0,1-.318.045c-.909.118-1.745.209-2.453.272s-1.281.091-1.645.091a5.3,5.3,0,0,1-3.543-1.226,3.815,3.815,0,0,1-1.454-3.026c0-2.608,1.445-3.907,4.361-3.907a6.094,6.094,0,0,1,.909.045,9.73,9.73,0,0,1,1.054.127,6.6,6.6,0,0,0,1.817.372c.227,0,.418-.245.527-.727a24.646,24.646,0,0,0,.291-3.235q.072-2.217.172-5.851V40.427q0-8.314.136-16.582c-.054-1.872-.3-2.817-.718-2.817a5.534,5.534,0,0,0-1.363.263,9.93,9.93,0,0,1-1.181.282,7.437,7.437,0,0,1-1.281.091c-3.089,0-4.625-1.354-4.625-4.088s1.754-3.9,5.27-3.9h1.09a7.034,7.034,0,0,1,1.108.082,4.549,4.549,0,0,1,.681.046,3.924,3.924,0,0,0,.581.045,7.024,7.024,0,0,0,1.045.091h.691a8.077,8.077,0,0,0,.909-.045c.436-.045.854-.082,1.281-.137a10.827,10.827,0,0,1,1.272-.082h1a3.126,3.126,0,0,1,3.534,2.655c0,.024.007.048.009.071a17.072,17.072,0,0,1,11.685-4.28,20.7,20.7,0,0,1,8.359,1.627,18.6,18.6,0,0,1,6.36,4.634,20.361,20.361,0,0,1,4.089,7.323,31.539,31.539,0,0,1,1.4,9.677,30.828,30.828,0,0,1-1.545,10.086,28.247,28.247,0,0,1-4.225,8.077,17.865,17.865,0,0,1-6.724,5.188,21.281,21.281,0,0,1-8.723,1.727,17.264,17.264,0,0,1-10.63-3.271v6.533a9.684,9.684,0,0,0,.091,1.463V65.1c.245,1.154.618,1.726,1.1,1.726a7.639,7.639,0,0,0,1.272-.182c.418-.055.909-.127,1.59-.182l.854-.1a3.579,3.579,0,0,1,4.1,4.007q0,4.089-5.088,4.089c-.491,0-1.081-.036-1.772-.091m1.508-51.518V48.831a1,1,0,0,0,1.817.6l6.669-8.913a2.807,2.807,0,0,1,2.235-1.118h11.14a1,1,0,0,0,.6-1.817l-20.87-15.546a1,1,0,0,0-1.6.79.156.156,0,0,0,0,.018ZM43.078,56.7A12.4,12.4,0,0,1,38.535,46.65,12.439,12.439,0,0,1,40.4,39.881a14.164,14.164,0,0,1,5.034-4.761A17.6,17.6,0,0,1,49.7,33.3a63.641,63.641,0,0,1,7-1.108,24.7,24.7,0,0,0,8.8-1.908A4.653,4.653,0,0,0,67.048,26.2a5.743,5.743,0,0,0-2.035-4.625,8.761,8.761,0,0,0-5.77-1.726,11.082,11.082,0,0,0-6.46,2v-.091a2.786,2.786,0,0,0-.627.727h.091a4.968,4.968,0,0,1,1.908,3.9A4.7,4.7,0,0,1,52.483,30.1a6.287,6.287,0,0,1-4.234,1.454A6.587,6.587,0,0,1,43.442,29.7a6.26,6.26,0,0,1-1.908-4.688,10.9,10.9,0,0,1,5.351-9.177,20.505,20.505,0,0,1,12.457-3.725q17.164,0,17.164,16.273v20.4a12.991,12.991,0,0,0,.145,1.681c.3,1.345.772,2,1.445,2,1.027,0,1.554-1.427,1.554-4.28V43.925c0-2.6,1.345-3.9,4.071-3.9,2.908,0,4.37,1.754,4.37,5.27v.454L88,50.658q-.137,9.44-10.222,9.449a9.277,9.277,0,0,1-9.086-4.543A17.854,17.854,0,0,1,55.335,60.47,18.607,18.607,0,0,1,43.078,56.7M65.793,38.8a10.125,10.125,0,0,1-1.136.409,36.8,36.8,0,0,1-7.723,1.272c-5.7.527-8.55,2.571-8.55,6.088a5.17,5.17,0,0,0,1.954,4.216,8.286,8.286,0,0,0,5.406,1.59,10.975,10.975,0,0,0,8.05-2.808,10.639,10.639,0,0,0,2.989-7.732l.1-3.453a7.961,7.961,0,0,0-1.045.418ZM14.357,58.79a10.668,10.668,0,0,1-4.407-3.634,21.331,21.331,0,0,1-2.408-11.5V23.027c0-.427-.046-.636-.182-.636H4.635a4.66,4.66,0,0,1-3.316-1.226A3.934,3.934,0,0,1,0,18.12a4.053,4.053,0,0,1,1.327-2.953,4.145,4.145,0,0,1,3.044-1.308H7.725V4.582Q7.725.044,12.54.039a4.025,4.025,0,0,1,4.543,4.543v9.177c0,.064,0,.1.091.1h9.359q4.734,0,4.734,4.18c0,2.9-1.645,4.352-4.906,4.352H16.81a.727.727,0,0,1,.273.636V44.2q0,7.823,4.452,7.823,4.834,0,4.825-6.1l.172-5.533q.2-4.725,4.634-4.725t4.452,5.179a40.149,40.149,0,0,1-.727,8.314,17.867,17.867,0,0,1-2,5.451A13.229,13.229,0,0,1,21,60.062a15.825,15.825,0,0,1-6.6-1.227Z" transform="translate(0 0)"/>
      </g>
    </g>
  </g>
</svg>
