<svg xmlns="http://www.w3.org/2000/svg" xmlns:xlink="http://www.w3.org/1999/xlink" width="624" height="230" viewBox="0 0 624 230">
  <defs>
    <clipPath id="clip-path">
      <rect id="Rectangle_435" data-name="Rectangle 435" width="129.077" height="147.647" fill="none"/>
    </clipPath>
    <clipPath id="clip-path-2">
      <rect id="Rectangle_436" data-name="Rectangle 436" width="518.535" height="85.797" transform="translate(0 0)" fill="none"/>
    </clipPath>
    <clipPath id="clip-welcome">
      <rect width="624" height="230"/>
    </clipPath>
  </defs>
  <g id="welcome" clip-path="url(#clip-welcome)">
    <rect width="624" height="230" fill="#f4f4f4"/>
    <g id="Group_143" data-name="Group 143" transform="translate(423.923 18.853)">
      <g id="Group_145" data-name="Group 145" clip-path="url(#clip-path)">
        <path id="Path_1140" data-name="Path 1140" d="M79.265,129.694c-3.956,11.215-7.5,22.972-5.773,34.986a36.475,36.475,0,0,0,2.677,9.388,1.28,1.28,0,0,0,1.738.456,1.3,1.3,0,0,0,.455-1.737c-4.548-10.452-2.9-22.294.213-32.887.943-3.21,2.026-6.376,3.139-9.53.544-1.544-1.908-2.208-2.449-.675" transform="translate(-23.582 -41.591)"/>
        <path id="Path_1141" data-name="Path 1141" d="M94.748,141.209c11.234,3.674,17.5,14.616,21.862,24.849a1.279,1.279,0,0,0,1.737.456,1.3,1.3,0,0,0,.456-1.737c-4.649-10.917-11.467-22.12-23.38-26.017-1.557-.509-2.224,1.942-.675,2.449" transform="translate(-30.305 -44.777)"/>
        <path id="Path_1142" data-name="Path 1142" d="M123.753,135.834c10.8-.634,20.524,5.8,27.183,13.819,1.045,1.258,2.833-.547,1.8-1.8-7.058-8.5-17.566-15.232-28.979-14.562-1.624.1-1.635,2.635,0,2.539" transform="translate(-39.559 -43.02)"/>
        <path id="Path_1143" data-name="Path 1143" d="M97.609,119.361a54.3,54.3,0,0,1,43.786-3.344,51.1,51.1,0,0,1,11.474,5.758c1.362.912,2.634-1.287,1.281-2.193a56.826,56.826,0,0,0-45.539-7.338,53.847,53.847,0,0,0-12.283,4.923c-1.431.79-.151,2.984,1.282,2.193" transform="translate(-30.897 -35.636)"/>
        <path id="Path_1144" data-name="Path 1144" d="M120.172,96.548a44.437,44.437,0,0,1,28.746-10.6,1.27,1.27,0,0,0,0-2.539,47.157,47.157,0,0,0-30.541,11.341c-1.242,1.066.561,2.855,1.8,1.8" transform="translate(-38.083 -26.929)"/>
        <path id="Path_1145" data-name="Path 1145" d="M93.826,88.548a39.346,39.346,0,0,1,9.2-21.826A47.721,47.721,0,0,1,123.172,52.81a59.279,59.279,0,0,1,14.025-3.3,1.307,1.307,0,0,0,1.27-1.27,1.278,1.278,0,0,0-1.27-1.27,58.493,58.493,0,0,0-25.385,8.678A46.023,46.023,0,0,0,94.961,74.724a40.465,40.465,0,0,0-3.674,13.823c-.13,1.629,2.41,1.62,2.539,0" transform="translate(-29.47 -15.164)"/>
        <path id="Path_1146" data-name="Path 1146" d="M93.8,60.236a40.3,40.3,0,0,1,8.325-25.141,1.278,1.278,0,0,0-.456-1.737,1.3,1.3,0,0,0-1.737.456A42.513,42.513,0,0,0,91.26,60.236a1.27,1.27,0,0,0,2.539,0" transform="translate(-29.461 -10.713)"/>
        <path id="Path_1147" data-name="Path 1147" d="M73.162,81.888C72.933,66.525,69.4,50.213,57.823,39.27a35.579,35.579,0,0,0-9.7-6.59,1.31,1.31,0,0,0-1.737.456,1.278,1.278,0,0,0,.456,1.737A36.012,36.012,0,0,1,61.715,47.815,52.73,52.73,0,0,1,69.5,68.469a88.1,88.1,0,0,1,1.125,13.42,1.27,1.27,0,0,0,2.539,0" transform="translate(-14.922 -10.503)"/>
        <path id="Path_1148" data-name="Path 1148" d="M51.83,81A33.314,33.314,0,0,0,30.437,64.6c-2.944-.754-5.95-1.23-8.951-1.7a1.312,1.312,0,0,0-1.562.887,1.278,1.278,0,0,0,.886,1.562c6.155.955,12.378,2.023,17.791,5.284A30.229,30.229,0,0,1,49.637,82.282c.771,1.442,2.963.16,2.193-1.282" transform="translate(-6.42 -20.301)"/>
        <path id="Path_1149" data-name="Path 1149" d="M48.956,105.461a63.8,63.8,0,0,0-35.14-13.783,60.9,60.9,0,0,0-10.75.167,1.307,1.307,0,0,0-1.27,1.27,1.278,1.278,0,0,0,1.27,1.27A61.145,61.145,0,0,1,38.6,101.558a59.032,59.032,0,0,1,8.565,5.7,1.311,1.311,0,0,0,1.8,0,1.278,1.278,0,0,0,0-1.8" transform="translate(-0.58 -29.546)"/>
        <path id="Path_1150" data-name="Path 1150" d="M33.774,117.09a24.883,24.883,0,0,0-20.427-2.69c-1.556.482-.892,2.934.675,2.449a22.367,22.367,0,0,1,18.47,2.434c1.387.874,2.663-1.322,1.282-2.193" transform="translate(-4.023 -36.584)"/>
        <path id="Path_1151" data-name="Path 1151" d="M46.659,127.072a62.01,62.01,0,0,0-12.642.123,31.844,31.844,0,0,0-8.861,2.687,34.725,34.725,0,0,0-14.107,12.151,32.13,32.13,0,0,0-4.385,9.758,1.271,1.271,0,0,0,2.449.675,31.564,31.564,0,0,1,24.5-22.649c4.294-.776,8.718-.469,13.046-.207,1.632.1,1.627-2.44,0-2.539" transform="translate(-2.137 -40.941)"/>
        <path id="Path_1152" data-name="Path 1152" d="M49.7,152.152A40.427,40.427,0,0,0,37.943,178.3c-.1,1.633,2.444,1.627,2.539,0a37.739,37.739,0,0,1,11.009-24.354,1.271,1.271,0,0,0-1.8-1.8" transform="translate(-12.249 -49.002)"/>
        <path id="Path_1153" data-name="Path 1153" d="M55.831,199.831a19.732,19.732,0,0,1-.024,3.4,2.468,2.468,0,0,1-.384.96,1.088,1.088,0,0,1-.6.474l.978,2.321c-.139.062-.158-.045.016.052-.064-.035.228.119.24.129a1.523,1.523,0,0,1,.339.6,12.355,12.355,0,0,1,.377,2.548,1.307,1.307,0,0,0,1.27,1.27,1.281,1.281,0,0,0,1.27-1.27c-.11-1.662-.313-4.461,1.728-4.9a1.275,1.275,0,0,0-.338-2.494c-.5.005-.962-.477-1.224-1.062-.408-.91-.485-1.958-.8-2.9a1.277,1.277,0,0,0-1.393-.909,1.26,1.26,0,0,0-1.1,1.247l.185,2.97q.047.742.093,1.485c.014.212.026.424.04.637l.026.424q-.015.574.236-.27l.9-.372-.1.012a1.31,1.31,0,0,0-1.27,1.27,1.278,1.278,0,0,0,1.27,1.27,1.556,1.556,0,0,0,1.492-1.408,10.744,10.744,0,0,0-.08-1.987q-.126-2.015-.251-4.03l-2.494.337c.433,1.286.53,2.7,1.262,3.877a3.81,3.81,0,0,0,3.212,1.951l-.337-2.494a4.532,4.532,0,0,0-3.052,2.611,9.746,9.746,0,0,0-.54,4.741h2.539c-.165-1.44-.154-3.1-.981-4.353a3.021,3.021,0,0,0-3.812-1.169,1.271,1.271,0,0,0,.978,2.321,4.125,4.125,0,0,0,2.633-2.766c.492-1.452.189-3.015.237-4.511.052-1.635-2.487-1.633-2.539,0" transform="translate(-17.403 -63.933)"/>
        <path id="Path_1154" data-name="Path 1154" d="M93.455,179.6c-.186.025.009.012.093.011a2.94,2.94,0,0,1,.309.014c-.137-.014-.062-.011.028.013s.2.051.3.083c.045.015.274.127.1.035.073.039.146.077.217.118.025.015.274.192.175.112s.154.15.15.146a2.381,2.381,0,0,1,.166.184c-.123-.156.031.064.05.1a3,3,0,0,1,.147.272c-.058-.122-.013-.034.01.041.03.1.06.2.082.3.012.051.034.311.021.09,0,.082.009.165.009.247,0,.022-.036.4,0,.154l2.494.337c.009-.932-.021-1.874.029-2.805.006-.117.054-.14.008-.042-.058.123-.026.022.024-.033-.182.2.122-.1.007,0-.079.07.107-.07.128-.083a2.177,2.177,0,0,1,.305-.165c-.116.048.06-.014.087-.022a1.907,1.907,0,0,1,.484-.088q-.17-1.246-.338-2.494c.185-.027-.012-.007-.095-.006-.1,0-.207,0-.31-.01.136.011.06.012-.031-.01s-.2-.049-.3-.08c-.042-.014-.28-.121-.1-.033-.074-.037-.148-.075-.219-.117-.024-.014-.278-.188-.178-.111s-.156-.148-.153-.145a2.257,2.257,0,0,1-.167-.184c.123.151-.035-.064-.054-.1-.054-.088-.1-.179-.148-.272.058.121.011.032-.012-.042-.031-.1-.061-.2-.084-.3-.012-.049-.037-.313-.022-.092-.005-.083-.01-.165-.01-.248,0-.021.035-.4,0-.157a1.3,1.3,0,0,0-.886-1.562,1.29,1.29,0,0,0-1.562.887,4.426,4.426,0,0,0-.058,1.554c.025.205.056.41.073.616.009.12.008.238.014.358.011.228.043-.052,0,.062-.022.057-.045.292-.012.07l-.063.1q.116-.148.023-.052c-.084.1.158-.079-.04.027-.1.052-.192.1-.29.153-.213.106.081-.027-.058.025-.088.034-.175.071-.261.107a6.58,6.58,0,0,0-.8.375,1.27,1.27,0,0,0,.641,2.366c1.182-.109,2.361-.257,3.535-.435a1.274,1.274,0,0,0,.887-1.561,1.309,1.309,0,0,0-1.562-.887c-.928.142-1.853.252-2.86.345q.321,1.182.641,2.366c.1-.056.2-.1.295-.156.263-.135-.139.052.112-.048.274-.109.553-.217.816-.351a2.727,2.727,0,0,0,1.3-1.346,3.341,3.341,0,0,0,.21-1.7c-.027-.248-.066-.494-.088-.743-.011-.123-.018-.245-.017-.369,0-.061,0-.121.006-.182q-.034.207.012-.018l-2.449-.675a4.254,4.254,0,0,0,5.013,5.027,1.272,1.272,0,0,0-.337-2.494,3.792,3.792,0,0,0-3.317,1.826,4.835,4.835,0,0,0-.278,2.036q-.009.956-.018,1.911a1.269,1.269,0,0,0,1.1,1.247,1.253,1.253,0,0,0,1.394-.909,4.254,4.254,0,0,0-4.98-5.038,1.272,1.272,0,0,0-.886,1.561,1.311,1.311,0,0,0,1.562.887" transform="translate(-29.653 -55.731)"/>
        <path id="Path_1155" data-name="Path 1155" d="M66.013,19.506a16,16,0,0,1,1.19-2.585q.324-.564.691-1.1c.143-.211.366-.668.62-.783.274-.123.89.077,1.189.116.53.07,1.058.147,1.585.228,1.067.165,2.129.352,3.189.555,1.01.194,2.084-.867,1.434-1.865-1.007-1.545-2.031-3.08-3.021-4.635-.181-.285-.191-.276-.124-.572a5.114,5.114,0,0,1,.559-1.1,27.342,27.342,0,0,1,1.446-2.373,1.284,1.284,0,0,0-1.1-1.911,15.886,15.886,0,0,0-2.619-.06c-.328.022-.653.055-.979.1a4.838,4.838,0,0,1-1.308.205c.02.006-.384-.477-.507-.632l-.585-.738L66.114.384a1.278,1.278,0,0,0-2.122.561L62.536,6.668a3.133,3.133,0,0,1-.289.969c-.205.3-.724.46-1.038.631L58.731,9.621a1.282,1.282,0,0,0,0,2.193,10.911,10.911,0,0,0,5.5,1.659l-1.27-1.27a55.753,55.753,0,0,0,.4,6.8,1.309,1.309,0,0,0,1.27,1.27A1.277,1.277,0,0,0,65.906,19a55.753,55.753,0,0,1-.4-6.8,1.292,1.292,0,0,0-1.27-1.27,8.313,8.313,0,0,1-4.219-1.312v2.193q1.376-.753,2.754-1.5a3.67,3.67,0,0,0,1.992-2.117c.7-2.131,1.128-4.4,1.681-6.573l-2.122.56,1.754,2.213c.527.664,1.027,1.525,1.885,1.792A6.667,6.667,0,0,0,70.563,6a15.594,15.594,0,0,1,3.109.018l-1.1-1.91a27.163,27.163,0,0,0-1.661,2.783,3.968,3.968,0,0,0-.685,2.884,10.4,10.4,0,0,0,1.532,2.578l1.955,3,1.434-1.866q-2.067-.4-4.149-.7c-1.167-.166-2.6-.59-3.7.009a6.731,6.731,0,0,0-2.145,2.591,19.551,19.551,0,0,0-1.592,3.441c-.551,1.542,1.9,2.205,2.449.675" transform="translate(-18.762 0)"/>
        <path id="Path_1156" data-name="Path 1156" d="M176.627,82.9a3.329,3.329,0,0,1-2.193-.494c-1.14-.71-2.278.66-1.737,1.738a10.631,10.631,0,0,1,.572,1.348,2.865,2.865,0,0,1,.255.995,5.494,5.494,0,0,1-.536,1.356l-.64,1.575c-.4.977.724,1.727,1.562,1.562l1.786-.351a6.417,6.417,0,0,1,1.633-.276l-.641-.173c-.041-.066-.033-.066.024,0s.131.137.194.209l.29.315.8.867,1.528,1.654a1.282,1.282,0,0,0,2.168-.9c-.062-.588-.113-1.178-.151-1.769q-.026-.416-.044-.834a1.454,1.454,0,0,0-.014-.4c-.067-.152.128-.156-.1.062a19.147,19.147,0,0,1,2.688-1.967c.7-.474.941-1.78,0-2.193a2.659,2.659,0,0,1-1.567-1.622c-.335-1.018-.465-2.056-.9-3.047a1.284,1.284,0,0,0-1.994-.257l-3.627,3.015a1.278,1.278,0,0,0,0,1.8,1.3,1.3,0,0,0,1.8,0l3.627-3.015-1.994-.257c.458,1.041.477,2.214.972,3.256a4.891,4.891,0,0,0,2.406,2.324V85.228q-.918.616-1.806,1.274a6.6,6.6,0,0,0-1.689,1.452,3.34,3.34,0,0,0-.324,2.087q.059,1.148.181,2.29l2.168-.9-1.6-1.734a9,9,0,0,0-1.627-1.65c-.766-.475-1.735-.131-2.548.029l-2.31.454L174.8,90.1q.36-.887.72-1.772a5.209,5.209,0,0,0,.567-1.882,8.7,8.7,0,0,0-1.193-3.577L173.152,84.6a5.614,5.614,0,0,0,3.474.84,1.3,1.3,0,0,0,1.27-1.27,1.279,1.279,0,0,0-1.27-1.27" transform="translate(-55.616 -25.812)"/>
        <path id="Path_1157" data-name="Path 1157" d="M131.39,35.516a4.967,4.967,0,0,0,3.8-2.364,8.851,8.851,0,0,0,1.1-4.737h-2.539a8.459,8.459,0,0,0,1.094,4.483,4.072,4.072,0,0,0,4.051,1.832,1.272,1.272,0,0,0-.338-2.494,4.617,4.617,0,0,0-3.613,2.2,6.482,6.482,0,0,0-.67,4.532,1.257,1.257,0,0,0,1.393.909,1.271,1.271,0,0,0,1.1-1.247,5.868,5.868,0,0,0-1.377-4.078,4.241,4.241,0,0,0-1.638-1.094,4.168,4.168,0,0,0-1.058-.221c-.278-.03-.347,0-.523-.112q-.32,1.182-.641,2.366a11.256,11.256,0,0,0,3.512-.546,2.047,2.047,0,0,0,1.446-1.092,1.362,1.362,0,0,0-.892-1.861,1.271,1.271,0,0,0-.675,2.449l.065.019-.887-.887.02.055V32.95c.047-.219.892-.669.247-.455-.116.039-.234.075-.352.11q-.443.128-.9.215a8.539,8.539,0,0,1-1.588.131,1.28,1.28,0,0,0-.641,2.366,3.862,3.862,0,0,0,1.727.452,1.645,1.645,0,0,1,.767.367,3.222,3.222,0,0,1,.844,2.494l2.494-.338a3.785,3.785,0,0,1,.339-2.449,2.429,2.429,0,0,1,.649-.739,1.828,1.828,0,0,1,.847-.329l-.337-2.494c.112-.018-.108-.007-.114-.008a1.451,1.451,0,0,1-.178-.034,1.178,1.178,0,0,1-.454-.216,2.145,2.145,0,0,1-.68-.8,6.9,6.9,0,0,1-.5-2.8,1.27,1.27,0,0,0-2.539,0,6.715,6.715,0,0,1-.6,3.193,3.011,3.011,0,0,1-.75.925,2.15,2.15,0,0,1-1.016.444,1.3,1.3,0,0,0-1.27,1.27,1.279,1.279,0,0,0,1.27,1.27" transform="translate(-42.009 -8.778)"/>
        <path id="Path_1158" data-name="Path 1158" d="M43.409,53.618c.031.1.06.207.082.314.069.33.008-.189.014.072,0,.186.008.367,0,.553-.014.285.057-.229,0,.028-.024.106-.044.211-.072.316s-.066.205-.1.309c-.079.246.113-.212-.017.038a4.921,4.921,0,0,1-.277.481c-.035.051-.07.1-.107.151.1-.123.113-.148.053-.077-.075.077-.142.161-.219.236-.051.051-.138.169-.2.186q.188-.139.076-.057l-.113.079a3.381,3.381,0,0,1-.57.3,1.27,1.27,0,0,0-.584,1.434,1.329,1.329,0,0,0,1.224.932,9.526,9.526,0,0,0,1.22-.026c.2-.009.4,0,.6,0,.146,0-.2-.061.028.007.1.03.278.142.092.015.033.022.256.188.12.064-.152-.138.077.07.077.091-.089-.125-.108-.148-.054-.072.027.039.053.078.077.118.049.083.09.169.133.255-.074-.146-.05-.127,0,.014.027.077.053.156.077.234.056.188.1.379.148.57a1.275,1.275,0,0,0,2.494-.338,8.344,8.344,0,0,1,.022-1.033c.011-.142-.038.15.017-.082.018-.079.033-.158.053-.236s.042-.156.066-.232c.011-.035.133-.339.058-.173-.064.144.035-.06.047-.084.033-.062.066-.123.1-.182s.095-.146.145-.217c-.065.093-.091.106,0,.015a3.505,3.505,0,0,1,.3-.285c-.205.167-.012.023.04-.008.074-.044.151-.082.23-.119a1.279,1.279,0,0,0-.641-2.366c-.014,0-.2.007-.2,0-.005.039.255.015.009-.013-.145-.016.163.1.037.021a2.156,2.156,0,0,0-.21-.123c.087.042.129.116.02.015-.062-.058-.125-.115-.184-.177s-.089-.106-.139-.154c-.129-.125.156.232-.025-.029a8.234,8.234,0,0,1-.505-.84c-.089-.168-.175-.339-.255-.512-.012-.025-.139-.313-.089-.2s-.082-.209-.079-.2a1.287,1.287,0,0,0-1.393-.909,1.258,1.258,0,0,0-1.1,1.247,22.618,22.618,0,0,0,.667,4.257,1.27,1.27,0,1,0,2.449-.675c-.16-.62-.295-1.246-.4-1.878-.025-.153-.049-.305-.069-.458.028.21-.023-.209-.028-.255-.036-.329-.062-.66-.083-.99l-2.494.338c.668,1.719,1.852,4.2,4.065,4.07q-.32-1.183-.641-2.366c-1.806.86-2.419,2.976-2.337,4.829l2.494-.337a4.087,4.087,0,0,0-1.651-2.738c-1.051-.633-2.178-.307-3.316-.395q.32,1.183.641,2.366a4.941,4.941,0,0,0,2.627-5.8,1.27,1.27,0,0,0-2.449.675" transform="translate(-13.34 -16.697)"/>
        <path id="Path_1159" data-name="Path 1159" d="M5.041,44.229a14.208,14.208,0,0,0-3.462-1.191q.279,1.06.56,2.122c.982-1.108,2.1-2.087,2.969-3.288a12.036,12.036,0,0,0,1.737-4.334L4.98,38.3c.641.45,1.265.92,1.868,1.419a12.5,12.5,0,0,0,1.762,1.455,2.479,2.479,0,0,0,2.226-.065l2.318-.869-1.434-1.866-1.108,2.137a3.635,3.635,0,0,0-.658,2.275,9.192,9.192,0,0,0,.839,2.1l1.06,2.366,1.434-1.865-2.819-.749A2.563,2.563,0,0,0,7.791,45a23.778,23.778,0,0,0-1.84,2.054q-.978,1.136-1.916,2.306l2.168.9q-.008-2.123-.017-4.245a1.27,1.27,0,0,0-2.539,0q.009,2.122.017,4.245c0,1.011,1.449,1.792,2.168.9q1.526-1.9,3.153-3.713a3.12,3.12,0,0,0,.42-.462l.119-.126-.271.074a9.744,9.744,0,0,0,1.009.279l2.349.624a1.287,1.287,0,0,0,1.434-1.865q-.425-.947-.848-1.893l-.318-.71c-.081-.18-.261-.852-.424-.947q-.047-.252-.03.109.1-.2.205-.4.174-.338.35-.675l.932-1.8c.464-.895-.324-2.281-1.434-1.866l-1.855.7a5.16,5.16,0,0,0-.927.348c-.315.2.126.076.107.1a3.569,3.569,0,0,0-.33-.3A36.558,36.558,0,0,0,6.261,36.1a1.278,1.278,0,0,0-1.865.758A9.874,9.874,0,0,1,2.916,40.59C2.16,41.6,1.177,42.424.343,43.364A1.283,1.283,0,0,0,.9,45.486a11.664,11.664,0,0,1,2.856.935A1.3,1.3,0,0,0,5.5,45.966a1.282,1.282,0,0,0-.456-1.737" transform="translate(0 -11.596)"/>
      </g>
    </g>
    <g id="Group_147" data-name="Group 147" transform="translate(53 154)">
      <g id="Group_146" data-name="Group 146" clip-path="url(#clip-path-2)">
        <path id="Path_1160" data-name="Path 1160" d="M45.861,84h-27a1.073,1.073,0,0,1-1.2-.96L.023,1.2C-.1.36.263,0,.983,0H25.342a.972.972,0,0,1,1.081.961L34.942,48.6,45.021.961A1.075,1.075,0,0,1,46.221,0H69.98a1.073,1.073,0,0,1,1.2.961L82.1,48.719,90.019.961A.971.971,0,0,1,91.1,0h22.2c.719,0,1.08.36.959,1.2L96.5,83.037a1.075,1.075,0,0,1-1.2.96h-27a1.074,1.074,0,0,1-1.2-.96L57.141,39.478,47.061,83.037a1.073,1.073,0,0,1-1.2.96"/>
        <path id="Path_1161" data-name="Path 1161" d="M150.261,64.078a1.073,1.073,0,0,1,1.2-.96H173.3c.72,0,1.2.48.96,1.2C172.1,74.4,161.541,85.8,142.7,85.8c-20.64,0-33.959-12.959-33.959-32.519,0-20.159,13.679-32.879,32.879-32.879,21.6,0,33.478,12.24,33.838,36.959a1.007,1.007,0,0,1-1.08,1.08H133.7c.839,9,4.08,10.919,8.759,10.919,3.84,0,6.48-1.679,7.8-5.279M134.062,45H149.9c0-5.28-2.76-8.88-7.44-8.88-3.96,0-7.08,1.68-8.4,8.88"/>
        <path id="Path_1162" data-name="Path 1162" d="M204.5,82.917A1.074,1.074,0,0,1,203.42,84H180.861a1.076,1.076,0,0,1-1.08-1.08l.481-40.438-.481-41.4A1.076,1.076,0,0,1,180.861,0H203.42a1.075,1.075,0,0,1,1.08,1.08L204.021,42.6Z"/>
        <path id="Path_1163" data-name="Path 1163" d="M209.062,53.278c0-19.919,13.2-32.879,33.119-32.879,18.119,0,29.4,9.72,30.839,24.119.119.72-.24,1.08-.961,1.08H250.821q-.9,0-1.08-1.08c-.84-5.519-3.241-7.439-6.84-7.439-5.28,0-8.04,3.96-8.04,15.959s2.76,16.2,7.92,16.2c3.719,0,6.84-2.159,7.319-7.68a1.173,1.173,0,0,1,1.2-1.079h21.6c.72,0,1.079.36.96.959C272.54,75.6,259.7,85.8,242.3,85.8c-20.04,0-33.239-12.6-33.239-32.519"/>
        <path id="Path_1164" data-name="Path 1164" d="M277.1,53.278c0-19.919,12.72-32.879,34.2-32.879,21.6,0,33.958,12.48,33.958,32.4s-12.36,33-33.958,33c-21.48,0-34.2-12.6-34.2-32.519m42.479,0c0-12.239-2.76-16.439-8.4-16.439-6,.24-8.521,4.44-8.521,16.679,0,12.119,2.881,15.719,8.641,15.719,5.639,0,8.279-3.359,8.279-15.959"/>
        <path id="Path_1165" data-name="Path 1165" d="M447.856,82.917a1.075,1.075,0,0,1-1.08,1.08h-23.4a1.075,1.075,0,0,1-1.08-1.08l.36-25.079v-11.4c0-5.279-1.56-7.559-3.96-7.559-4.32,0-7.079,5.4-7.56,15.959v3l.361,25.079a1.076,1.076,0,0,1-1.08,1.08h-23.4a1.075,1.075,0,0,1-1.08-1.08l.36-25.079v-11.4c0-5.279-1.559-7.559-3.96-7.559-4.679,0-7.439,6.24-7.559,19.079l.36,24.959a1.075,1.075,0,0,1-1.08,1.08h-23.4a1.075,1.075,0,0,1-1.08-1.08l.36-30.118-.12-29.52a1.076,1.076,0,0,1,1.08-1.08h22.079a.955.955,0,0,1,1.08,1.08l-.36,6.12c4.08-6.479,11.519-8.639,18.719-8.639,7.8,0,13.2,2.76,16.2,8.039,3.479-5.64,10.079-8.039,17.638-8.039,13.92,0,21.24,9.6,21.24,22.8V57.838Z"/>
        <path id="Path_1166" data-name="Path 1166" d="M493.336,64.078a1.073,1.073,0,0,1,1.2-.96h21.839c.72,0,1.2.48.96,1.2C515.175,74.4,504.616,85.8,485.777,85.8c-20.64,0-33.959-12.959-33.959-32.519C451.818,33.119,465.5,20.4,484.7,20.4c21.6,0,33.478,12.24,33.838,36.959a1.007,1.007,0,0,1-1.08,1.08H476.777c.839,9,4.08,10.919,8.759,10.919,3.84,0,6.48-1.679,7.8-5.279M477.137,45h15.839c0-5.28-2.76-8.88-7.44-8.88-3.96,0-7.08,1.68-8.4,8.88"/>
      </g>
    </g>
  </g>
</svg>
