<svg xmlns="http://www.w3.org/2000/svg" xmlns:xlink="http://www.w3.org/1999/xlink" width="624" height="230" viewBox="0 0 624 230">
  <defs>
    <clipPath id="clip-path">
      <rect id="Rectangle_432" data-name="Rectangle 432" width="350" height="110.919" fill="none"/>
    </clipPath>
    <clipPath id="clip-ZMD">
      <rect width="624" height="230"/>
    </clipPath>
  </defs>
  <g id="ZMD" clip-path="url(#clip-ZMD)">
    <rect width="624" height="230" fill="#f4f4f4"/>
    <g id="Group_137" data-name="Group 137" transform="translate(137 59.541)">
      <g id="Group_136" data-name="Group 136" clip-path="url(#clip-path)">
        <path id="Path_1087" data-name="Path 1087" d="M109.33,104.671H1.56a1.56,1.56,0,0,0-.947,2.8l31.623,24.158a1.561,1.561,0,0,1,.544,1.7L20.733,172.313a1.56,1.56,0,0,0,2.437,1.7L54.5,150.082a1.561,1.561,0,0,1,1.894,0l31.327,23.932a1.56,1.56,0,0,0,2.437-1.7L78.11,133.329a1.561,1.561,0,0,1,.544-1.7l31.624-24.158a1.56,1.56,0,0,0-.947-2.8" transform="translate(0 -63.416)"/>
        <path id="Path_1088" data-name="Path 1088" d="M84.845,38.218h3.12a1.56,1.56,0,0,0,1.56-1.56V22.619a16.379,16.379,0,1,1,32.758,0V36.658a1.56,1.56,0,0,0,1.56,1.56h3.12a1.56,1.56,0,0,0,1.56-1.56V22.619a22.619,22.619,0,0,0-45.237,0V36.658a1.56,1.56,0,0,0,1.56,1.56" transform="translate(-50.459 -0.001)"/>
        <path id="Path_1089" data-name="Path 1089" d="M340.307,202.309h-7.374a.614.614,0,0,0-.614.614v21.122a.614.614,0,0,0,.614.614h7.309c6.81,0,10.936-4.212,10.936-11.2,0-6.963-4.125-11.154-10.87-11.154m-.262,18.3h-2.387a.615.615,0,0,1-.615-.614V206.973a.615.615,0,0,1,.615-.614h2.4c4.191,0,6.406,2.139,6.406,7.1,0,4.987-2.215,7.148-6.417,7.148" transform="translate(-201.337 -122.57)"/>
        <path id="Path_1090" data-name="Path 1090" d="M390.962,215.427h8.331a.614.614,0,0,0,.614-.614v-2.667a.614.614,0,0,0-.614-.614h-8.331a.614.614,0,0,1-.614-.614v-4.1a.614.614,0,0,1,.614-.614h9.106a.614.614,0,0,0,.614-.614v-2.667a.614.614,0,0,0-.614-.614H386.235a.614.614,0,0,0-.614.614v21.122a.614.614,0,0,0,.614.614h13.876a.614.614,0,0,0,.614-.614v-2.668a.614.614,0,0,0-.614-.614h-9.15a.614.614,0,0,1-.614-.614v-4.108a.614.614,0,0,1,.614-.614" transform="translate(-233.631 -122.57)"/>
        <path id="Path_1091" data-name="Path 1091" d="M446.229,209.61c0-4.442-2.936-7.3-8.011-7.3h-8.2a.614.614,0,0,0-.614.614v21.122a.614.614,0,0,0,.614.614h3.5a.614.614,0,0,0,.614-.614v-7.309h3.448l4.061,7.6a.615.615,0,0,0,.542.325h3.812a.615.615,0,0,0,.539-.909l-3.941-7.212a.608.608,0,0,1,.242-.829,6.464,6.464,0,0,0,3.4-6.1m-8.895,3.329h-2.594a.615.615,0,0,1-.615-.614v-5.538a.615.615,0,0,1,.615-.614h2.572c2.728,0,4.049,1.211,4.049,3.438s-1.321,3.329-4.027,3.329" transform="translate(-260.155 -122.57)"/>
        <path id="Path_1092" data-name="Path 1092" d="M493.566,216.365h-.2l-9.464-13.79a.616.616,0,0,0-.507-.267h-3.21a.614.614,0,0,0-.614.614v21.122a.614.614,0,0,0,.614.614h3.5a.614.614,0,0,0,.614-.614V210.592h.163l9.541,13.8a.616.616,0,0,0,.506.265h3.145a.615.615,0,0,0,.615-.614V202.923a.615.615,0,0,0-.615-.614h-3.474a.615.615,0,0,0-.615.614Z" transform="translate(-290.553 -122.57)"/>
        <path id="Path_1093" data-name="Path 1093" d="M537.8,215.427h8.331a.615.615,0,0,0,.615-.614v-2.667a.615.615,0,0,0-.615-.614H537.8a.614.614,0,0,1-.614-.614v-4.1a.614.614,0,0,1,.614-.614h9.106a.615.615,0,0,0,.615-.614v-2.667a.615.615,0,0,0-.615-.614H533.078a.615.615,0,0,0-.615.614v21.122a.615.615,0,0,0,.615.614h13.876a.614.614,0,0,0,.614-.614v-2.668a.614.614,0,0,0-.614-.614H537.8a.614.614,0,0,1-.614-.614v-4.108a.614.614,0,0,1,.614-.614" transform="translate(-322.596 -122.57)"/>
        <path id="Path_1094" data-name="Path 1094" d="M594.3,189.421a1.9,1.9,0,0,1-2.126-1.46.6.6,0,0,0-.573-.493h-2.029a.617.617,0,0,0-.613.7c.339,2.249,2.335,3.709,5.34,3.709s5-1.459,5.347-3.707a.617.617,0,0,0-.612-.7H597a.611.611,0,0,0-.588.5,1.9,1.9,0,0,1-2.108,1.453" transform="translate(-356.821 -113.578)"/>
        <path id="Path_1095" data-name="Path 1095" d="M587.728,215.788h3.517a.622.622,0,0,1,.609.722c-.354,2.351-2.175,3.806-5.036,3.806-3.547,0-5.784-2.652-5.784-7.322,0-4.649,2.325-7.279,5.741-7.279a4.5,4.5,0,0,1,4.554,2.96.607.607,0,0,0,.571.39h3.617a.618.618,0,0,0,.6-.751c-.927-4.017-4.661-6.779-9.423-6.779-5.9,0-10.455,4.256-10.455,11.5,0,7.073,4.256,11.459,10.553,11.459,5.642,0,9.669-3.569,9.669-9.451v-2.2a.615.615,0,0,0-.615-.616h-8.123a.615.615,0,0,0-.615.614v2.329a.615.615,0,0,0,.615.614" transform="translate(-349.121 -122.101)"/>
        <path id="Path_1096" data-name="Path 1096" d="M635.221,184.893a2.358,2.358,0,1,0,2.521,2.346,2.445,2.445,0,0,0-2.521-2.346" transform="translate(-383.332 -112.019)"/>
        <path id="Path_1097" data-name="Path 1097" d="M633.657,224.66h3.5a.614.614,0,0,0,.614-.614V202.923a.614.614,0,0,0-.614-.614h-3.5a.615.615,0,0,0-.615.614v21.122a.615.615,0,0,0,.615.614" transform="translate(-383.533 -122.57)"/>
        <path id="Path_1098" data-name="Path 1098" d="M356.546,142.361V121.238a.615.615,0,0,0-.615-.614h-4.8a.615.615,0,0,0-.569.382l-6,14.636H344.3l-6-14.636a.615.615,0,0,0-.568-.382h-4.8a.614.614,0,0,0-.614.614v21.122a.614.614,0,0,0,.614.614h3.355a.614.614,0,0,0,.614-.614V128.373h.185l5.63,14.106a.614.614,0,0,0,.571.387h2.289a.615.615,0,0,0,.57-.386l5.63-14.053h.185v13.933a.614.614,0,0,0,.614.614h3.355a.615.615,0,0,0,.615-.614" transform="translate(-201.337 -73.081)"/>
        <path id="Path_1099" data-name="Path 1099" d="M407.2,121.038l-7.291,21.122a.615.615,0,0,0,.581.815h3.755a.615.615,0,0,0,.585-.424l1.382-4.248a.615.615,0,0,1,.585-.424h7.173a.615.615,0,0,1,.584.424l1.382,4.248a.615.615,0,0,0,.584.424h3.756a.614.614,0,0,0,.581-.815l-7.281-21.122a.614.614,0,0,0-.581-.414h-5.214a.615.615,0,0,0-.581.414m1.2,13.151a.615.615,0,0,1-.585-.8l2.489-7.653h.175l2.489,7.653a.615.615,0,0,1-.585.8Z" transform="translate(-242.265 -73.081)"/>
        <path id="Path_1100" data-name="Path 1100" d="M464.352,124.03a4.5,4.5,0,0,1,4.542,2.928.629.629,0,0,0,.583.422h3.616a.62.62,0,0,0,.6-.759c-.929-4.013-4.662-6.771-9.42-6.771-5.9,0-10.455,4.256-10.455,11.5,0,7.073,4.256,11.459,10.553,11.459,5.642,0,9.669-3.569,9.669-9.451v-2.2a.614.614,0,0,0-.615-.614H465.3a.614.614,0,0,0-.614.614v2.329a.614.614,0,0,0,.614.614h3.517a.618.618,0,0,1,.612.7c-.346,2.363-2.17,3.826-5.038,3.826-3.547,0-5.784-2.652-5.784-7.322,0-4.649,2.325-7.279,5.741-7.279" transform="translate(-274.95 -72.612)"/>
        <path id="Path_1101" data-name="Path 1101" d="M476.613,105.782h-2.039a.611.611,0,0,0-.587.5,2.267,2.267,0,0,1-4.234-.007.594.594,0,0,0-.573-.493h-2.029a.617.617,0,0,0-.613.7c.339,2.249,2.335,3.709,5.34,3.709s5-1.459,5.348-3.707a.617.617,0,0,0-.613-.7" transform="translate(-282.651 -64.089)"/>
        <path id="Path_1102" data-name="Path 1102" d="M510.71,142.552l1.382-4.248a.615.615,0,0,1,.584-.424h7.173a.615.615,0,0,1,.585.424l1.382,4.248a.614.614,0,0,0,.584.424h3.756a.615.615,0,0,0,.581-.815l-7.281-21.122a.614.614,0,0,0-.581-.414h-5.214a.615.615,0,0,0-.581.414l-7.291,21.122a.615.615,0,0,0,.581.815h3.755a.615.615,0,0,0,.585-.424m5.471-16.819h.175l2.489,7.653a.615.615,0,0,1-.584.8h-3.983a.615.615,0,0,1-.585-.8Z" transform="translate(-306.414 -73.081)"/>
        <path id="Path_1103" data-name="Path 1103" d="M581.656,120.625H565.772a.614.614,0,0,0-.615.614v2.667a.614.614,0,0,0,.615.614h9.369a.614.614,0,0,1,.5.971l-10.348,14.519a.612.612,0,0,0-.114.356v1.994a.614.614,0,0,0,.615.614h15.884a.615.615,0,0,0,.615-.614v-2.668a.615.615,0,0,0-.615-.614H572.3a.614.614,0,0,1-.5-.971l10.357-14.519a.613.613,0,0,0,.114-.357v-1.994a.614.614,0,0,0-.614-.614" transform="translate(-342.404 -73.081)"/>
        <path id="Path_1104" data-name="Path 1104" d="M622,121.038l-7.291,21.122a.614.614,0,0,0,.581.815h3.755a.614.614,0,0,0,.585-.424l1.382-4.248a.615.615,0,0,1,.585-.424h7.173a.615.615,0,0,1,.585.424l1.382,4.248a.615.615,0,0,0,.585.424h3.756a.615.615,0,0,0,.581-.815l-7.281-21.122a.614.614,0,0,0-.581-.414h-5.214a.615.615,0,0,0-.581.414m1.2,13.151a.614.614,0,0,1-.584-.8l2.488-7.653h.175l2.489,7.653a.615.615,0,0,1-.584.8Z" transform="translate(-372.407 -73.081)"/>
        <path id="Path_1105" data-name="Path 1105" d="M679.147,124.03a4.523,4.523,0,0,1,4.728,3.5.6.6,0,0,0,.592.449h3.554a.62.62,0,0,0,.6-.742c-.893-4.7-4.668-7.388-9.588-7.388-5.9,0-10.411,4.168-10.411,11.481,0,7.29,4.431,11.481,10.411,11.481,5.378,0,8.757-3.356,9.575-7.171a.62.62,0,0,0-.6-.756l-3.556-.016a.612.612,0,0,0-.6.434,4.575,4.575,0,0,1-4.745,3.329c-3.394,0-5.7-2.521-5.7-7.3,0-4.649,2.27-7.3,5.729-7.3" transform="translate(-405.092 -72.612)"/>
        <path id="Path_1106" data-name="Path 1106" d="M725.727,142.975h3.5a.614.614,0,0,0,.614-.614V121.238a.614.614,0,0,0-.614-.614h-3.5a.615.615,0,0,0-.615.614v21.122a.615.615,0,0,0,.615.614" transform="translate(-439.314 -73.081)"/>
        <path id="Path_1107" data-name="Path 1107" d="M746.672,120.625h-3.5a.614.614,0,0,0-.615.614v21.122a.614.614,0,0,0,.615.614h13.079a.614.614,0,0,0,.614-.614v-2.668a.614.614,0,0,0-.614-.614H747.9a.614.614,0,0,1-.614-.614V121.239a.614.614,0,0,0-.615-.614" transform="translate(-449.884 -73.081)"/>
        <path id="Path_1108" data-name="Path 1108" d="M792.27,121.038l-7.291,21.122a.615.615,0,0,0,.581.815h3.755a.615.615,0,0,0,.584-.424l1.382-4.248a.615.615,0,0,1,.585-.424h7.173a.615.615,0,0,1,.584.424l1.382,4.248a.615.615,0,0,0,.584.424h3.756a.614.614,0,0,0,.581-.815l-7.281-21.122a.614.614,0,0,0-.581-.414h-5.214a.615.615,0,0,0-.581.414m1.2,13.151a.615.615,0,0,1-.585-.8l2.489-7.653h.175l2.489,7.653a.615.615,0,0,1-.585.8Z" transform="translate(-475.563 -73.081)"/>
        <path id="Path_1109" data-name="Path 1109" d="M857.537,134.854a.608.608,0,0,1,.242-.83,6.463,6.463,0,0,0,3.4-6.1c0-4.441-2.935-7.3-8.01-7.3h-8.2a.615.615,0,0,0-.614.615v21.122a.614.614,0,0,0,.614.614h3.5a.614.614,0,0,0,.614-.614v-6.695a.614.614,0,0,1,.615-.614h2.466a.614.614,0,0,1,.542.325l3.887,7.274a.615.615,0,0,0,.542.325h3.812a.615.615,0,0,0,.539-.909Zm-5.253-3.6H849.69a.614.614,0,0,1-.615-.614V125.1a.615.615,0,0,1,.615-.615h2.572c2.728,0,4.049,1.211,4.049,3.438s-1.321,3.329-4.027,3.329" transform="translate(-511.554 -73.081)"/>
        <path id="Path_1110" data-name="Path 1110" d="M332.339,58.806V60.8a.614.614,0,0,0,.614.614h15.884a.614.614,0,0,0,.614-.614V58.132a.614.614,0,0,0-.614-.614h-9.379a.614.614,0,0,1-.5-.971l10.357-14.519a.614.614,0,0,0,.114-.357V39.677a.614.614,0,0,0-.614-.614H332.932a.614.614,0,0,0-.614.614v2.667a.614.614,0,0,0,.614.614H342.3a.614.614,0,0,1,.5.971L332.453,58.449a.618.618,0,0,0-.114.357" transform="translate(-201.337 -23.667)"/>
        <path id="Path_1111" data-name="Path 1111" d="M381.871,61.393h3.5a.614.614,0,0,0,.614-.614V39.656a.614.614,0,0,0-.614-.614h-3.5a.614.614,0,0,0-.614.614V60.779a.614.614,0,0,0,.614.614" transform="translate(-230.987 -23.654)"/>
        <path id="Path_1112" data-name="Path 1112" d="M383.435,26.33a2.357,2.357,0,1,0-2.51-2.358,2.45,2.45,0,0,0,2.51,2.358" transform="translate(-230.786 -13.102)"/>
        <path id="Path_1113" data-name="Path 1113" d="M403.43,47.325h.163l9.541,13.8a.614.614,0,0,0,.506.265h3.145a.614.614,0,0,0,.614-.614V39.656a.614.614,0,0,0-.614-.614H413.31a.614.614,0,0,0-.614.614V53.1h-.2l-9.464-13.79a.615.615,0,0,0-.506-.267h-3.21a.614.614,0,0,0-.614.614V60.779a.614.614,0,0,0,.614.614h3.5a.614.614,0,0,0,.614-.614Z" transform="translate(-241.557 -23.654)"/>
        <path id="Path_1114" data-name="Path 1114" d="M462,61.25c5.378,0,8.756-3.356,9.574-7.171a.621.621,0,0,0-.6-.756l-3.555-.016a.612.612,0,0,0-.6.434,4.575,4.575,0,0,1-4.745,3.329c-3.394,0-5.7-2.521-5.7-7.3,0-4.649,2.27-7.3,5.73-7.3a4.522,4.522,0,0,1,4.728,3.5.6.6,0,0,0,.592.449h3.555a.621.621,0,0,0,.6-.742c-.893-4.7-4.668-7.388-9.587-7.388-5.9,0-10.412,4.168-10.412,11.481,0,7.29,4.431,11.481,10.412,11.481" transform="translate(-273.6 -23.197)"/>
        <path id="Path_1115" data-name="Path 1115" d="M508.087,39.677V60.8a.614.614,0,0,0,.614.614h3.5a.615.615,0,0,0,.615-.614V39.677a.615.615,0,0,0-.615-.614h-3.5a.614.614,0,0,0-.614.614" transform="translate(-307.828 -23.667)"/>
        <path id="Path_1116" data-name="Path 1116" d="M510.265,26.35a2.357,2.357,0,1,0-2.51-2.358,2.449,2.449,0,0,0,2.51,2.358" transform="translate(-307.626 -13.114)"/>
        <path id="Path_1117" data-name="Path 1117" d="M530.875,53.491h2.466a.615.615,0,0,1,.542.325l3.887,7.274a.614.614,0,0,0,.542.325h3.812a.614.614,0,0,0,.539-.909l-3.941-7.212a.608.608,0,0,1,.242-.829,6.465,6.465,0,0,0,3.4-6.1c0-4.442-2.936-7.3-8.011-7.3h-8.2a.614.614,0,0,0-.614.614V60.8a.614.614,0,0,0,.614.614h3.5a.615.615,0,0,0,.615-.614V54.105a.614.614,0,0,1,.614-.614m-.614-9.95a.614.614,0,0,1,.614-.614h2.572c2.729,0,4.049,1.212,4.049,3.438s-1.32,3.329-4.027,3.329h-2.594a.614.614,0,0,1-.614-.614Z" transform="translate(-318.398 -23.667)"/>
      </g>
    </g>
  </g>
</svg>
